<svg xmlns="http://www.w3.org/2000/svg" width="25" height="28.429" viewBox="0 0 25 28.429">
  <path id="Icon_awesome-calendar-plus" data-name="Icon awesome-calendar-plus" d="M23.357,8.571H.643A.645.645,0,0,1,0,7.929V6A2.572,2.572,0,0,1,2.571,3.429H5.143V.643A.645.645,0,0,1,5.786,0H7.929a.645.645,0,0,1,.643.643V3.429h6.857V.643A.645.645,0,0,1,16.071,0h2.143a.645.645,0,0,1,.643.643V3.429h2.571A2.572,2.572,0,0,1,24,6V7.929A.645.645,0,0,1,23.357,8.571ZM.643,10.286H23.357a.645.645,0,0,1,.643.643V24.857a2.572,2.572,0,0,1-2.571,2.571H2.571A2.572,2.572,0,0,1,0,24.857V10.929A.645.645,0,0,1,.643,10.286Zm16.929,7.5a.645.645,0,0,0-.643-.643H13.714V13.929a.645.645,0,0,0-.643-.643H10.929a.645.645,0,0,0-.643.643v3.214H7.071a.645.645,0,0,0-.643.643v2.143a.645.645,0,0,0,.643.643h3.214v3.214a.645.645,0,0,0,.643.643h2.143a.645.645,0,0,0,.643-.643V20.571h3.214a.645.645,0,0,0,.643-.643Z" transform="translate(0.5 0.5)" fill="none" stroke="#aea99f" stroke-width="1"/>
</svg>
