<svg xmlns="http://www.w3.org/2000/svg" width="25" height="28.429" viewBox="0 0 25 28.429">
  <path id="Icon_awesome-calendar-check" data-name="Icon awesome-calendar-check" d="M23.357,8.571H.643A.643.643,0,0,1,0,7.929V6A2.571,2.571,0,0,1,2.571,3.429H5.143V.643A.643.643,0,0,1,5.786,0H7.929a.643.643,0,0,1,.643.643V3.429h6.857V.643A.643.643,0,0,1,16.071,0h2.143a.643.643,0,0,1,.643.643V3.429h2.571A2.571,2.571,0,0,1,24,6V7.929A.643.643,0,0,1,23.357,8.571ZM.643,10.286H23.357a.643.643,0,0,1,.643.643V24.857a2.571,2.571,0,0,1-2.571,2.571H2.571A2.571,2.571,0,0,1,0,24.857V10.929A.643.643,0,0,1,.643,10.286ZM18.5,15.426,16.989,13.9a.643.643,0,0,0-.909,0L10.4,19.536,7.936,17.052a.643.643,0,0,0-.909,0L5.506,18.558a.643.643,0,0,0,0,.909l4.425,4.461a.643.643,0,0,0,.909,0l7.658-7.6a.643.643,0,0,0,0-.909Z" transform="translate(0.5 0.5)" fill="none" stroke="#aea99f" stroke-width="1"/>
</svg>
