<svg id="Capa_1" data-name="Capa 1" xmlns="http://www.w3.org/2000/svg" viewBox="0 0 267.55 48.33"><defs><style>.cls-1{fill:#001965;}.cls-2{fill:red;}.cls-3{fill:#939aa7;}</style></defs><title>logo</title><g id="logo"><g id="Grupo_14488" data-name="Grupo 14488"><g id="Grupo_14481" data-name="Grupo 14481"><g id="Grupo_14480" data-name="Grupo 14480"><g id="Grupo_14479" data-name="Grupo 14479"><g id="Grupo_14478" data-name="Grupo 14478"><path id="Trazado_14069" data-name="Trazado 14069" class="cls-1" d="M36.48,47.62H27.09V28.45H9.48V47.62H.09V3.2H9.48V20.62H27.09V3.2h9.39Z"/><path id="Trazado_14070" data-name="Trazado 14070" class="cls-1" d="M56.34,13q7,0,11.14,4t4.1,11.41v4.48H49.68A8.81,8.81,0,0,0,52,39.09a8.24,8.24,0,0,0,6.13,2.24,25.21,25.21,0,0,0,5.94-.65,29,29,0,0,0,5.57-2v7.15a23.53,23.53,0,0,1-5.29,1.84,33,33,0,0,1-6.65.59,20.49,20.49,0,0,1-9-1.9,14.1,14.1,0,0,1-6.16-5.73,19,19,0,0,1-2.24-9.73,21.63,21.63,0,0,1,2-9.89,13.67,13.67,0,0,1,5.63-6A17.06,17.06,0,0,1,56.34,13Zm.06,6.59a6.08,6.08,0,0,0-4.48,1.74,8.44,8.44,0,0,0-2.05,5.42h13a8.41,8.41,0,0,0-1.65-5.1,5.71,5.71,0,0,0-4.82-2.06Z"/><path id="Trazado_14071" data-name="Trazado 14071" class="cls-1" d="M116.69,13q5.79,0,8.74,3t3,9.49V47.62h-9.27V27.77q0-7.34-5.1-7.34-3.67,0-5.23,2.61t-1.55,7.53v17H98V27.77q0-7.34-5.1-7.34c-2.57,0-4.35,1-5.32,2.89s-1.46,4.7-1.46,8.31v16H76.82v-34H83.9L85.15,18h.5a9.07,9.07,0,0,1,4.26-3.79A13.8,13.8,0,0,1,95.54,13a14.7,14.7,0,0,1,6.31,1.21,8.77,8.77,0,0,1,4,3.76h.81A9,9,0,0,1,111,14.21,14.29,14.29,0,0,1,116.69,13Z"/><path id="Trazado_14072" data-name="Trazado 14072" class="cls-1" d="M195.73,20.62H181.21v27h-9.27v-27h-5.1V16.14l5.1-2.49V11.16a13,13,0,0,1,1.46-6.75A7.93,7.93,0,0,1,177.57,1a17.49,17.49,0,0,1,6.37-1,26,26,0,0,1,6.45.84c-.7,2.24-1.4,4.47-2.09,6.71a8,8,0,0,0-3.36-.21,4,4,0,0,0-2.83,1.18,4.78,4.78,0,0,0-.9,3v2.11h14.52Z"/><path id="Trazado_14073" data-name="Trazado 14073" class="cls-1" d="M202.43,13.65v34h-9.27v-34Z"/><path id="Trazado_14074" data-name="Trazado 14074" class="cls-1" d="M217.65,47.62h-9.27V.34h9.27Z"/><path id="Trazado_14075" data-name="Trazado 14075" class="cls-1" d="M228.56.34a6.37,6.37,0,0,1,3.55,1c1,.64,1.49,1.84,1.49,3.58a4,4,0,0,1-1.49,3.54,6.87,6.87,0,0,1-7.13,0,4,4,0,0,1-1.46-3.54c0-1.74.49-2.94,1.46-3.58A6.29,6.29,0,0,1,228.56.34Zm4.6,13.31v34h-9.27v-34Z"/><path id="Trazado_14076" data-name="Trazado 14076" class="cls-1" d="M253.46,13q6.84,0,10.48,2.95t3.64,9V47.62h-6.47l-1.8-4.6h-.24a14.77,14.77,0,0,1-4.6,4,14.83,14.83,0,0,1-6.66,1.24,11,11,0,0,1-7.53-2.61q-3-2.61-3-8.15t3.79-8q3.79-2.55,11.38-2.87l5.91-.18V25a5,5,0,0,0-1.4-3.92,5.63,5.63,0,0,0-3.88-1.25,16.68,16.68,0,0,0-4.86.72,39.37,39.37,0,0,0-4.72,1.77L240.47,16a27.6,27.6,0,0,1,6-2.21A28.21,28.21,0,0,1,253.46,13Zm4.91,18.91-3.6.12c-3,.09-5.06.62-6.23,1.62a4.91,4.91,0,0,0-1.74,3.92,3.5,3.5,0,0,0,1.25,3,5.42,5.42,0,0,0,3.23.9,7.43,7.43,0,0,0,5-1.78,6.24,6.24,0,0,0,2.05-5Z"/></g><path id="Trazado_14077" data-name="Trazado 14077" class="cls-1" d="M197.36.34a6.32,6.32,0,0,1,3.54,1c1,.64,1.49,1.84,1.49,3.58a3.91,3.91,0,0,1-1.49,3.54,6.85,6.85,0,0,1-7.12,0,4,4,0,0,1-1.46-3.54A4.41,4.41,0,0,1,193,2a3.56,3.56,0,0,1,.74-.71A5.67,5.67,0,0,1,197.36.34Z"/></g></g></g></g><g id="Grupo_14490" data-name="Grupo 14490"><path id="Trazado_14128" data-name="Trazado 14128" class="cls-2" d="M143.22,36.94A6,6,0,0,0,147.76,39h0A6.05,6.05,0,0,0,152.3,37c1.86-2.41.59-8.37-4.6-14.47C143.57,27.44,140.86,33.92,143.22,36.94Z"/><path id="Trazado_14129" data-name="Trazado 14129" class="cls-1" d="M162.62,20.62a14.87,14.87,0,0,0-5.89-6.08,17.42,17.42,0,0,0-8.62-2.09q-7.86,0-12.36,4.62t-4.5,13.25a20.53,20.53,0,0,0,2.16,9.79,14.77,14.77,0,0,0,5.92,6.11,17.28,17.28,0,0,0,8.59,2.09q7.8,0,12.32-4.69t4.54-13.3A20.26,20.26,0,0,0,162.62,20.62Zm-8.47,17.75a8.38,8.38,0,0,1-6.37,3h0a8.46,8.46,0,0,1-6.39-3c-3-3.9-.73-11.66,5.46-18.46l.86-.94.87.94C154.81,26.72,157.16,34.48,154.15,38.37Z"/></g><g id="Grupo_14491" data-name="Grupo 14491"><path id="Trazado_14130" data-name="Trazado 14130" class="cls-3" d="M43.3,1.9h3.37v.84H44.29V4.17h2V5h-2V6.66h2.46V7.5H43.3Z"/><path id="Trazado_14131" data-name="Trazado 14131" class="cls-3" d="M47.33,4.68c0-1.81,1-2.88,2.47-2.88s2.47,1.07,2.47,2.88-1,2.92-2.47,2.92S47.33,6.49,47.33,4.68Zm3.92,0c0-1.26-.57-2-1.45-2s-1.45.76-1.45,2,.57,2.11,1.45,2.11S51.25,6,51.25,4.68Zm-2,2.79,1-.09a1.4,1.4,0,0,0,1.38.8,2.1,2.1,0,0,0,.61-.09l.18.74a2.51,2.51,0,0,1-.9.16A2.35,2.35,0,0,1,49.3,7.46Z"/><path id="Trazado_14132" data-name="Trazado 14132" class="cls-3" d="M53.23,5V1.9h1V5.12c0,1.22.46,1.62,1.14,1.62s1.15-.4,1.15-1.62V1.9h1V5c0,1.84-.82,2.56-2.11,2.56S53.23,6.88,53.23,5Z"/><path id="Trazado_14133" data-name="Trazado 14133" class="cls-3" d="M58.68,1.9h1V7.5h-1Z"/><path id="Trazado_14134" data-name="Trazado 14134" class="cls-3" d="M60.89,1.9h1.77c1.24,0,2.16.43,2.16,1.73s-.92,1.81-2.13,1.81h-.8V7.5h-1Zm1.72,2.75c.84,0,1.23-.34,1.23-1s-.43-.94-1.26-.94h-.69v2Z"/><path id="Trazado_14135" data-name="Trazado 14135" class="cls-3" d="M65.52,4.68c0-1.81,1-2.88,2.47-2.88s2.47,1.07,2.47,2.88S69.45,7.6,68,7.6,65.52,6.49,65.52,4.68Zm3.92,0c0-1.26-.57-2-1.45-2s-1.45.76-1.45,2S67.11,6.74,68,6.74,69.44,5.93,69.44,4.68Z"/><path id="Trazado_14136" data-name="Trazado 14136" class="cls-3" d="M71,6.78l.58-.68A2.18,2.18,0,0,0,73,6.74c.63,0,1-.29,1-.72s-.36-.61-.87-.83l-.77-.33a1.61,1.61,0,0,1-1.13-1.48A1.7,1.7,0,0,1,73,1.79h.07a2.44,2.44,0,0,1,1.73.71l-.51.63a1.79,1.79,0,0,0-1.22-.48c-.53,0-.88.25-.88.66s.43.6.89.79l.76.32A1.54,1.54,0,0,1,75,5.94a1.77,1.77,0,0,1-1.88,1.67H73A2.89,2.89,0,0,1,71,6.78Z"/><path id="Trazado_14137" data-name="Trazado 14137" class="cls-3" d="M77.64,1.9h1.12l1,2.74c.13.35.24.73.36,1.1h0c.12-.37.23-.75.35-1.1l1-2.74h1.12V7.5h-.91V4.94c0-.52.08-1.27.13-1.78h0l-.45,1.3L80.4,7h-.59l-.92-2.51-.45-1.3h0c0,.51.12,1.26.12,1.78V7.5h-.89Z"/><path id="Trazado_14138" data-name="Trazado 14138" class="cls-3" d="M83.81,5V1.9h1V5.12c0,1.22.46,1.62,1.13,1.62s1.16-.4,1.16-1.62V1.9h1V5c0,1.84-.82,2.56-2.12,2.56S83.81,6.88,83.81,5Z"/><path id="Trazado_14139" data-name="Trazado 14139" class="cls-3" d="M89.25,1.9h1V6.66h2.32V7.5H89.25Z"/><path id="Trazado_14140" data-name="Trazado 14140" class="cls-3" d="M94,2.74H92.36V1.9h4.23v.84H95V7.5H94Z"/><path id="Trazado_14141" data-name="Trazado 14141" class="cls-3" d="M97.39,1.9h1V7.5h-1Z"/><path id="Trazado_14142" data-name="Trazado 14142" class="cls-3" d="M99.61,1.9h1.49a2.8,2.8,0,1,1,.05,5.6H99.61ZM101,6.7c1.13,0,1.78-.64,1.78-2s-.65-2-1.78-2h-.43v4Z"/><path id="Trazado_14143" data-name="Trazado 14143" class="cls-3" d="M104.85,1.9h1V7.5h-1Z"/><path id="Trazado_14144" data-name="Trazado 14144" class="cls-3" d="M106.66,6.78l.57-.68a2.2,2.2,0,0,0,1.46.64c.63,0,1-.29,1-.72s-.36-.61-.87-.83L108,4.86a1.59,1.59,0,0,1-1.13-1.48,1.7,1.7,0,0,1,1.8-1.59h.08a2.45,2.45,0,0,1,1.72.71l-.51.63a1.86,1.86,0,0,0-1.21-.48c-.53,0-.88.25-.88.66s.43.6.89.79l.76.32a1.55,1.55,0,0,1,1.13,1.51,1.79,1.79,0,0,1-1.88,1.68h-.13A2.88,2.88,0,0,1,106.66,6.78Z"/><path id="Trazado_14145" data-name="Trazado 14145" class="cls-3" d="M111.35,4.72a2.63,2.63,0,0,1,2.33-2.91h.24a2.2,2.2,0,0,1,1.61.71l-.53.64a1.44,1.44,0,0,0-1.06-.49c-.91,0-1.57.77-1.57,2s.6,2.05,1.55,2.05a1.6,1.6,0,0,0,1.2-.57l.53.62a2.22,2.22,0,0,1-1.77.81A2.56,2.56,0,0,1,111.35,4.72Z"/><path id="Trazado_14146" data-name="Trazado 14146" class="cls-3" d="M116.4,1.9h1V7.5h-1Z"/><path id="Trazado_14147" data-name="Trazado 14147" class="cls-3" d="M118.62,1.9h1.76c1.25,0,2.17.43,2.17,1.73s-.93,1.81-2.13,1.81h-.81V7.5h-1Zm1.71,2.75c.84,0,1.24-.34,1.24-1s-.44-.94-1.27-.94h-.69v2Z"/><path id="Trazado_14148" data-name="Trazado 14148" class="cls-3" d="M123.39,1.9h1V6.66h2.32V7.5h-3.32Z"/><path id="Trazado_14149" data-name="Trazado 14149" class="cls-3" d="M127.61,1.9h1V7.5h-1Z"/><path id="Trazado_14150" data-name="Trazado 14150" class="cls-3" d="M129.82,1.9h1l1.75,3.15.57,1.2h0c0-.58-.13-1.29-.13-1.91V1.9h1V7.5h-1l-1.74-3.15-.58-1.19h0c.05.59.13,1.26.13,1.89V7.5h-1Z"/><path id="Trazado_14151" data-name="Trazado 14151" class="cls-3" d="M136.49,1.9h1.17l1.82,5.6h-1l-.86-3c-.18-.59-.34-1.23-.51-1.85h0c-.16.62-.32,1.26-.5,1.85l-.86,3h-1Zm-.74,3.3h2.63V6h-2.63Z"/><path id="Trazado_14152" data-name="Trazado 14152" class="cls-3" d="M140.13,1.9H142c1.16,0,2.06.41,2.06,1.66s-.9,1.75-2.06,1.75h-.9V7.5h-1Zm1.78,2.62c.77,0,1.19-.32,1.19-1s-.42-.87-1.19-.87h-.79V4.52Zm-.08.53.72-.6L144.3,7.5h-1.12Z"/><path id="Trazado_14153" data-name="Trazado 14153" class="cls-3" d="M145.12,1.9h1V7.5h-1Z"/><path id="Trazado_14154" data-name="Trazado 14154" class="cls-3" d="M147.12,4.68c0-1.81,1-2.88,2.47-2.88s2.47,1.07,2.47,2.88-1,2.92-2.47,2.92S147.12,6.49,147.12,4.68Zm3.92,0c0-1.26-.57-2-1.45-2s-1.45.76-1.45,2,.57,2.06,1.45,2.06S151,5.93,151,4.68Z"/><path id="Trazado_14155" data-name="Trazado 14155" class="cls-3" d="M154.81,1.9h3.37v.84H155.8V4.17h2V5h-2V6.66h2.46V7.5h-3.45Z"/><path id="Trazado_14156" data-name="Trazado 14156" class="cls-3" d="M159.21,1.9h1L162,5.05l.58,1.2h0c-.05-.58-.13-1.29-.13-1.91V1.9h.95V7.5h-1l-1.74-3.15-.58-1.19h0c.05.59.13,1.26.13,1.89V7.5h-.94Z"/></g></g></svg>