<svg id="Capa_1" data-name="Capa 1" xmlns="http://www.w3.org/2000/svg" viewBox="0 0 78.18 59.05"><defs><style>.cls-1,.cls-2{fill:none;stroke-width:4px;}.cls-1{stroke:#001965;}.cls-2{stroke:#3b97de;}.cls-3{fill:#3b97de;}.cls-4{fill:#001965;}.cls-5{fill:red;}</style></defs><title>logo</title><g id="logo"><g id="Grupo_14488" data-name="Grupo 14488"><path id="Trazado_14060" data-name="Trazado 14060" class="cls-1" d="M15.08,48.33h9.26"/><path id="Trazado_14061" data-name="Trazado 14061" class="cls-2" d="M11.67,29.87A38.05,38.05,0,0,0,9.45,40.2"/><path id="Trazado_14063" data-name="Trazado 14063" class="cls-2" d="M30.9,9.38A30.74,30.74,0,0,0,19,17.72"/><path id="Trazado_14064" data-name="Trazado 14064" class="cls-2" d="M57.6,16.31A31.18,31.18,0,0,0,45.7,9.05"/><path id="Trazado_14065" data-name="Trazado 14065" class="cls-2" d="M68.91,40a38,38,0,0,0-2.66-10.91"/><path id="Trazado_14066" data-name="Trazado 14066" class="cls-1" d="M53.92,48.33h7.72"/><path id="Trazado_14067" data-name="Trazado 14067" class="cls-1" d="M50.47,30.38l4.86-3.27"/><path id="Trazado_14068" data-name="Trazado 14068" class="cls-1" d="M25.44,30.38l-4.85-3.27"/><g id="Grupo_14482" data-name="Grupo 14482"><path id="Trazado_14078" data-name="Trazado 14078" class="cls-3" d="M8.64,52.71l.85,2.1.85-2.11a2.35,2.35,0,0,1-.87.2A2.14,2.14,0,0,1,8.64,52.71Z"/><path id="Trazado_14079" data-name="Trazado 14079" class="cls-3" d="M11.08,53.36l-.14-.26-.32.81Z"/><path id="Trazado_14080" data-name="Trazado 14080" class="cls-3" d="M2.56,53.14a1.76,1.76,0,0,1,1-1l3.17-1.22.43-.34a6.17,6.17,0,0,0,.14-1,5.11,5.11,0,0,1-.85-1.11.05.05,0,0,1,0,0l-.27-.73a.1.1,0,0,0,0,0A2.11,2.11,0,0,1,5.44,46a1,1,0,0,1,.16-.41c0-.65,0-1.11,0-1.28v0c0-2,.89-3.25,2.39-3.25a.5.5,0,0,0,.29-.09,2,2,0,0,1,1.22-.29A3.84,3.84,0,0,1,12.81,42a3.71,3.71,0,0,1,.62,2.24v0c0,.15,0,.61,0,1.27a.87.87,0,0,1,.16.4,2.09,2.09,0,0,1-.68,1.68l0,0-.27.73,0,0a5.11,5.11,0,0,1-.85,1.11,6.27,6.27,0,0,0,.11,1l.45.34,3.2,1.22a1.71,1.71,0,0,1,1,1A17.78,17.78,0,0,1,17,56a9.83,9.83,0,1,0-14.82-.64A13.74,13.74,0,0,1,2.56,53.14Z"/><path id="Trazado_14081" data-name="Trazado 14081" class="cls-3" d="M7.9,53.36l.45.52L8,53.11Z"/><path id="Trazado_14082" data-name="Trazado 14082" class="cls-3" d="M11,50.19a2,2,0,0,1-1,.34H10a3.22,3.22,0,0,1-1,0H8.94a2,2,0,0,1-1-.35,5.67,5.67,0,0,1-.1.57l.34.84a1.7,1.7,0,0,0,2.39.2,1.75,1.75,0,0,0,.23-.24l.32-.8A5.43,5.43,0,0,1,11,50.19Z"/><path id="Trazado_14083" data-name="Trazado 14083" class="cls-3" d="M5.63,55.21a.46.46,0,1,0,.46-.47.47.47,0,0,0-.46.47Z"/><path id="Trazado_14084" data-name="Trazado 14084" class="cls-3" d="M11.75,52.46v-1l-.1-.08-.5,1.23h0Z"/><path id="Trazado_14085" data-name="Trazado 14085" class="cls-3" d="M11.91,48.19l.26-.71a.86.86,0,0,1,.23-.33,1.42,1.42,0,0,0,.45-1,.19.19,0,0,0,0-.08.69.69,0,0,1-.62-.31,2.19,2.19,0,0,1-.28-.55A6.28,6.28,0,0,1,7.73,44c0,.16-.09.32-.14.48a3.68,3.68,0,0,1-.84,1.39.61.61,0,0,1-.6.17,0,0,0,0,1,0,0,1.42,1.42,0,0,0,.45,1,.86.86,0,0,1,.23.33l.26.71A4.58,4.58,0,0,0,8,49.27l.4.34a1.41,1.41,0,0,0,.69.22h.07a2.42,2.42,0,0,0,.76,0H10a1.44,1.44,0,0,0,.7-.22l.4-.34A4.5,4.5,0,0,0,11.91,48.19Z"/><path id="Trazado_14086" data-name="Trazado 14086" class="cls-3" d="M15.79,53.38a1,1,0,0,0-.59-.59L13.07,52a1.59,1.59,0,0,1,.07.2,2.5,2.5,0,0,1,.09.66v1.23a1.38,1.38,0,0,1,1,1.26l.17,1.14a.74.74,0,0,1-.18.59.69.69,0,0,1-.55.26h-.34v-.71h.36a0,0,0,0,0,0,0l-.17-1.14h0a.67.67,0,0,0-.65-.69h0a.68.68,0,0,0-.65.69h0l-.16,1.14s0,0,0,0h.37v.71h-.34a.75.75,0,0,1-.74-.75.38.38,0,0,1,0-.1l.16-1.13a1.39,1.39,0,0,1,1-1.27V52.84a1.74,1.74,0,0,0-.06-.45v.37a.35.35,0,0,1-.3.35l-.38.07,0,.07a.35.35,0,0,1,0,.39L9.77,56l0,0h0l0,0h0l0,0H9.37l0,0h0l-.05,0h0l0,0-2-2.35a.35.35,0,0,1,0-.39l0-.07-.38-.07a.35.35,0,0,1-.29-.35v-.45a.31.31,0,0,0,0,.08,1.74,1.74,0,0,0-.06.45v1.25a1.17,1.17,0,0,1,.74,1.47A1.16,1.16,0,1,1,5,54.83a1.17,1.17,0,0,1,.76-.74V52.84a2.57,2.57,0,0,1,.08-.62A1.55,1.55,0,0,1,5.91,52l-2.08.8a1,1,0,0,0-.58.59A18.15,18.15,0,0,0,2.78,56a9.79,9.79,0,0,0,13.56.54A20.47,20.47,0,0,0,15.79,53.38Z"/><path id="Trazado_14087" data-name="Trazado 14087" class="cls-3" d="M7.24,51.41v1.05l.56.1h0l-.5-1.22Z"/><path id="Trazado_14088" data-name="Trazado 14088" class="cls-3" d="M6.92,44.28c.07-.22.13-.45.18-.67a.49.49,0,0,1,.39-.39.54.54,0,0,1,.46.1A5.56,5.56,0,0,0,12,44.45a.47.47,0,0,1,.53.36,1.06,1.06,0,0,0,.12.34c0-.37,0-.71,0-.89a3.14,3.14,0,0,0-.5-1.81,3.19,3.19,0,0,0-2.78-1.09h0a1.3,1.3,0,0,0-.84.18,1.07,1.07,0,0,1-.66.2,1.41,1.41,0,0,0-1.37.89,4,4,0,0,0-.31,1.64c0,.2,0,.65,0,1.08A3,3,0,0,0,6.92,44.28Z"/></g><g id="Grupo_14483" data-name="Grupo 14483"><path id="Trazado_14089" data-name="Trazado 14089" class="cls-4" d="M44.72,35.81a1.3,1.3,0,0,0,1.13-1.45,1.32,1.32,0,0,0-1.13-1.13Z"/><path id="Trazado_14090" data-name="Trazado 14090" class="cls-4" d="M25.46,50a5.31,5.31,0,0,1,3.14-4.85l7.11-2.76V40.8A5.51,5.51,0,0,1,33.48,37a2.66,2.66,0,0,1-2.39-2.51A2.28,2.28,0,0,1,31.71,33V30.67a7.37,7.37,0,1,1,14.74-.17V33a2.34,2.34,0,0,1,.61,1.57A2.66,2.66,0,0,1,44.67,37a5.59,5.59,0,0,1-2.11,3.69v1.67l7.11,2.75h0A5.3,5.3,0,0,1,52.82,50h0v2.06a18.33,18.33,0,1,0-27.36.49Z"/><path id="Trazado_14091" data-name="Trazado 14091" class="cls-4" d="M39.14,40.7h0a4.39,4.39,0,0,0,4.38-4.38V32c-.15-.18-.62-.67-1.48-1.59a12.66,12.66,0,0,1-7.43,2v3.9a4.41,4.41,0,0,0,4.43,4.39Z"/><path id="Trazado_14092" data-name="Trazado 14092" class="cls-4" d="M34.57,31.22a11.49,11.49,0,0,0,6.93-1.87,1.07,1.07,0,0,1,1.41.22c1.39,1.5,1.71,1.79,1.79,2.1a1.35,1.35,0,0,1,0,.35,3.27,3.27,0,0,1,.54.13V30.67a6.18,6.18,0,1,0-12.36,0h0V32.2a3.58,3.58,0,0,1,.56-.16A1.05,1.05,0,0,1,34.57,31.22Z"/><path id="Trazado_14093" data-name="Trazado 14093" class="cls-4" d="M32.28,34.52a1.46,1.46,0,0,0,1.15,1.29V33.27A1.52,1.52,0,0,0,32.28,34.52Z"/><path id="Trazado_14094" data-name="Trazado 14094" class="cls-4" d="M35.89,44.8c2.79,1.93,6.43.77,7.28-.91l-1-.4a4.25,4.25,0,0,1-6,0h0l-1,.4A2.49,2.49,0,0,0,35.89,44.8Z"/><path id="Trazado_14095" data-name="Trazado 14095" class="cls-4" d="M36.9,41.46v1.1a3.05,3.05,0,0,0,4.31.17,1.29,1.29,0,0,0,.16-.17V41.42a5.66,5.66,0,0,1-2.22.46A6,6,0,0,1,36.9,41.46Z"/></g><g id="Grupo_14484" data-name="Grupo 14484"><path id="Trazado_14096" data-name="Trazado 14096" class="cls-3" d="M75.46,56l0-.19a3.84,3.84,0,0,0-2-2.22,9,9,0,0,1,.52,2.52,1.1,1.1,0,0,1,.73.65A8.18,8.18,0,0,0,75.46,56Z"/><path id="Trazado_14097" data-name="Trazado 14097" class="cls-3" d="M71.93,53.14a.35.35,0,0,0,0-.3.72.72,0,0,0-.35-.38l-.88-.32-.3,2-.64,4.17,2-3.22h0a.56.56,0,0,0,.13-.43.06.06,0,0,0,0-.05,2.54,2.54,0,0,0-.6-.22.29.29,0,0,1-.21-.35.33.33,0,0,1,.11-.15A2.94,2.94,0,0,0,71.93,53.14Z"/><path id="Trazado_14098" data-name="Trazado 14098" class="cls-3" d="M61,55.65a4.21,4.21,0,0,1,1.9-2.4,10.18,10.18,0,0,0,.69-4.85,9,9,0,0,1,0-3.65,4.2,4.2,0,0,1,1.19-2.18,2.78,2.78,0,0,1,2.57-.76h.08a.23.23,0,0,0,.2-.25v0a.8.8,0,0,1,.72-.86A4.54,4.54,0,0,1,72.69,43a12.46,12.46,0,0,1,.89,5.6v.2a22.15,22.15,0,0,0,.63,4.58,4.07,4.07,0,0,1,1.7,2.09A9.84,9.84,0,1,0,61,55.72Z"/><path id="Trazado_14099" data-name="Trazado 14099" class="cls-3" d="M73.63,56.59h0a.56.56,0,0,0-.55.45.54.54,0,0,0,.28.6c.28-.16.55-.35.82-.54A.56.56,0,0,0,73.63,56.59Z"/><path id="Trazado_14100" data-name="Trazado 14100" class="cls-3" d="M68.44,54.93a5.69,5.69,0,0,1-1.3-.36l.7,4.45.48,0c.27,0,.54,0,.81,0l.68-4.44A5.91,5.91,0,0,1,68.44,54.93Z"/><path id="Trazado_14101" data-name="Trazado 14101" class="cls-3" d="M64.64,52.42a1.28,1.28,0,0,1,.52-.46c.07,0,.43-.16,1.1-.38l.3-.65a3.17,3.17,0,0,1-1.15-2.12,2.24,2.24,0,0,1-1.32-1.74A1,1,0,0,1,64.51,46a.67.67,0,0,1,.39-.08,3.27,3.27,0,0,1,.5-2.13,1.51,1.51,0,0,1,1.16-.51c.57,0,.84.48,1.07.9s.56,1,1.33,1a4.1,4.1,0,0,0,1.2-.27c.61-.2,1.13-.37,1.49-.09a1.27,1.27,0,0,1,.39,1v.07a.76.76,0,0,1,.42.09,1,1,0,0,1,.4,1.1,2.22,2.22,0,0,1-1.33,1.73,3.25,3.25,0,0,1-1.13,2.11l.31.62c.51.18,1.09.38,1.16.42a1.27,1.27,0,0,1,.56.54l.54.21h0l.56.26A22.54,22.54,0,0,1,73,48.79v-.2a12.09,12.09,0,0,0-.83-5.35,4,4,0,0,0-3.78-2h0a.23.23,0,0,0-.2.26.82.82,0,0,1,0,.27.79.79,0,0,1-1,.58,2.29,2.29,0,0,0-2,.63c-.63.59-1.6,2.06-1,5.32a10,10,0,0,1-.51,4.53A7.92,7.92,0,0,1,64.64,52.42Z"/><path id="Trazado_14102" data-name="Trazado 14102" class="cls-3" d="M65,46.55c0-.06-.16-.15-.26-.1a.46.46,0,0,0-.12.5c.19.8.68,1.33,1,1.33h0a.28.28,0,0,1,.28.27,2.69,2.69,0,0,0,1.11,2.05,2.57,2.57,0,0,0,1.41.35,2.61,2.61,0,0,0,1.41-.36,2.75,2.75,0,0,0,1.11-2,.28.28,0,0,1,.29-.28h0c.34,0,.83-.53,1-1.33a.41.41,0,0,0-.12-.47c-.09,0-.22.05-.27.1a.29.29,0,0,1-.4,0,.3.3,0,0,1-.08-.27c.07-.33.07-.91-.13-1.06s-.61.06-1,.17a4.61,4.61,0,0,1-1.37.3,2,2,0,0,1-1.83-1.3c-.24-.42-.36-.61-.58-.61a.91.91,0,0,0-.72.31,3.27,3.27,0,0,0-.32,2.21h0a.28.28,0,0,1-.23.33.28.28,0,0,1-.26-.09Z"/><path id="Trazado_14103" data-name="Trazado 14103" class="cls-3" d="M64.51,54.58a.61.61,0,0,1,.26-.42l.3-.14a3,3,0,0,1-.46-.6,1.12,1.12,0,0,1-.12-.35l0,0a8.51,8.51,0,0,0-.63,1.68H64a.74.74,0,0,1,.67.72c0,.52.28,2,.29,2.06v.07a.72.72,0,0,1-.45.61,9.68,9.68,0,0,0,2.42.68l-2.15-3.47A1.22,1.22,0,0,1,64.51,54.58Z"/><path id="Trazado_14104" data-name="Trazado 14104" class="cls-3" d="M72.53,57.42a1.12,1.12,0,0,1,.83-1.36h0a8.18,8.18,0,0,0-.71-2.88l-.11,0a1.45,1.45,0,0,1-.11.29A3.23,3.23,0,0,1,72,54a1.11,1.11,0,0,1,.29.14.62.62,0,0,1,.27.42,1.21,1.21,0,0,1-.22.86l-2.16,3.44a9.92,9.92,0,0,0,2.68-.93A1.05,1.05,0,0,1,72.53,57.42Z"/><path id="Trazado_14105" data-name="Trazado 14105" class="cls-3" d="M63.9,55.35l-1-.07c-.12,0-.16.17-.17.19-.07.31-.28,1-.43,1.51a9.78,9.78,0,0,0,1.56,1,.28.28,0,0,1,.3-.24.14.14,0,0,0,.16-.12c0-.25-.24-1.56-.29-2C64.05,55.54,64,55.36,63.9,55.35Z"/><path id="Trazado_14106" data-name="Trazado 14106" class="cls-3" d="M63.26,53.69a3.61,3.61,0,0,0-1.71,2.1c0,.13-.07.28-.11.43.13.13.27.25.41.37.13-.46.29-1,.35-1.26a.74.74,0,0,1,.76-.62l.27,0a9.44,9.44,0,0,1,.42-1.27,2.59,2.59,0,0,0-.33.19Z"/><path id="Trazado_14107" data-name="Trazado 14107" class="cls-3" d="M65.69,54.4a2.59,2.59,0,0,0-.6.24s0,0,0,0a.65.65,0,0,0,.14.44h0l1.94,3.13-.63-4v0l0-.13a.38.38,0,0,1,0-.1l-.27-1.87-.8.27a.69.69,0,0,0-.35.38.42.42,0,0,0,0,.31,3.13,3.13,0,0,0,.69.76.33.33,0,0,1,.11.15A.29.29,0,0,1,65.69,54.4Z"/><path id="Trazado_14108" data-name="Trazado 14108" class="cls-3" d="M69.91,53.89l.31-2.08-.3-.59a3.41,3.41,0,0,1-1.44.3,3.36,3.36,0,0,1-1.43-.29l-.3.64.29,2h0a2.45,2.45,0,0,0,2.87,0Z"/></g><g id="Grupo_14485" data-name="Grupo 14485"><path id="Trazado_14109" data-name="Trazado 14109" class="cls-3" d="M40.28,9.26l.26-.71a.87.87,0,0,1,.22-.32,1.42,1.42,0,0,0,.45-1,.29.29,0,0,0,0-.09.66.66,0,0,1-.61-.3,1.91,1.91,0,0,1-.28-.55,6.2,6.2,0,0,1-4.19-1.13c0,.16-.09.32-.14.48A3.67,3.67,0,0,1,35.14,7a.59.59,0,0,1-.6.17s0,0,0,0a1.42,1.42,0,0,0,.45,1,.71.71,0,0,1,.22.32l.26.71a4.79,4.79,0,0,0,.88,1.07l.4.34a1.37,1.37,0,0,0,.68.22h.07a3.62,3.62,0,0,0,.76,0h.07a1.35,1.35,0,0,0,.69-.23,3.09,3.09,0,0,0,.39-.33A4.53,4.53,0,0,0,40.28,9.26Z"/><path id="Trazado_14110" data-name="Trazado 14110" class="cls-3" d="M31.07,14.14a1.72,1.72,0,0,1,1-1l3.54-1.37a7.91,7.91,0,0,0,.13-1.09,5,5,0,0,1-.88-1.12v0l-.27-.73a.1.1,0,0,0,0-.05,2.13,2.13,0,0,1-.67-1.66A1,1,0,0,1,34,6.68c0-.83,0-1.16,0-1.28v0c0-2,.88-3.22,2.36-3.22a.47.47,0,0,0,.3-.1,2,2,0,0,1,1.2-.28h0a3.8,3.8,0,0,1,3.33,1.38,3.74,3.74,0,0,1,.62,2.22v0c0,.15,0,.62,0,1.26a.87.87,0,0,1,.16.4,2.07,2.07,0,0,1-.67,1.66s0,0,0,0l-.27.73,0,0A5.08,5.08,0,0,1,40,10.69a8,8,0,0,0,.1,1.09l3.59,1.37a1.68,1.68,0,0,1,1,1,14.57,14.57,0,0,1,.46,2.35,9.83,9.83,0,1,0-14.54-.1A14.46,14.46,0,0,1,31.07,14.14Z"/><path id="Trazado_14111" data-name="Trazado 14111" class="cls-3" d="M38.42,11.57h-.06a3.15,3.15,0,0,1-1,0h-.07a2,2,0,0,1-1-.32c0,.2,0,.4-.08.58l1.16.59a.93.93,0,0,0,.86,0l1.14-.58a5.16,5.16,0,0,1-.06-.58A2.06,2.06,0,0,1,38.42,11.57Z"/><ellipse id="Elipse_872" data-name="Elipse 872" class="cls-3" cx="35.53" cy="15.41" rx="0.3" ry="0.29"/><path id="Trazado_14112" data-name="Trazado 14112" class="cls-3" d="M44.06,14.38a1.07,1.07,0,0,0-.59-.59L41.25,13a3.68,3.68,0,0,1,0,.74,1.53,1.53,0,0,1,.92,1.69h0l-.33,2.17v0a.91.91,0,0,1-.4.56,1.23,1.23,0,0,1-.65.19l-.25,0a.35.35,0,0,1-.26-.41h0l.1-.39a.36.36,0,0,1,.42-.26.36.36,0,0,1,.27.33.21.21,0,0,0,.08-.11l.33-2.16a.87.87,0,0,0-.66-1h0a1,1,0,0,0-1.16.64L38.84,17a.17.17,0,0,0,0,.12.35.35,0,0,1,.65.23l-.1.4A.35.35,0,0,1,39,18a1.18,1.18,0,0,1-.74-.53.85.85,0,0,1-.08-.68v0l.75-2.08h0a1.63,1.63,0,0,1,1.61-1.12,3.69,3.69,0,0,0,0-.88l-.67-.25L38.6,13a1.61,1.61,0,0,1-1.48,0l-1.25-.63-.62.24a3.47,3.47,0,0,0,.11,1.78,1,1,0,1,1-.61.36,4.2,4.2,0,0,1-.24-1.86l-2.22.86a1,1,0,0,0-.58.58A17,17,0,0,0,31.23,17a9.8,9.8,0,0,0,13.31.08A17.93,17.93,0,0,0,44.06,14.38Z"/><path id="Trazado_14113" data-name="Trazado 14113" class="cls-3" d="M35.31,5.37a3.9,3.9,0,0,0,.18-.67.49.49,0,0,1,.39-.38.56.56,0,0,1,.45.1A5.52,5.52,0,0,0,40.4,5.54a.47.47,0,0,1,.52.36,1.4,1.4,0,0,0,.13.36c0-.37,0-.73,0-.9a3,3,0,0,0-.49-1.8,3.18,3.18,0,0,0-2.77-1.09h0a1.4,1.4,0,0,0-.85.18,1,1,0,0,1-.65.2A1.42,1.42,0,0,0,35,3.74a4,4,0,0,0-.31,1.63c0,.18,0,.54,0,1.09A2.94,2.94,0,0,0,35.31,5.37Z"/></g><g id="Grupo_14486" data-name="Grupo 14486"><path id="Trazado_14114" data-name="Trazado 14114" class="cls-4" d="M6,26.28a1.74,1.74,0,0,1,1-1H7l3.74-1.48a1.66,1.66,0,0,0,.23-.63c-1-1.09-1.38-2.47-1.59-4.54a.33.33,0,0,1,.26-.38h0c1.91-.28,3.23-.58,4.13-2a.46.46,0,0,1,.83.1,4.15,4.15,0,0,0,1.12,2.09.34.34,0,0,1,.19.31v.05a11.51,11.51,0,0,1-.56,2.79,4.75,4.75,0,0,1-1,1.63,1.66,1.66,0,0,0,.23.63l3.74,1.48h0a1.77,1.77,0,0,1,.95,1,19.85,19.85,0,0,1,.48,2.86,9.84,9.84,0,1,0-14.19-.4A17.14,17.14,0,0,1,6,26.28Zm4.15-11.43a4,4,0,0,1,5,0c2.62,2.27,2,5.58,1.67,7.35a5,5,0,0,0-.13.93c0,.64-.53,1-.8,1.12l-.35-.6c.34-.19.46-.32.45-.47a5.11,5.11,0,0,1,.15-1.1c.3-1.64.88-4.7-1.45-6.7h0a3.33,3.33,0,0,0-4,0l0,0c-2.32,2-1.75,5.05-1.44,6.69a4.54,4.54,0,0,1,.14,1.1c0,.14.12.27.47.46l-.34.61c-.28-.16-.86-.48-.82-1.12a4.74,4.74,0,0,0-.13-.92c-.33-1.78-1-5.09,1.68-7.36Z"/><path id="Trazado_14115" data-name="Trazado 14115" class="cls-4" d="M13.11,23.83h-.06l-.2,0h-.21a2,2,0,0,1-.42,0h-.07a1.58,1.58,0,0,1-.63-.22,1.81,1.81,0,0,1-.31.62l.07.63a.53.53,0,0,0,.08.17l0,0a7.85,7.85,0,0,0,1,1.32.27.27,0,0,0,.21.09.29.29,0,0,0,.21-.09,7.85,7.85,0,0,0,1-1.32l0,0a.89.89,0,0,0,.08-.17l.07-.65a1.69,1.69,0,0,1-.3-.6A1.57,1.57,0,0,1,13.11,23.83Z"/><path id="Trazado_14116" data-name="Trazado 14116" class="cls-4" d="M14.09,16.91c-1,1.3-2.32,1.65-4,1.92.25,2.16.67,3.21,1.6,4a1.15,1.15,0,0,0,.6.28h.07a1.55,1.55,0,0,0,.31,0h.14l.17,0H13a1.15,1.15,0,0,0,.6-.28c.94-.84,1.35-1.87,1.6-4A4.66,4.66,0,0,1,14.09,16.91Z"/><path id="Trazado_14117" data-name="Trazado 14117" class="cls-4" d="M10.11,27.94a.29.29,0,0,0-.33-.23.29.29,0,0,0-.24.33.3.3,0,0,0,.29.23A.31.31,0,0,0,10.11,27.94Z"/><path id="Trazado_14118" data-name="Trazado 14118" class="cls-4" d="M18.61,26.5a1,1,0,0,0-.56-.62l-1.73-.69a5.34,5.34,0,0,1,0,.8,1.48,1.48,0,0,1,.78,1.57h0l-.28,2v0a.84.84,0,0,1-.38.55,1,1,0,0,1-.56.17.91.91,0,0,1-.23,0,.35.35,0,0,1-.26-.41l.09-.37a.36.36,0,0,1,.42-.26.39.39,0,0,1,.24.21l.27-2a.79.79,0,0,0-.57-.93.78.78,0,0,0-.92.58L14.28,29a.35.35,0,0,1,.49,0,.38.38,0,0,1,.08.31l-.09.36a.33.33,0,0,1-.41.26h0a1.12,1.12,0,0,1-.64-.47.88.88,0,0,1-.09-.67v0l.64-1.92h0a1.48,1.48,0,0,1,1.38-1.06,4.12,4.12,0,0,0,0-.93l-.89-.36,0,.39a1.12,1.12,0,0,1-.17.44l0,0a7.94,7.94,0,0,1-1.14,1.44,1,1,0,0,1-1.38.05l0-.05a7.53,7.53,0,0,1-1.14-1.44l0,0a1.19,1.19,0,0,1-.17-.44l0-.38-1,.38a3.84,3.84,0,0,0,.1,2h.14a1,1,0,1,1-1,1.08s0,0,0-.06a1.05,1.05,0,0,1,.23-.65,4.77,4.77,0,0,1-.24-2.05l-1.62.64a1,1,0,0,0-.56.62,19.85,19.85,0,0,0-.48,2.86,9.81,9.81,0,0,0,12.94.35A21.52,21.52,0,0,0,18.61,26.5Z"/></g><g id="Grupo_14487" data-name="Grupo 14487"><path id="Trazado_14119" data-name="Trazado 14119" class="cls-4" d="M56.45,26.28a1.79,1.79,0,0,1,1-1.06h0l3-1.21c-.53-.05-1.41-.15-1.38-.89a10.7,10.7,0,0,0-.22-2c-.28-1.71-.6-3.64.94-5.51l-.2-.53a1.11,1.11,0,0,1,.24-1.14,5,5,0,0,1,6.61,0A1.09,1.09,0,0,1,66.69,15l-.19.52c1.55,1.87,1.23,3.81,1,5.52a11.57,11.57,0,0,0-.21,2c0,.74-.85.84-1.39.89l3.05,1.21h0a1.78,1.78,0,0,1,1,1.06,13.94,13.94,0,0,1,.48,2.18A9.83,9.83,0,1,0,56,28.13,13.09,13.09,0,0,1,56.45,26.28Z"/><path id="Trazado_14120" data-name="Trazado 14120" class="cls-4" d="M65.75,18.75A4.12,4.12,0,0,1,64.69,17l-.16,0a5.8,5.8,0,0,1-4,1.8c.25,2.18.67,3.23,1.61,4.07a1.15,1.15,0,0,0,.6.28h.07a1.55,1.55,0,0,0,.31,0h.14l.17,0h.06a1.15,1.15,0,0,0,.6-.28,3.87,3.87,0,0,0,1.1-1.63A10.17,10.17,0,0,0,65.75,18.75Z"/><path id="Trazado_14121" data-name="Trazado 14121" class="cls-4" d="M63.59,23.83l-.2,0h-.22a3,3,0,0,1-.43,0h-.07A1.82,1.82,0,0,1,62,23.6a1.57,1.57,0,0,1-.2.46l1.08,1.21a.47.47,0,0,0,.47,0L64.47,24a1.57,1.57,0,0,1-.18-.42,1.82,1.82,0,0,1-.63.22Z"/><path id="Trazado_14122" data-name="Trazado 14122" class="cls-4" d="M66.74,21c.26-1.58.51-3.09-.53-4.6l-.2.54a.36.36,0,0,1-.4.23h-.08a2.45,2.45,0,0,0,.76,1.14.35.35,0,0,1,.2.36,11.45,11.45,0,0,1-.57,2.84,4.62,4.62,0,0,1-1,1.65,1.56,1.56,0,0,0,.23.62l.64.26-.06-.68a1.86,1.86,0,0,0,.81-.16A11.46,11.46,0,0,1,66.74,21Z"/><path id="Trazado_14123" data-name="Trazado 14123" class="cls-4" d="M61.2,23.72a1.6,1.6,0,0,0,.23-.63c-1.06-1.1-1.39-2.5-1.6-4.59v-.05a.37.37,0,0,1,.31-.36,6.27,6.27,0,0,0,3.47-1.21,11.72,11.72,0,0,0-2.89.24h-.06a.36.36,0,0,1-.34-.23l-.2-.52c-1,1.5-.79,3-.53,4.58a11.43,11.43,0,0,1,.22,2.18,1.86,1.86,0,0,0,.81.16l-.06.68Z"/><path id="Trazado_14124" data-name="Trazado 14124" class="cls-4" d="M63.07,16.14a14.39,14.39,0,0,1,2.36.22L66,14.78a.36.36,0,0,0-.08-.38,4.26,4.26,0,0,0-5.57,0,.35.35,0,0,0-.07.38l.58,1.57A13.42,13.42,0,0,1,63.07,16.14Zm-.73-1.63h.46V14h.72v.5H64v.73h-.45v.5H62.8v-.5h-.46Z"/><path id="Trazado_14125" data-name="Trazado 14125" class="cls-4" d="M69.19,26.51a1,1,0,0,0-.56-.62L65,24.46l-1.13,1.27,0,0a1.18,1.18,0,0,1-.76.27,1.23,1.23,0,0,1-.62-.17l-.08-.07-1.18-1.32L57.7,25.89a1,1,0,0,0-.56.62,13.5,13.5,0,0,0-.49,2.27,9.81,9.81,0,0,0,13.07.29A13.08,13.08,0,0,0,69.19,26.51Z"/></g></g><g id="Grupo_14489" data-name="Grupo 14489"><path id="Trazado_14126" data-name="Trazado 14126" class="cls-5" d="M45.06,52.92a1.6,1.6,0,0,0,2.25.08.71.71,0,0,0,.12-.13c.45-.62.07-2.1-1.29-3.48C44.88,50.86,44.59,52.31,45.06,52.92Z"/><path id="Trazado_14127" data-name="Trazado 14127" class="cls-4" d="M49.24,46.24l-5-1.92C43.45,46.1,41.08,47,39.14,47S34.83,46.1,34,44.32l-4.95,1.92A4.14,4.14,0,0,0,26.65,50v3.73a18.33,18.33,0,0,0,25-.41V50A4.18,4.18,0,0,0,49.24,46.24Zm-1.31,7a2.19,2.19,0,0,1-1.71.81h-.06a2.14,2.14,0,0,1-1.58-.74c-.77-1-.22-2.9,1.32-4.55l.21-.23.22.21C48,50.26,48.67,52.2,47.93,53.22Z"/></g></g></svg>