<svg xmlns="http://www.w3.org/2000/svg" width="74" height="55.5" viewBox="0 0 74 55.5">
  <path id="Icon_awesome-image" data-name="Icon awesome-image" d="M67.063,60H6.938A6.937,6.937,0,0,1,0,53.063V11.438A6.937,6.937,0,0,1,6.938,4.5H67.063A6.937,6.937,0,0,1,74,11.438V53.063A6.937,6.937,0,0,1,67.063,60ZM16.188,12.594a8.094,8.094,0,1,0,8.094,8.094A8.094,8.094,0,0,0,16.188,12.594ZM9.25,50.75h55.5V34.563L52.1,21.914a1.735,1.735,0,0,0-2.453,0L30.063,41.5l-8.024-8.024a1.735,1.735,0,0,0-2.453,0L9.25,43.813Z" transform="translate(0 -4.5)" fill="#fafafa"/>
</svg>
