<svg xmlns="http://www.w3.org/2000/svg" width="57.384" height="30.582" viewBox="0 0 57.384 30.582">
  <g id="enfer_icon" transform="translate(-90.215 -140.791)">
    <path id="Trazado_57488" data-name="Trazado 57488" d="M99.8,171.373a1.011,1.011,0,0,1-.784-.669Q94.7,161.141,90.392,151.6a3.8,3.8,0,0,1-.177-.513v-.034a.984.984,0,0,1,.4-.774,47.064,47.064,0,0,1,56.517-.17,1.013,1.013,0,0,1,.468.821v.032a5.238,5.238,0,0,1-.368.948c-.042.09-.083.18-.124.271q-1.7,3.775-3.407,7.551-2.361,5.23-4.719,10.462c-.028.059-.056.123-.084.187a1.529,1.529,0,0,1-.587.821.8.8,0,0,1-.4.1,1.145,1.145,0,0,1-.44-.093c-.366-.142-.721-.293-1.077-.443-.547-.231-1.112-.471-1.688-.668a45.472,45.472,0,0,0-33.6.862c-.1.041-.219.091-.334.141a2.389,2.389,0,0,1-.934.275Zm19.188-28.807a45.08,45.08,0,0,0-26.6,8.6l-.176.127.089.2q3.967,8.8,7.942,17.6l.106.235.238-.1a46.82,46.82,0,0,1,14.968-3.587c1.146-.086,2.309-.129,3.461-.129a47.557,47.557,0,0,1,18.2,3.646l.238.1.106-.235q3.984-8.82,7.961-17.643l.089-.2-.177-.126a45.588,45.588,0,0,0-10.407-5.583A45.022,45.022,0,0,0,118.985,142.566Z" transform="translate(0 0)" fill="#001965"/>
    <path id="Trazado_57489" data-name="Trazado 57489" d="M280.573,183.575a.9.9,0,0,1-.865-.608,1.466,1.466,0,0,1,.212-1.054l.083-.182a1.409,1.409,0,0,1,.586-.789.785.785,0,0,1,.378-.1.887.887,0,0,1,.85.61,1.451,1.451,0,0,1-.209,1.048c-.036.076-.068.148-.1.22a1.421,1.421,0,0,1-.525.739A.794.794,0,0,1,280.573,183.575Z" transform="translate(-139.254 -29.442)" fill="#001965"/>
    <path id="Trazado_57490" data-name="Trazado 57490" d="M260.1,209.016a.834.834,0,0,1-.7-.338,1.164,1.164,0,0,1,.026-1.221c.723-1.592,1.435-3.171,2.146-4.749l1.318-2.92a1.08,1.08,0,0,1,.608-.623.769.769,0,0,1,.258-.045.9.9,0,0,1,.868.691,1.3,1.3,0,0,1-.159.815q-.762,1.669-1.515,3.35c-.677,1.506-1.378,3.063-2.082,4.587A.826.826,0,0,1,260.1,209.016Z" transform="translate(-124.235 -42.874)" fill="#001965"/>
    <path id="Trazado_57491" data-name="Trazado 57491" d="M185.379,171.089v1.465l-1.253,0H182.34c-.5,0-1.01,0-1.534.005h-.024a.624.624,0,0,0-.437.2.654.654,0,0,0-.185.461c-.008.819-.005,1.637-.005,2.456q0,.787,0,1.577v.527l-2.17,0-2.17,0v-2.054c0-.808,0-1.614,0-2.422a.741.741,0,0,0-.241-.6,1.023,1.023,0,0,0-.641-.151q-.8,0-1.6,0h-2.742v-.53q0-1.641,0-3.28v-.525l.527-.005.67,0,1.847.005c.527,0,1.055,0,1.582-.013a.586.586,0,0,0,.408-.193.652.652,0,0,0,.183-.479c.008-.771.008-1.54.005-2.311,0-.567,0-1.134,0-1.7l.008-.525,2.414,0,1.913,0,0,.527q0,.851,0,1.7c0,.771,0,1.542.005,2.337a.646.646,0,0,0,.185.456.588.588,0,0,0,.419.191c.525.011,1.055.013,1.582.013l1.871,0,1.161,0v.527Q185.381,169.916,185.379,171.089Z" transform="translate(-59.078 -16.318)" fill="#001965"/>
  </g>
</svg>
