<svg xmlns="http://www.w3.org/2000/svg" xmlns:xlink="http://www.w3.org/1999/xlink" width="464" height="149" viewBox="0 0 464 149">
  <defs>
    <clipPath id="clip-path">
      <rect id="Rectángulo_2465" data-name="Rectángulo 2465" width="464" height="149" transform="translate(84 346)" fill="#fff"/>
    </clipPath>
  </defs>
  <g id="Enmascarar_grupo_1" data-name="Enmascarar grupo 1" transform="translate(-84 -346)" clip-path="url(#clip-path)">
    <g id="Grupo_15008" data-name="Grupo 15008" transform="translate(106.47 223.99)">
      <g id="Background_Simple" data-name="Background Simple" transform="translate(10.53 38.522)">
        <g id="Grupo_14971" data-name="Grupo 14971">
          <path id="Trazado_57295" data-name="Trazado 57295" d="M234.247,52.643S203.183,29.69,163.469,42.311s-55.862,46.8-78.364,70.82C73.321,125.709,55.7,130.953,41.618,140.863c-45.023,31.688-37.2,97.943-1.7,121.452,30.736,20.352,68.732,20.891,117.868,2.6s84.33-29.54,114.215-76.865S272.566,83.973,234.247,52.643Z" transform="translate(-10.53 -38.522)" fill="#0099d7"/>
          <path id="Trazado_57296" data-name="Trazado 57296" d="M234.247,52.643S203.183,29.69,163.469,42.311s-55.862,46.8-78.364,70.82C73.321,125.709,55.7,130.953,41.618,140.863c-45.023,31.688-37.2,97.943-1.7,121.452,30.736,20.352,68.732,20.891,117.868,2.6s84.33-29.54,114.215-76.865S272.566,83.973,234.247,52.643Z" transform="translate(-10.53 -38.522)" fill="#fff" opacity="0.8"/>
        </g>
      </g>
      <g id="Docs" transform="translate(15.831 135.315)">
        <g id="Grupo_14973" data-name="Grupo 14973" transform="translate(221.8 4.086)" opacity="0.3">
          <path id="Trazado_57297" data-name="Trazado 57297" d="M443.521,248.641H416.268v-34h23.184l4.069,3.392Z" transform="translate(-410.968 -214.642)" fill="#fff" stroke="#000" stroke-linejoin="round" stroke-width="1"/>
          <path id="Trazado_57298" data-name="Trazado 57298" d="M456.744,214.642v3.45h4.069Z" transform="translate(-428.26 -214.642)" fill="#fff" stroke="#000" stroke-linejoin="round" stroke-width="1"/>
          <rect id="Rectángulo_2468" data-name="Rectángulo 2468" width="20.346" height="7.431" transform="translate(0 2.861)"/>
          <line id="Línea_9317" data-name="Línea 9317" x2="21.938" transform="translate(8.315 12.415)" fill="none" stroke="#000" stroke-width="1"/>
          <line id="Línea_9318" data-name="Línea 9318" x2="21.938" transform="translate(8.315 16.484)" fill="none" stroke="#000" stroke-width="1"/>
          <line id="Línea_9319" data-name="Línea 9319" x2="21.938" transform="translate(8.315 20.553)" fill="none" stroke="#000" stroke-width="1"/>
          <line id="Línea_9320" data-name="Línea 9320" x2="21.938" transform="translate(8.315 24.622)" fill="none" stroke="#000" stroke-width="1"/>
          <line id="Línea_9321" data-name="Línea 9321" x2="21.938" transform="translate(8.315 28.691)" fill="none" stroke="#000" stroke-width="1"/>
          <g id="Grupo_14972" data-name="Grupo 14972" transform="translate(5.223 3.87)">
            <path id="Trazado_57299" data-name="Trazado 57299" d="M417.121,226.759v-4.817h-.988V221.4H418.7v.544h-.988v4.817Z" transform="translate(-416.133 -221.398)" fill="#fff"/>
            <path id="Trazado_57300" data-name="Trazado 57300" d="M422.554,224.446l-.9,2.313h-.566l1.08-2.765-1.011-2.6h.62l.828,2.144.835-2.144H424l-1,2.6,1.072,2.765h-.628Z" transform="translate(-418.251 -221.398)" fill="#fff"/>
            <path id="Trazado_57301" data-name="Trazado 57301" d="M427.746,226.759v-4.817h-.988V221.4h2.565v.544h-.988v4.817Z" transform="translate(-420.672 -221.398)" fill="#fff"/>
          </g>
        </g>
        <g id="Grupo_14975" data-name="Grupo 14975" transform="translate(132.712 62.161)" opacity="0.3">
          <path id="Trazado_57302" data-name="Trazado 57302" d="M287.985,350.031H260.732v-34h23.184l4.069,3.392Z" transform="translate(-255.432 -316.032)" fill="#fff" stroke="#000" stroke-linejoin="round" stroke-width="1"/>
          <path id="Trazado_57303" data-name="Trazado 57303" d="M301.208,316.032v3.45h4.069Z" transform="translate(-272.724 -316.032)" fill="#fff" stroke="#000" stroke-linejoin="round" stroke-width="1"/>
          <rect id="Rectángulo_2469" data-name="Rectángulo 2469" width="20.346" height="7.431" transform="translate(0 2.861)"/>
          <line id="Línea_9322" data-name="Línea 9322" x2="21.938" transform="translate(8.315 12.415)" fill="none" stroke="#000" stroke-width="1"/>
          <line id="Línea_9323" data-name="Línea 9323" x2="21.938" transform="translate(8.315 16.484)" fill="none" stroke="#000" stroke-width="1"/>
          <line id="Línea_9324" data-name="Línea 9324" x2="21.938" transform="translate(8.315 20.553)" fill="none" stroke="#000" stroke-width="1"/>
          <line id="Línea_9325" data-name="Línea 9325" x2="21.938" transform="translate(8.315 24.622)" fill="none" stroke="#000" stroke-width="1"/>
          <line id="Línea_9326" data-name="Línea 9326" x2="21.938" transform="translate(8.315 28.691)" fill="none" stroke="#000" stroke-width="1"/>
          <g id="Grupo_14974" data-name="Grupo 14974" transform="translate(5.222 3.87)">
            <path id="Trazado_57304" data-name="Trazado 57304" d="M261.585,328.149v-4.817H260.6v-.544h2.565v.544h-.988v4.817Z" transform="translate(-260.597 -322.788)" fill="#fff"/>
            <path id="Trazado_57305" data-name="Trazado 57305" d="M267.019,325.836l-.9,2.313h-.567l1.08-2.765-1.011-2.6h.62l.827,2.144.835-2.144h.559l-1,2.6,1.072,2.765h-.628Z" transform="translate(-262.716 -322.788)" fill="#fff"/>
            <path id="Trazado_57306" data-name="Trazado 57306" d="M272.211,328.149v-4.817h-.988v-.544h2.566v.544H272.8v4.817Z" transform="translate(-265.137 -322.788)" fill="#fff"/>
          </g>
        </g>
        <g id="Grupo_14977" data-name="Grupo 14977" transform="translate(0)" opacity="0.3">
          <path id="Trazado_57307" data-name="Trazado 57307" d="M68.948,253.3h-36.7V207.508H63.468l5.48,4.568Z" transform="translate(-25.108 -207.508)" fill="#fff" stroke="#000" stroke-linejoin="round" stroke-width="1"/>
          <path id="Trazado_57308" data-name="Trazado 57308" d="M86.756,207.508v4.646h5.48Z" transform="translate(-48.395 -207.508)" fill="#fff" stroke="#000" stroke-linejoin="round" stroke-width="1"/>
          <rect id="Rectángulo_2470" data-name="Rectángulo 2470" width="27.4" height="10.007" transform="translate(0 3.853)"/>
          <line id="Línea_9327" data-name="Línea 9327" x2="29.545" transform="translate(11.198 16.719)" fill="none" stroke="#000" stroke-width="1"/>
          <line id="Línea_9328" data-name="Línea 9328" x2="29.545" transform="translate(11.198 22.199)" fill="none" stroke="#000" stroke-width="1"/>
          <line id="Línea_9329" data-name="Línea 9329" x2="29.545" transform="translate(11.198 27.679)" fill="none" stroke="#000" stroke-width="1"/>
          <line id="Línea_9330" data-name="Línea 9330" x2="29.545" transform="translate(11.198 33.16)" fill="none" stroke="#000" stroke-width="1"/>
          <line id="Línea_9331" data-name="Línea 9331" x2="29.545" transform="translate(11.198 38.64)" fill="none" stroke="#000" stroke-width="1"/>
          <g id="Grupo_14976" data-name="Grupo 14976" transform="translate(7.322 5.211)">
            <path id="Trazado_57309" data-name="Trazado 57309" d="M34.145,216.606c1.135,0,1.619.67,1.619,1.764v.866c0,1.145-.537,1.743-1.681,1.743h-.711v2.847h-.8v-7.219Zm-.062,3.651c.6,0,.887-.278.887-.97v-.959c0-.66-.237-.99-.825-.99h-.773v2.918Z" transform="translate(-32.567 -216.606)" fill="#fff"/>
            <path id="Trazado_57310" data-name="Trazado 57310" d="M40.99,216.606c1.124,0,1.64.681,1.64,1.795v3.641c0,1.1-.516,1.784-1.64,1.784H39.3v-7.219Zm-.01,6.487c.577,0,.856-.361.856-1.021v-3.713c0-.66-.278-1.021-.867-1.021H40.1v5.755Z" transform="translate(-35.443 -216.606)" fill="#fff"/>
            <path id="Trazado_57311" data-name="Trazado 57311" d="M48.891,219.968v.732H47.231v3.125h-.8v-7.219h2.867v.733H47.231v2.63Z" transform="translate(-38.488 -216.606)" fill="#fff"/>
          </g>
        </g>
        <g id="Grupo_14979" data-name="Grupo 14979" transform="translate(7.158 85.861)" opacity="0.3">
          <path id="Trazado_57312" data-name="Trazado 57312" d="M56.509,379.973H38.421V357.408H53.809l2.7,2.251Z" transform="translate(-34.904 -357.408)" fill="#fff" stroke="#000" stroke-linejoin="round" stroke-width="1"/>
          <path id="Trazado_57313" data-name="Trazado 57313" d="M65.285,357.408v2.29h2.7Z" transform="translate(-46.381 -357.408)" fill="#fff" stroke="#000" stroke-linejoin="round" stroke-width="1"/>
          <rect id="Rectángulo_2471" data-name="Rectángulo 2471" width="13.503" height="4.932" transform="translate(0 1.899)"/>
          <line id="Línea_9332" data-name="Línea 9332" x2="14.56" transform="translate(5.519 8.24)" fill="none" stroke="#000" stroke-width="1"/>
          <line id="Línea_9333" data-name="Línea 9333" x2="14.56" transform="translate(5.519 10.94)" fill="none" stroke="#000" stroke-width="1"/>
          <line id="Línea_9334" data-name="Línea 9334" x2="14.56" transform="translate(5.519 13.641)" fill="none" stroke="#000" stroke-width="1"/>
          <line id="Línea_9335" data-name="Línea 9335" x2="14.56" transform="translate(5.519 16.342)" fill="none" stroke="#000" stroke-width="1"/>
          <line id="Línea_9336" data-name="Línea 9336" x2="14.56" transform="translate(5.519 19.042)" fill="none" stroke="#000" stroke-width="1"/>
          <g id="Grupo_14978" data-name="Grupo 14978" transform="translate(3.608 2.568)">
            <path id="Trazado_57314" data-name="Trazado 57314" d="M39.358,361.892c.559,0,.8.33.8.869v.427c0,.564-.265.859-.828.859h-.351v1.4h-.4v-3.558Zm-.03,1.8c.294,0,.436-.137.436-.478v-.473c0-.325-.117-.488-.406-.488h-.381v1.438Z" transform="translate(-38.58 -361.892)" fill="#fff"/>
            <path id="Trazado_57315" data-name="Trazado 57315" d="M42.731,361.892c.554,0,.808.336.808.884v1.794c0,.544-.254.879-.808.879H41.9v-3.558Zm-.005,3.2c.285,0,.422-.178.422-.5v-1.83c0-.325-.137-.5-.427-.5h-.427v2.836Z" transform="translate(-39.998 -361.892)" fill="#fff"/>
            <path id="Trazado_57316" data-name="Trazado 57316" d="M46.625,363.548v.361h-.818v1.54h-.4v-3.558h1.413v.361H45.807v1.3Z" transform="translate(-41.498 -361.892)" fill="#fff"/>
          </g>
        </g>
      </g>
      <g id="Screen" transform="translate(50.908 39.001)">
        <g id="Grupo_14993" data-name="Grupo 14993" transform="translate(0 0)">
          <rect id="Rectángulo_2472" data-name="Rectángulo 2472" width="191.572" height="149.734" transform="translate(0 5.858)" fill="#263238" stroke="#263238" stroke-width="1"/>
          <g id="Grupo_14992" data-name="Grupo 14992" transform="translate(6.211)">
            <g id="Grupo_14990" data-name="Grupo 14990">
              <rect id="Rectángulo_2473" data-name="Rectángulo 2473" width="192.15" height="150.087" fill="#0099d7"/>
              <rect id="Rectángulo_2474" data-name="Rectángulo 2474" width="192.15" height="150.087" fill="#fff" stroke="#263238" stroke-linecap="round" stroke-linejoin="round" stroke-width="1"/>
              <g id="Grupo_14980" data-name="Grupo 14980" transform="translate(5.231 21.271)">
                <rect id="Rectángulo_2475" data-name="Rectángulo 2475" width="40.668" height="25.775" fill="#fff" stroke="#263238" stroke-linecap="round" stroke-linejoin="round" stroke-width="1"/>
                <line id="Línea_9337" data-name="Línea 9337" x2="17.184" transform="translate(11.169 11.172)" fill="none" stroke="#263238" stroke-width="1"/>
                <line id="Línea_9338" data-name="Línea 9338" x2="28.353" transform="translate(6.873 15.468)" fill="none" stroke="#263238" stroke-width="1"/>
              </g>
              <g id="Grupo_14983" data-name="Grupo 14983" transform="translate(5.231 51.915)">
                <rect id="Rectángulo_2476" data-name="Rectángulo 2476" width="40.668" height="25.775" fill="#fff" stroke="#263238" stroke-linecap="round" stroke-linejoin="round" stroke-width="1"/>
                <g id="Grupo_14981" data-name="Grupo 14981" transform="translate(4.235 6.116)">
                  <line id="Línea_9339" data-name="Línea 9339" x2="14.263" fill="none" stroke="#263238" stroke-width="1"/>
                  <line id="Línea_9340" data-name="Línea 9340" x2="14.263" transform="translate(0 3.414)" fill="none" stroke="#263238" stroke-width="1"/>
                  <line id="Línea_9341" data-name="Línea 9341" x2="14.263" transform="translate(0 6.827)" fill="none" stroke="#263238" stroke-width="1"/>
                  <line id="Línea_9342" data-name="Línea 9342" x2="14.263" transform="translate(0 10.241)" fill="none" stroke="#263238" stroke-width="1"/>
                  <line id="Línea_9343" data-name="Línea 9343" x2="14.263" transform="translate(0 13.655)" fill="none" stroke="#263238" stroke-width="1"/>
                </g>
                <g id="Grupo_14982" data-name="Grupo 14982" transform="translate(21.889 6.116)">
                  <line id="Línea_9344" data-name="Línea 9344" x2="14.263" fill="none" stroke="#263238" stroke-width="1"/>
                  <line id="Línea_9345" data-name="Línea 9345" x2="14.263" transform="translate(0 3.414)" fill="none" stroke="#263238" stroke-width="1"/>
                  <line id="Línea_9346" data-name="Línea 9346" x2="14.263" transform="translate(0 6.827)" fill="none" stroke="#263238" stroke-width="1"/>
                  <line id="Línea_9347" data-name="Línea 9347" x2="14.263" transform="translate(0 10.241)" fill="none" stroke="#263238" stroke-width="1"/>
                  <line id="Línea_9348" data-name="Línea 9348" x2="14.263" transform="translate(0 13.655)" fill="none" stroke="#263238" stroke-width="1"/>
                </g>
              </g>
              <g id="Grupo_14986" data-name="Grupo 14986" transform="translate(5.231 82.559)">
                <rect id="Rectángulo_2477" data-name="Rectángulo 2477" width="40.668" height="25.775" transform="translate(0 0)" fill="#fff" stroke="#263238" stroke-linecap="round" stroke-linejoin="round" stroke-width="1"/>
                <g id="Grupo_14984" data-name="Grupo 14984" transform="translate(4.235 6.116)">
                  <line id="Línea_9349" data-name="Línea 9349" x2="14.263" fill="none" stroke="#263238" stroke-width="1"/>
                  <line id="Línea_9350" data-name="Línea 9350" x2="14.263" transform="translate(0 3.414)" fill="none" stroke="#263238" stroke-width="1"/>
                  <line id="Línea_9351" data-name="Línea 9351" x2="14.263" transform="translate(0 6.827)" fill="none" stroke="#263238" stroke-width="1"/>
                  <line id="Línea_9352" data-name="Línea 9352" x2="14.263" transform="translate(0 10.241)" fill="none" stroke="#263238" stroke-width="1"/>
                  <line id="Línea_9353" data-name="Línea 9353" x2="14.263" transform="translate(0 13.655)" fill="none" stroke="#263238" stroke-width="1"/>
                </g>
                <g id="Grupo_14985" data-name="Grupo 14985" transform="translate(21.889 6.116)">
                  <line id="Línea_9354" data-name="Línea 9354" x2="14.263" fill="none" stroke="#263238" stroke-width="1"/>
                  <line id="Línea_9355" data-name="Línea 9355" x2="14.263" transform="translate(0 3.414)" fill="none" stroke="#263238" stroke-width="1"/>
                  <line id="Línea_9356" data-name="Línea 9356" x2="14.263" transform="translate(0 6.827)" fill="none" stroke="#263238" stroke-width="1"/>
                  <line id="Línea_9357" data-name="Línea 9357" x2="14.263" transform="translate(0 10.241)" fill="none" stroke="#263238" stroke-width="1"/>
                  <line id="Línea_9358" data-name="Línea 9358" x2="14.263" transform="translate(0 13.655)" fill="none" stroke="#263238" stroke-width="1"/>
                </g>
              </g>
              <g id="Grupo_14989" data-name="Grupo 14989" transform="translate(5.231 113.203)">
                <rect id="Rectángulo_2478" data-name="Rectángulo 2478" width="40.668" height="25.775" transform="translate(0 0)" fill="#fff" stroke="#263238" stroke-linecap="round" stroke-linejoin="round" stroke-width="1"/>
                <g id="Grupo_14987" data-name="Grupo 14987" transform="translate(4.235 6.116)">
                  <line id="Línea_9359" data-name="Línea 9359" x2="14.263" fill="none" stroke="#263238" stroke-width="1"/>
                  <line id="Línea_9360" data-name="Línea 9360" x2="14.263" transform="translate(0 3.414)" fill="none" stroke="#263238" stroke-width="1"/>
                  <line id="Línea_9361" data-name="Línea 9361" x2="14.263" transform="translate(0 6.827)" fill="none" stroke="#263238" stroke-width="1"/>
                  <line id="Línea_9362" data-name="Línea 9362" x2="14.263" transform="translate(0 10.241)" fill="none" stroke="#263238" stroke-width="1"/>
                  <line id="Línea_9363" data-name="Línea 9363" x2="14.263" transform="translate(0 13.655)" fill="none" stroke="#263238" stroke-width="1"/>
                </g>
                <g id="Grupo_14988" data-name="Grupo 14988" transform="translate(21.889 6.116)">
                  <line id="Línea_9364" data-name="Línea 9364" x2="14.263" fill="none" stroke="#263238" stroke-width="1"/>
                  <line id="Línea_9365" data-name="Línea 9365" x2="14.263" transform="translate(0 3.414)" fill="none" stroke="#263238" stroke-width="1"/>
                  <line id="Línea_9366" data-name="Línea 9366" x2="14.263" transform="translate(0 6.827)" fill="none" stroke="#263238" stroke-width="1"/>
                  <line id="Línea_9367" data-name="Línea 9367" x2="14.263" transform="translate(0 10.241)" fill="none" stroke="#263238" stroke-width="1"/>
                  <line id="Línea_9368" data-name="Línea 9368" x2="14.263" transform="translate(0 13.655)" fill="none" stroke="#263238" stroke-width="1"/>
                </g>
              </g>
              <rect id="Rectángulo_2479" data-name="Rectángulo 2479" width="140.523" height="150.087" transform="translate(51.627)" fill="#b8b8b8" stroke="#263238" stroke-linecap="round" stroke-linejoin="round" stroke-width="1"/>
              <rect id="Rectángulo_2480" data-name="Rectángulo 2480" width="127.158" height="86.491" transform="translate(55.636 28.434)" fill="#fff" stroke="#263238" stroke-linecap="round" stroke-linejoin="round" stroke-width="1"/>
              <line id="Línea_9369" data-name="Línea 9369" x2="69.792" transform="translate(85.179 62.764)" fill="none" stroke="#263238" stroke-width="1"/>
              <line id="Línea_9370" data-name="Línea 9370" x2="88.757" transform="translate(75.697 70.35)" fill="none" stroke="#263238" stroke-width="1"/>
            </g>
            <rect id="Rectángulo_2481" data-name="Rectángulo 2481" width="4.965" height="150.087" transform="translate(187.185)" fill="#dbdbdb" stroke="#263238" stroke-width="1"/>
            <rect id="Rectángulo_2482" data-name="Rectángulo 2482" width="4.965" height="40.556" transform="translate(187.185 46.499)" fill="#878787"/>
            <rect id="Rectángulo_2483" data-name="Rectángulo 2483" width="192.15" height="9.747" fill="#0099d7" stroke="#263238" stroke-linecap="round" stroke-linejoin="round" stroke-width="1"/>
            <rect id="Rectángulo_2484" data-name="Rectángulo 2484" width="123.537" height="5.5" transform="translate(12.64 1.662)" fill="#fff"/>
            <g id="Grupo_14991" data-name="Grupo 14991" transform="translate(173.25 13.198)">
              <line id="Línea_9371" data-name="Línea 9371" x1="9.542" fill="none" stroke="#263238" stroke-width="1"/>
              <line id="Línea_9372" data-name="Línea 9372" x1="9.542" transform="translate(0 2.936)" fill="none" stroke="#263238" stroke-width="1"/>
              <line id="Línea_9373" data-name="Línea 9373" x1="9.542" transform="translate(0 5.872)" fill="none" stroke="#263238" stroke-width="1"/>
            </g>
          </g>
        </g>
      </g>
      <g id="Plant" transform="translate(235.841 224.735)">
        <g id="Grupo_15000" data-name="Grupo 15000">
          <g id="Grupo_14998" data-name="Grupo 14998">
            <line id="Línea_9374" data-name="Línea 9374" y1="6.634" x2="2.322" transform="translate(15.529 19.035)" fill="none" stroke="#263238" stroke-linecap="round" stroke-linejoin="round" stroke-width="1"/>
            <line id="Línea_9375" data-name="Línea 9375" y2="24.711" transform="translate(15.695 7.758)" fill="none" stroke="#263238" stroke-linecap="round" stroke-linejoin="round" stroke-width="1"/>
            <g id="Grupo_14994" data-name="Grupo 14994" transform="translate(0 17.381)">
              <path id="Trazado_57317" data-name="Trazado 57317" d="M415.783,397.168s-3.442-3.756-6.885-3.13-5.007,4.694-5.007,7.2,3.443,10.641,3.443,10.641a54.314,54.314,0,0,1,8.136-6.885C421.1,400.923,421.416,396.855,415.783,397.168Z" transform="translate(-403.89 -393.968)" fill="#0099d7" stroke="#263238" stroke-linecap="round" stroke-linejoin="round" stroke-width="1"/>
              <path id="Trazado_57318" data-name="Trazado 57318" d="M419.517,399.555a17.2,17.2,0,0,0-6.885,7.2" transform="translate(-407.625 -396.355)" fill="none" stroke="#263238" stroke-linecap="round" stroke-linejoin="round" stroke-width="1"/>
            </g>
            <g id="Grupo_14995" data-name="Grupo 14995" transform="translate(14.143 13.549)">
              <path id="Trazado_57319" data-name="Trazado 57319" d="M431.94,389.9s2.844-3.087,5.679-2.564,4.115,3.878,4.11,5.941-2.859,8.759-2.859,8.759a44.732,44.732,0,0,0-6.689-5.69C427.549,392.982,427.3,389.63,431.94,389.9Z" transform="translate(-428.581 -387.277)" fill="#0099d7" stroke="#263238" stroke-linecap="round" stroke-linejoin="round" stroke-width="1"/>
              <path id="Trazado_57320" data-name="Trazado 57320" d="M434.446,391.857A14.167,14.167,0,0,1,440.1,397.8" transform="translate(-431.087 -389.234)" fill="none" stroke="#263238" stroke-linecap="round" stroke-linejoin="round" stroke-width="1"/>
            </g>
            <line id="Línea_9376" data-name="Línea 9376" y1="6.302" x2="4.312" transform="translate(15.197 5.768)" fill="none" stroke="#263238" stroke-linecap="round" stroke-linejoin="round" stroke-width="1"/>
            <g id="Grupo_14996" data-name="Grupo 14996" transform="translate(1.227 3.969)">
              <path id="Trazado_57321" data-name="Trazado 57321" d="M419.28,376.831s-.07-4.2-2.535-5.692-5.653.159-7.021,1.7-3.692,8.442-3.692,8.442a44.741,44.741,0,0,1,8.78.2C420.508,382.053,422.925,379.716,419.28,376.831Z" transform="translate(-406.032 -370.551)" fill="#0099d7" stroke="#263238" stroke-linecap="round" stroke-linejoin="round" stroke-width="1"/>
              <path id="Trazado_57322" data-name="Trazado 57322" d="M423.061,381.28a14.17,14.17,0,0,0-8.179.676" transform="translate(-409.813 -375.001)" fill="none" stroke="#263238" stroke-linecap="round" stroke-linejoin="round" stroke-width="1"/>
            </g>
            <g id="Grupo_14997" data-name="Grupo 14997" transform="translate(16.91)">
              <path id="Trazado_57323" data-name="Trazado 57323" d="M434.685,368.245s.052-3.089,1.866-4.19,4.161.117,5.168,1.253,2.718,6.214,2.718,6.214a32.943,32.943,0,0,0-6.463.148C433.781,372.089,432,370.369,434.685,368.245Z" transform="translate(-433.413 -363.623)" fill="#0099d7" stroke="#263238" stroke-linecap="round" stroke-linejoin="round" stroke-width="1"/>
              <path id="Trazado_57324" data-name="Trazado 57324" d="M435.634,371.52a10.429,10.429,0,0,1,6.02.5" transform="translate(-434.362 -366.898)" fill="none" stroke="#263238" stroke-linecap="round" stroke-linejoin="round" stroke-width="1"/>
            </g>
          </g>
          <path id="Trazado_57325" data-name="Trazado 57325" d="M433.109,416.607h-22.23l2.253,23.144h17.725Z" transform="translate(-406.876 -386.258)" fill="#fff" stroke="#263238" stroke-linecap="round" stroke-linejoin="round" stroke-width="1"/>
          <g id="Grupo_14999" data-name="Grupo 14999" transform="translate(4.645 36.947)">
            <path id="Trazado_57326" data-name="Trazado 57326" d="M439.4,433.465a.995.995,0,1,0,.995-.995A1,1,0,0,0,439.4,433.465Z" transform="translate(-423.705 -429.982)" fill="#263238" stroke="#263238" stroke-linecap="round" stroke-linejoin="round" stroke-width="1"/>
            <path id="Trazado_57327" data-name="Trazado 57327" d="M433.028,433.465a.995.995,0,1,0,.995-.995A1,1,0,0,0,433.028,433.465Z" transform="translate(-420.983 -429.982)" fill="#263238" stroke="#263238" stroke-linecap="round" stroke-linejoin="round" stroke-width="1"/>
            <path id="Trazado_57328" data-name="Trazado 57328" d="M412.1,429.122h20.752l.1-1H412Z" transform="translate(-411.999 -428.127)" fill="#263238" stroke="#263238" stroke-linecap="round" stroke-linejoin="round" stroke-width="1"/>
            <path id="Trazado_57329" data-name="Trazado 57329" d="M432.382,442.573l.42-4.312H412.986l.42,4.312Z" transform="translate(-412.421 -432.456)" fill="#263238" stroke="#263238" stroke-linecap="round" stroke-linejoin="round" stroke-width="1"/>
            <path id="Trazado_57330" data-name="Trazado 57330" d="M445.768,433.465a1,1,0,0,0,.995,1,.974.974,0,0,0,.175-.018l.186-1.9a.99.99,0,0,0-1.355.925Z" transform="translate(-426.426 -429.982)" fill="#263238" stroke="#263238" stroke-linecap="round" stroke-linejoin="round" stroke-width="1"/>
            <path id="Trazado_57331" data-name="Trazado 57331" d="M426.658,433.465a.995.995,0,1,0,.995-.995A1,1,0,0,0,426.658,433.465Z" transform="translate(-418.262 -429.982)" fill="#263238" stroke="#263238" stroke-linecap="round" stroke-linejoin="round" stroke-width="1"/>
            <path id="Trazado_57332" data-name="Trazado 57332" d="M413.918,433.465a.995.995,0,1,0,.995-.995A1,1,0,0,0,413.918,433.465Z" transform="translate(-412.819 -429.982)" fill="#263238" stroke="#263238" stroke-linecap="round" stroke-linejoin="round" stroke-width="1"/>
            <path id="Trazado_57333" data-name="Trazado 57333" d="M420.288,433.465a.995.995,0,1,0,.995-.995A1,1,0,0,0,420.288,433.465Z" transform="translate(-415.54 -429.982)" fill="#263238" stroke="#263238" stroke-linecap="round" stroke-linejoin="round" stroke-width="1"/>
          </g>
        </g>
      </g>
      <g id="Character" transform="translate(32.688 130.442)">
        <g id="Grupo_15006" data-name="Grupo 15006">
          <g id="Grupo_15001" data-name="Grupo 15001" transform="translate(0 55.442)">
            <path id="Trazado_57334" data-name="Trazado 57334" d="M116.261,388.19c2.749-3.389,7.662-9.37,9.348-10.936a56.061,56.061,0,0,0,4.61-4.951,8.515,8.515,0,0,0,2.049,10.073c4.951,4.439,19.633,1.024,22.877-1.366s3.585-8.536.683-17.585-7-25.779-6.829-31.584-3.586-22.194-5.293-26.633-8.707-7.682-15.878-9.219-26.462,6.487-26.462,6.487l-3.927,1.537s-16.048,8.878-20.316,12.463S74.9,329.963,73.88,339.524s-1.024,20.658-1.024,20.658A131.454,131.454,0,0,0,55.783,378.79c-3.449,4.763-5.434,7.666-6.568,9.4Z" transform="translate(-49.215 -295.794)" fill="#0099d7" stroke="#263238" stroke-width="1"/>
            <path id="Trazado_57335" data-name="Trazado 57335" d="M216.134,424.655a16.085,16.085,0,0,0-11.736,2.683c-6.035,4.023-4.359,10.059,1.006,11.4s12.407,1.341,16.1-4.359S218.817,424.32,216.134,424.655Z" transform="translate(-113.875 -350.753)" fill="#fff" stroke="#263238" stroke-width="1"/>
            <path id="Trazado_57336" data-name="Trazado 57336" d="M221.164,424.608A12.557,12.557,0,0,0,212,426.7c-4.712,3.141-3.4,7.853.785,8.9s9.686,1.047,12.565-3.4S223.258,424.346,221.164,424.608Z" transform="translate(-117.482 -350.753)" fill="#fff" stroke="#263238" stroke-width="1"/>
            <path id="Trazado_57337" data-name="Trazado 57337" d="M207.085,354.021c.192-3.116.309-5.238.309-5.427" transform="translate(-116.659 -318.351)" fill="none" stroke="#263238" stroke-width="1"/>
            <path id="Trazado_57338" data-name="Trazado 57338" d="M190.636,401.9s6.146-5.975,7.17-12.8c.632-4.21,1.458-15.685,2-24.028" transform="translate(-109.632 -325.387)" fill="none" stroke="#263238" stroke-width="1"/>
            <path id="Trazado_57339" data-name="Trazado 57339" d="M213.179,378.272c-1.545,4.974-4.409,12.432-8.832,17.487" transform="translate(-115.49 -331.03)" fill="none" stroke="#263238" stroke-width="1"/>
            <path id="Trazado_57340" data-name="Trazado 57340" d="M221.669,369.16s-.243,1.148-.751,2.98" transform="translate(-122.569 -327.137)" fill="none" stroke="#263238" stroke-width="1"/>
            <path id="Trazado_57341" data-name="Trazado 57341" d="M213.417,403.145a42.064,42.064,0,0,1-10.561,8.7" transform="translate(-114.853 -341.656)" fill="none" stroke="#263238" stroke-width="1"/>
            <path id="Trazado_57342" data-name="Trazado 57342" d="M224.884,396.581a30.5,30.5,0,0,1-2.036,2.717" transform="translate(-123.394 -338.851)" fill="none" stroke="#263238" stroke-width="1"/>
            <path id="Trazado_57343" data-name="Trazado 57343" d="M217.726,421.025a28.218,28.218,0,0,0-17.414.342c-9.56,3.244-8.536,10.585-7.683,11.78" transform="translate(-110.26 -348.784)" fill="none" stroke="#263238" stroke-width="1"/>
          </g>
          <path id="Trazado_57344" data-name="Trazado 57344" d="M159.9,207.715s0-2.012-2.766-6.287-16.85-2.515-21.628,2.263,2.012,10.814-1.006,14.335-13.077,1.761-16.347,8.048,5.03,9.3,6.79,11.569-3.017,3.017-2.515,5.281,8.3,2.515,8.3,2.515-5.03,1.509-2.515,3.52a18.683,18.683,0,0,0,12.071,3.772c5.03-.251,3.772-10.059,3.269-17.353s6.035-15.34,13.58-14.586,15.592,9.3,14.335,13.077,2.012-.754,8.8-5.03,3.772-13.077,2.264-14.838-6.539-2.263-7.545-5.533-3.269-6.538-7.545-6.538S164.17,207.463,159.9,207.715Z" transform="translate(-78.342 -199)" fill="#263238" stroke="#263238" stroke-width="1"/>
          <path id="Trazado_57345" data-name="Trazado 57345" d="M145.161,292.756s-3.244.854-4.61,2.561-6.829,4.78-7.171,7.171,1.707,14.682,5.8,19.633,6.147,5.293,6.147,5.293,1.195-4.78,2.048-5.122,8.707,4.609,8.707,4.609,1.366-8.024,2.22-8.024,3.585,2.732,3.585,2.732a52.865,52.865,0,0,0,.342-12.122c-.683-5.293-5.122-11.78-8.366-14S148.063,291.22,145.161,292.756Z" transform="translate(-85.156 -238.826)" fill="#fff" stroke="#263238" stroke-width="1"/>
          <path id="Trazado_57346" data-name="Trazado 57346" d="M152.22,281.829l-6.287,15.089a70.633,70.633,0,0,0,3.752,11.544c2.9,6.146,10.08,9.078,10.08,9.078a23.263,23.263,0,0,1,2.263-10.311,56.023,56.023,0,0,1,5.03-8.3S155.741,287.864,152.22,281.829Z" transform="translate(-90.534 -234.386)" fill="#fff" stroke="#263238" stroke-width="1"/>
          <path id="Trazado_57347" data-name="Trazado 57347" d="M159.747,290.428s2.894,16.537,7.028,21.7l3.928-7.442-10.335-16.123Z" transform="translate(-96.436 -237.265)" fill="#263238" stroke="#263238" stroke-width="1"/>
          <path id="Trazado_57348" data-name="Trazado 57348" d="M155.465,347.2s10.072-26.291,11.439-27.828,4.439-4.268,5.8-6.146,5.122-6.659,6.487-6.659,4.61,1.2,6.146,1.537,2.561.853,2.732,3.414a2.329,2.329,0,0,1-2.048,2.732l-.854-1.024s-6.146,9.219-8.024,10.414a16.048,16.048,0,0,1-3.586,1.707l-8.195,30.56Z" transform="translate(-94.607 -244.954)" fill="#fff" stroke="#263238" stroke-width="1"/>
          <g id="Grupo_15003" data-name="Grupo 15003" transform="translate(56.288 13.551)">
            <path id="Trazado_57349" data-name="Trazado 57349" d="M190.8,239.273s2.387,1.989.8,8.752-1.989,10.145-1.989,14.123-1.194,9.547-4.575,13.128-7.558,8.752-12.531,8.553c-7.875-.315-11.736-11.138-14.321-16.111S155,255.981,155,253.2s.4-9.348,3.978-14.321,13.326-6.962,17.5-6.365S185.827,233.7,190.8,239.273Z" transform="translate(-150.694 -226.823)" fill="#fff" stroke="#263238" stroke-width="1"/>
            <path id="Trazado_57350" data-name="Trazado 57350" d="M154.323,253.009a7.681,7.681,0,0,1,4.376-4.376c3.58-1.592,5.768-4.376,4.575-6.962s-.6-5.171,4.575-6.564,6.564,3.779,11.536,2.984,6.365-2.785,8.95-1.591,1.392,4.575,1.392,4.575,3.182-5.769-2.984-12.332-21.084-8.951-31.427-1.392-4.376,25.261-4.376,25.261S151.538,253.407,154.323,253.009Z" transform="translate(-148.23 -222.658)" fill="#263238" stroke="#263238" stroke-width="1"/>
            <path id="Trazado_57351" data-name="Trazado 57351" d="M197.969,281.551l-.6,11.536L193.2,291.5" transform="translate(-167.013 -247.818)" fill="none" stroke="#263238" stroke-width="1"/>
            <path id="Trazado_57352" data-name="Trazado 57352" d="M191.671,307.352s-3.978.6-5.768-2.188" transform="translate(-163.898 -257.906)" fill="none" stroke="#263238" stroke-width="1"/>
            <path id="Trazado_57353" data-name="Trazado 57353" d="M186.66,279.662c-.185,1.139-.819,1.983-1.415,1.886s-.93-1.1-.745-2.237.819-1.983,1.415-1.886S186.845,278.524,186.66,279.662Z" transform="translate(-163.277 -246.052)" fill="#263238"/>
            <path id="Trazado_57354" data-name="Trazado 57354" d="M208.909,280.224c-.185,1.139-.818,1.983-1.415,1.886s-.93-1.1-.745-2.237.819-1.983,1.415-1.886S209.094,279.085,208.909,280.224Z" transform="translate(-172.782 -246.292)" fill="#263238"/>
            <path id="Trazado_57355" data-name="Trazado 57355" d="M179.436,270.828s4.278-3.726,7.729-.828" transform="translate(-161.135 -242.412)" fill="none" stroke="#263238" stroke-linecap="round" stroke-width="2"/>
            <path id="Trazado_57356" data-name="Trazado 57356" d="M205.7,269.969s2.9-2.484,5.382-.138" transform="translate(-172.355 -242.38)" fill="none" stroke="#263238" stroke-linecap="round" stroke-width="2"/>
            <g id="Grupo_15002" data-name="Grupo 15002" transform="translate(4.086 27.727)">
              <path id="Trazado_57357" data-name="Trazado 57357" d="M186.173,276.38a53.694,53.694,0,0,0-15.457.552s-.828,6.348,3.588,9.108a7.607,7.607,0,0,0,9.8-1.38C186.287,281.657,186.173,276.38,186.173,276.38Z" transform="translate(-161.469 -273.206)" fill="none" stroke="#263238" stroke-width="2"/>
              <path id="Trazado_57358" data-name="Trazado 57358" d="M213.8,274.874a28.873,28.873,0,0,0-11.057.527s-.592,6.069,2.567,8.708,6.22.132,7.01-1.319C213.883,279.919,213.8,274.874,213.8,274.874Z" transform="translate(-175.16 -272.568)" fill="none" stroke="#263238" stroke-width="2"/>
              <path id="Trazado_57359" data-name="Trazado 57359" d="M197.748,275.931s.655-1.785,2.881-.341" transform="translate(-173.044 -272.757)" fill="none" stroke="#263238" stroke-width="2"/>
              <line id="Línea_9377" data-name="Línea 9377" x2="9.247" y2="3.726" fill="none" stroke="#263238" stroke-width="2"/>
            </g>
            <path id="Trazado_57360" data-name="Trazado 57360" d="M154.373,273.453s-1.392-8.155-5.172-4.177-.4,7.957,1.392,9.747,3.978,0,3.978,0" transform="translate(-147.485 -242.106)" fill="#fff" stroke="#263238" stroke-width="1"/>
          </g>
          <g id="Grupo_15004" data-name="Grupo 15004" transform="translate(27.055 85.082)">
            <path id="Trazado_57361" data-name="Trazado 57361" d="M117.667,347.541a45.544,45.544,0,0,1,4.9,14.6c1.2,8.195,1.024,9.731,1.024,9.731l5.976-7.171s9.731,6.829,11.268,9.049a12.226,12.226,0,0,1,1.707,2.9s0,13.317-5.634,21.34-8.366,8.024-13.829,8.024-12.463-5.122-16.218-13.658-6.829-21-7.512-22.194-2.9-8.024-2.9-8.024" transform="translate(-96.449 -347.541)" fill="#0099d7" stroke="#263238" stroke-width="1"/>
            <path id="Trazado_57362" data-name="Trazado 57362" d="M128.412,407.494c-.621.728-1.16,1.344-1.561,1.773" transform="translate(-109.437 -373.154)" fill="none" stroke="#263238" stroke-width="1"/>
            <path id="Trazado_57363" data-name="Trazado 57363" d="M139.325,390.024s-3.193,4.01-6.053,7.475" transform="translate(-112.18 -365.69)" fill="none" stroke="#263238" stroke-width="1"/>
            <path id="Trazado_57364" data-name="Trazado 57364" d="M145.11,382.431A44.573,44.573,0,0,1,155.7,387.04c5.8,3.415,6.317,7.171,8.024,5.8s3.073-5.634,1.366-8.024-7-8.024-10.756-9.732-5.293-.683-6.487,1.878S143.915,380.894,145.11,382.431Z" transform="translate(-117.111 -358.951)" fill="#fff" stroke="#263238" stroke-width="1"/>
            <path id="Trazado_57365" data-name="Trazado 57365" d="M144.954,412.928a19.946,19.946,0,0,0,.728,4.807" transform="translate(-117.171 -375.475)" fill="none" stroke="#263238" stroke-width="1"/>
            <path id="Trazado_57366" data-name="Trazado 57366" d="M145.082,388.534s-.409,5.722-.322,11.056" transform="translate(-117.083 -365.054)" fill="none" stroke="#263238" stroke-width="1"/>
            <path id="Trazado_57367" data-name="Trazado 57367" d="M155.465,393.6s1.195,6.658,2.561,9.56" transform="translate(-121.662 -367.219)" fill="none" stroke="#263238" stroke-width="1"/>
          </g>
          <g id="Grupo_15005" data-name="Grupo 15005" transform="translate(94.358 125.041)">
            <path id="Trazado_57368" data-name="Trazado 57368" d="M222.348,422.334s-5.8,10.243-4.951,11.439,19.8,0,19.8,0l1.025-4.1a23.563,23.563,0,0,0,7,1.537c3.073,0,.683-.853-.341-1.878s-7-4.78-7.512-5.122S226.958,421.309,222.348,422.334Z" transform="translate(-215.387 -419.35)" fill="#fff" stroke="#263238" stroke-width="1"/>
            <path id="Trazado_57369" data-name="Trazado 57369" d="M247.431,420.306s2.744-.823,3.476.915.366,9.147.092,11.068-1.555,1.829-2.1,0-1.829-11.708-1.829-11.708Z" transform="translate(-228.098 -418.503)" fill="#fff" stroke="#263238" stroke-width="1"/>
            <path id="Trazado_57370" data-name="Trazado 57370" d="M237.643,420.552s4.116-2.835,5.305-1.372,2.287,12.988,2.653,13.812-1.555,1.463-2.287.64a43.594,43.594,0,0,1-3.476-6.586C239.2,425.491,237.643,420.552,237.643,420.552Z" transform="translate(-224.073 -417.926)" fill="#fff" stroke="#263238" stroke-width="1"/>
            <path id="Trazado_57371" data-name="Trazado 57371" d="M223.43,423.039s2.287-4.207,4.208-5.4,4.025,1.006,5.031,2.653,1.829,5.945,2.287,8.049,1.738,4.482,1.006,4.756-3.567-2.1-4.39-3.385-2.835-6.22-2.835-6.22" transform="translate(-218.001 -417.304)" fill="#fff" stroke="#263238" stroke-width="1"/>
            <path id="Trazado_57372" data-name="Trazado 57372" d="M223.131,437.34s-3.293-3.2-4.39-4.208-2.653-1.463-3.751-.274-1.646,2.653,0,4.208,5.579,3.567,8.141,3.567,2.1-1.281,1.463-2.012A8.444,8.444,0,0,0,223.131,437.34Z" transform="translate(-213.951 -423.646)" fill="#fff" stroke="#263238" stroke-width="1"/>
          </g>
        </g>
      </g>
      <g id="Device" transform="translate(103.642 218.492)">
        <g id="Grupo_15007" data-name="Grupo 15007">
          <rect id="Rectángulo_2485" data-name="Rectángulo 2485" width="120.026" height="3.433" transform="translate(120.026 59.736) rotate(180)" fill="#b8b8b8" stroke="#263238" stroke-linecap="round" stroke-linejoin="round" stroke-width="1"/>
          <rect id="Rectángulo_2486" data-name="Rectángulo 2486" width="42.134" height="3.433" transform="translate(42.134 59.736) rotate(180)" fill="#263238" stroke="#263238" stroke-linecap="round" stroke-linejoin="round" stroke-width="1"/>
          <path id="Trazado_57373" data-name="Trazado 57373" d="M240.724,409.025h77.931l4.5-51.833a4.033,4.033,0,0,0-4.081-4.469H250.083a4.972,4.972,0,0,0-4.857,4.469Z" transform="translate(-201.984 -352.723)" fill="#263238" stroke="#263238" stroke-linecap="round" stroke-linejoin="round" stroke-width="1"/>
          <path id="Trazado_57374" data-name="Trazado 57374" d="M243.333,409.025h77.931l4.5-51.833a4.032,4.032,0,0,0-4.081-4.469H252.692a4.972,4.972,0,0,0-4.857,4.469Z" transform="translate(-203.099 -352.723)" fill="#b8b8b8" stroke="#263238" stroke-linecap="round" stroke-linejoin="round" stroke-width="1"/>
          <path id="Trazado_57375" data-name="Trazado 57375" d="M312.255,395.365a5.435,5.435,0,0,1,5.31-4.886,4.409,4.409,0,0,1,4.462,4.886,5.435,5.435,0,0,1-5.31,4.886A4.409,4.409,0,0,1,312.255,395.365Z" transform="translate(-232.535 -368.853)" fill="#263238" stroke="#263238" stroke-linecap="round" stroke-linejoin="round" stroke-width="1"/>
        </g>
      </g>
      <g id="Table" transform="translate(14.477 278.227)">
        <line id="Línea_9378" data-name="Línea 9378" x1="268.413" fill="none" stroke="#263238" stroke-width="1"/>
      </g>
    </g>
  </g>
</svg>
