<svg id="esto_odo_icon" xmlns="http://www.w3.org/2000/svg" width="57.428" height="52.059" viewBox="0 0 57.428 52.059">
  <path id="Trazado_57485" data-name="Trazado 57485" d="M87.519,91.987a14.241,14.241,0,0,1,4.417-.762,24.217,24.217,0,0,1,9.121,1.794,2.456,2.456,0,0,0,1.845-.241,22.126,22.126,0,0,1,9.753-1.472A12.049,12.049,0,0,1,119.7,94.3a10.431,10.431,0,0,1,2.627,3.965,13.86,13.86,0,0,1,8.255,6.8.839.839,0,0,1-.637,1.221.9.9,0,0,1-.913-.56,12.151,12.151,0,0,0-3.248-3.823,12.226,12.226,0,0,0-19.62,8.261,12.225,12.225,0,1,0,24.208-.513,1.328,1.328,0,0,1,.054-.911.844.844,0,0,1,1.219-.249,1.113,1.113,0,0,1,.379.792,14.081,14.081,0,0,1-.112,5.134,13.931,13.931,0,0,1-4.769,7.906q1.284,2.418,2.569,4.834a5.254,5.254,0,0,1,1.038-.48,1.691,1.691,0,0,1,1.823.725c1.486,2.715,2.914,5.466,4.374,8.2a5.424,5.424,0,0,1,.633,2.353v.212a5.273,5.273,0,0,1-1.57,3.637,5.2,5.2,0,0,1-8.181-1.227q-2.172-4.065-4.328-8.137a1.724,1.724,0,0,1,.142-1.869,3.358,3.358,0,0,1,1.183-.81q-1.285-2.419-2.571-4.839a14.463,14.463,0,0,1-4,.577,30.061,30.061,0,0,1-.829,6.585,8.721,8.721,0,0,1-2.828,4.815,6.327,6.327,0,0,1-5.062,1.014,5.8,5.8,0,0,1-3.125-1.713,9.283,9.283,0,0,1-2.034-3.8,47.387,47.387,0,0,1-1.275-8.446,12.7,12.7,0,0,0-.79-3.967c-.16-.289-.355-.683-.733-.694a1.622,1.622,0,0,0-.735.941,14.813,14.813,0,0,0-.706,3.917,47.393,47.393,0,0,1-1.209,8.084,8.7,8.7,0,0,1-2.663,4.507,6.439,6.439,0,0,1-4.916,1.25,5.58,5.58,0,0,1-3.236-1.566,9,9,0,0,1-2.131-3.8,30.2,30.2,0,0,1-1-7.844,53.322,53.322,0,0,0-.2-5.7,20.387,20.387,0,0,0-1.325-4.8c-.83-2.115-1.91-4.133-2.574-6.313a19.5,19.5,0,0,1-.741-4.424v-1.066a13.788,13.788,0,0,1,.6-3.656,10.246,10.246,0,0,1,3.3-4.921.837.837,0,0,1,1.33.6c.057.421-.286.718-.568.968a8.875,8.875,0,0,0-2.714,4.838A14.883,14.883,0,0,0,82.3,106.7c.625,2.5,1.91,4.761,2.82,7.159a20.689,20.689,0,0,1,1.515,6.974c.039,1.5,0,2.995.06,4.492a26.663,26.663,0,0,0,.967,6.987,6.9,6.9,0,0,0,1.709,2.971,3.979,3.979,0,0,0,2.341,1.049,4.674,4.674,0,0,0,3.681-1.05,7.643,7.643,0,0,0,2-3.746,45.289,45.289,0,0,0,1.043-7.119,20.455,20.455,0,0,1,.724-4.462,3.859,3.859,0,0,1,1.346-2,2.042,2.042,0,0,1,2.139-.086,3.494,3.494,0,0,1,1.4,1.86,18.758,18.758,0,0,1,.806,4.672,40.408,40.408,0,0,0,1.2,7.689,7.237,7.237,0,0,0,1.718,3.083,4.2,4.2,0,0,0,2.437,1.144,4.558,4.558,0,0,0,3.385-.763,6.531,6.531,0,0,0,2.025-3.244,26.954,26.954,0,0,0,.967-6.928,14.278,14.278,0,0,1-5.434-1.88,13.914,13.914,0,0,1,9.142-25.695,8.718,8.718,0,0,0-2.2-2.674A10.554,10.554,0,0,0,112.609,93a20.15,20.15,0,0,0-8.955,1.3,4.764,4.764,0,0,1-2.484.486c-.931-.193-1.791-.621-2.705-.878a17.262,17.262,0,0,0-10.3-.372.864.864,0,0,1-.986-.252.834.834,0,0,1,.338-1.291m36.336,32.351q1.232,2.315,2.461,4.632c.638-.339,1.275-.68,1.913-1.017q-1.227-2.318-2.46-4.634a16.035,16.035,0,0,1-1.915,1.019m1.107,7.259q.572,1.08,1.149,2.158c2.062-1.109,4.134-2.2,6.2-3.3q-.57-1.078-1.146-2.153-3.1,1.65-6.2,3.3m1.936,3.641q1.067,2.014,2.139,4.027a4.908,4.908,0,0,0,.842,1.276,3.51,3.51,0,0,0,6.019-2.429,4.484,4.484,0,0,0-.772-2.362q-1.013-1.9-2.026-3.81Q130,133.587,126.9,135.238Z" transform="translate(-80.157 -91.221)" fill="#001965"/>
  <path id="Trazado_57486" data-name="Trazado 57486" d="M204.264,133.337a10.252,10.252,0,0,1,6.748,1.413,10.163,10.163,0,1,1-6.748-1.413m.108,1.685a8.505,8.505,0,1,0,4.885.694A8.506,8.506,0,0,0,204.372,135.022Z" transform="translate(-167.526 -123.045)" fill="#001965"/>
  <path id="Trazado_57487" data-name="Trazado 57487" d="M216.228,152.208a1.839,1.839,0,0,1,1.655-1.631c.562-.029,1.126-.016,1.689-.01a1.853,1.853,0,0,1,1.659,1.113,7.366,7.366,0,0,1,.154,2.256c.576.01,1.153-.022,1.729.015a1.844,1.844,0,0,1,1.634,1.734c.017.56.017,1.122,0,1.682a1.846,1.846,0,0,1-1.619,1.725c-.581.043-1.164.008-1.745.018a10.2,10.2,0,0,1-.093,2.1,1.87,1.87,0,0,1-1.837,1.278c-.9-.036-1.984.2-2.684-.529-.8-.733-.506-1.889-.559-2.842-.587-.012-1.176.026-1.761-.02a1.842,1.842,0,0,1-1.6-1.714c-.018-.568-.017-1.135,0-1.7a1.838,1.838,0,0,1,1.01-1.542,6.316,6.316,0,0,1,2.354-.2c.01-.575-.021-1.152.016-1.727m1.667.085c-.007.832.014,1.667-.007,2.5a.823.823,0,0,1-.789.815c-.857.048-1.718-.045-2.573.048-.006.579-.009,1.159,0,1.737.854.083,1.714,0,2.57.043a.823.823,0,0,1,.789.818c.02.834,0,1.67.009,2.5a9.094,9.094,0,0,0,1.8.009c.021-.837-.007-1.674.012-2.51a.823.823,0,0,1,.757-.819c.866-.044,1.735.03,2.6-.038q.022-.877,0-1.754c-.868-.071-1.74.007-2.608-.041a.822.822,0,0,1-.749-.805c-.021-.84.007-1.68-.011-2.52A8.29,8.29,0,0,0,217.895,152.293Z" transform="translate(-180.644 -136.161)" fill="#001965"/>
</svg>
