<svg xmlns="http://www.w3.org/2000/svg" width="217.288" height="214.095" viewBox="0 0 217.288 214.095">
  <g id="Grupo_14476" data-name="Grupo 14476" transform="translate(-764.247 -299.375)">
    <g id="Grupo_14474" data-name="Grupo 14474" transform="translate(832.469 300.392)">
      <path id="Trazado_14047" data-name="Trazado 14047" d="M988.293,308.6c-4.82,3.536-9.679,7.252-12.967,12.244s-4.77,11.568-2.339,17.029c1.641,3.684,4.842,6.454,8.268,8.582a41.22,41.22,0,0,0,38.53,2.265c2.471-1.158,5.166-2.607,7.776-1.812,4.3,1.31,4.674,7.527,2.571,11.5s-5.741,7.17-6.919,11.512c-.935,3.447-.172,7.088.241,10.635a53.961,53.961,0,0,1-11.679,39.894c7.605,2.138,16.439-3.441,17.778-11.226a21.852,21.852,0,0,0,10.716,15.521l1.255-7.852a16.875,16.875,0,0,0,14.4,6.657l.891-10.128a25.74,25.74,0,0,0,18.73,4.454c-8.869-5.5-11.615-17.309-10.819-27.715s4.284-20.515,4.523-30.949c.418-18.19-3-41.56-18.943-50.319s-43.492-12.587-58.619-2.477Z" transform="translate(-953.739 -300.392)" fill="none" stroke="#001964" stroke-width="2"/>
      <g id="Grupo_14473" data-name="Grupo 14473" transform="translate(0 46.073)">
        <path id="Trazado_14048" data-name="Trazado 14048" d="M1004.1,617.186c-.913,8.951-8.279,17.312-17.264,17.791-7.631.406-14.938-4.485-22.513-3.478-7.6,1.011-13.333,7.92-15.375,15.306s-1.14,15.226-.223,22.834q1.288,10.684,2.575,21.369" transform="translate(-939.606 -532.483)" fill="none" stroke="#001964" stroke-width="2"/>
        <path id="Trazado_14049" data-name="Trazado 14049" d="M946.207,412c-3.715,9.495-10.32,20.228-18.133,35.914a32.453,32.453,0,0,0,12.824,1.538,58.249,58.249,0,0,0,5.593,23.9c2.7,5.694,6.481,11.082,11.826,14.421s12.047,3.38,17.991,1.286c6.639-2.339,8.7-5.229,13.244-14.311" transform="translate(-928.074 -412)" fill="none" stroke="#001964" stroke-width="2"/>
        <path id="Trazado_14050" data-name="Trazado 14050" d="M988.717,540.255a3.827,3.827,0,0,1,3.663-3.145,5.151,5.151,0,0,1,4.356,2.5,7.458,7.458,0,0,1,2.05-2.15,3.252,3.252,0,0,1,1.71-.672,3.7,3.7,0,0,1,2.589,1.389,15.747,15.747,0,0,1,1.7,2.085" transform="translate(-963.683 -485.277)" fill="none" stroke="#001964" stroke-width="2"/>
        <path id="Trazado_14051" data-name="Trazado 14051" d="M989.048,545.452a3.812,3.812,0,0,0,1.344,3.382,9.021,9.021,0,0,0,3.359,1.717,13.131,13.131,0,0,0,2.346.563,8.652,8.652,0,0,0,8.876-5.26" transform="translate(-963.85 -490.362)" fill="none" stroke="#001964" stroke-width="2"/>
        <path id="Trazado_14052" data-name="Trazado 14052" d="M989.379,545.42a14.628,14.628,0,0,0,7.48,2,17.657,17.657,0,0,0,5.029-.741,6.945,6.945,0,0,0,2.436-1.426" transform="translate(-964.072 -490.244)" fill="none" stroke="#001964" stroke-width="2"/>
      </g>
      <path id="Trazado_14053" data-name="Trazado 14053" d="M1176,599c.643,2.787,1.78,10.621,2.165,13.455.366,2.7.642,5.5,1.982,7.868,2.794,4.945,9.191,6.438,14.866,6.659s11.715-.246,16.66,2.549c7.537,4.259,9.424,14.156,9.845,22.8a169.66,169.66,0,0,1-2.141,36.311" transform="translate(-1073.654 -475.732)" fill="none" stroke="#001964" stroke-width="2"/>
      <path id="Trazado_14054" data-name="Trazado 14054" d="M1067.707,650.611a101.693,101.693,0,0,1,24.05,19.582,205.832,205.832,0,0,1,25.769-17.584" transform="translate(-1010.065 -506.038)" fill="none" stroke="#001964" stroke-width="2"/>
      <path id="Trazado_14055" data-name="Trazado 14055" d="M1079.457,658.086c12.562,6.4,29.84,6.809,42.4.4" transform="translate(-1016.965 -510.427)" fill="none" stroke="#001964" stroke-width="2"/>
    </g>
    <g id="Grupo_14475" data-name="Grupo 14475" transform="translate(765.256 380.711)">
      <path id="Trazado_14056" data-name="Trazado 14056" d="M859.409,534.268a30.429,30.429,0,0,1,7.5-3.5,12.6,12.6,0,0,1,7.073-.49c3.489.984,5.858,4.209,7.457,7.462a20.427,20.427,0,0,1,2.347,8.368,10.927,10.927,0,0,1-2.9,8.011,13.549,13.549,0,0,1-4.735,2.848,29.8,29.8,0,0,1-10.82,2.044,3.693,3.693,0,0,0-2.181.427,3.469,3.469,0,0,0-1.04,1.606l-2.86,7.01" transform="translate(-820.446 -515.512)" fill="none" stroke="#001964" stroke-width="2"/>
      <path id="Trazado_14057" data-name="Trazado 14057" d="M850.211,642.955" transform="translate(-815.141 -581.861)" fill="none" stroke="#001964" stroke-width="2"/>
      <path id="Trazado_14058" data-name="Trazado 14058" d="M792.848,509.271a25.089,25.089,0,0,1-5.181,13.248,4.474,4.474,0,0,1-1.621,1.449,4.934,4.934,0,0,1-3.022-.021l-5.206-1.145a11.073,11.073,0,0,0-4.632-.347c-3.627.769-5.461,4.768-6.526,8.319-1.68,5.6-2.55,12.426,1.509,16.637,1.908,1.98,4.6,2.991,7.246,3.728,3.451.96,7.82,1.264,9.95-1.615" transform="translate(-765.256 -503.363)" fill="none" stroke="#001964" stroke-width="2"/>
      <path id="Trazado_14059" data-name="Trazado 14059" d="M835.96,494.96" transform="translate(-806.773 -494.96)" fill="none" stroke="#001964" stroke-width="2"/>
    </g>
  </g>
</svg>
