<svg xmlns="http://www.w3.org/2000/svg" width="58.756" height="62.703" viewBox="0 0 58.756 62.703">
  <g id="fis_reh_icon" transform="translate(-66.379 -57.504)">
    <g id="Grupo_15009" data-name="Grupo 15009" transform="translate(66.379 57.504)">
      <g id="_000000ff" data-name="#000000ff" transform="translate(0 0)">
        <path id="Trazado_57378" data-name="Trazado 57378" d="M78.926,57.5H91.243a.987.987,0,0,1,.728.622,5.759,5.759,0,0,1,.048,1.215q-.048,6.308-.087,12.619a1.21,1.21,0,0,0,.6,1.139,10.486,10.486,0,0,1,4.354,5.555c.627,1.946.348,4.011.41,6.017,2.416,1.2,4.835,2.392,7.244,3.607a44.118,44.118,0,0,1,4.691,2.771,10.339,10.339,0,0,1,2.939,3.073,9.853,9.853,0,0,1,.915,5.751,3.334,3.334,0,0,0,.29,2.226c.5.687.986,1.388,1.476,2.084a1.092,1.092,0,0,1,.26.84.924.924,0,0,1-1.107.74c-.369-.069-.577-.407-.778-.687-.479-.7-.976-1.392-1.467-2.087a5.155,5.155,0,0,1-.5-3.348,7.721,7.721,0,0,0-.845-4.866,11.727,11.727,0,0,0-3.918-3.308c-2.98-1.756-6.127-3.2-9.2-4.771,0,2.369,0,4.738,0,7.107a14.407,14.407,0,0,1,2.448,3.545.916.916,0,0,1-1.045,1.2c-.622-.123-.756-.823-1.057-1.28a16.253,16.253,0,0,0-4.022-4.323q-1.591-1.286-3.184-2.569a1.988,1.988,0,0,0-2.551,3.049,16.647,16.647,0,0,1,2.458,2.458,34.6,34.6,0,0,1,2.705,4.866c1.4,2.678,2.735,5.534,5.108,7.512a7.816,7.816,0,0,0,3.028,1.636c.544.146,1.112.126,1.664.224a3.111,3.111,0,0,1,1.978,1.392c1.525,2.285,3.065,4.561,4.581,6.852,4.355.017,8.71,0,13.065.007q-3.24-4.662-6.478-9.326a1.055,1.055,0,0,1-.245-.841.921.921,0,0,1,1.068-.73,1.09,1.09,0,0,1,.7.535q3.68,5.317,7.374,10.624a1.013,1.013,0,0,1,.181,1,.961.961,0,0,1-.8.572H108.785c-.513-.111-.75-.6-1.016-1-1.467-2.2-2.949-4.394-4.414-6.6a1.4,1.4,0,0,0-.874-.691,14.039,14.039,0,0,1-1.726-.241,10.88,10.88,0,0,1-5.533-3.782,39.64,39.64,0,0,1-3.292-5.307,14.534,14.534,0,0,1-.163,3.24,3.652,3.652,0,0,1-3.232,2.585,3.729,3.729,0,0,1-2.241-.606,4.18,4.18,0,0,1-1.26,1.559,3.565,3.565,0,0,1-4.3-.1,3.688,3.688,0,0,1-1.383-2.879,3.615,3.615,0,0,1-3.9-.3A3.691,3.691,0,0,1,74,103.192q-.009-8.046,0-16.092a5.347,5.347,0,0,1-5.724.956,3.193,3.193,0,0,1-1.73-1.454,2.062,2.062,0,0,1,.269-2.072,64.759,64.759,0,0,1,5.406-6.84A30.585,30.585,0,0,1,76.7,74.085a2.984,2.984,0,0,0,1.364-2.3c.043-1.907.014-3.815.054-5.721a.91.91,0,0,1,1.107-.868.938.938,0,0,1,.719,1c-.011,1.875-.015,3.751-.038,5.626a4.731,4.731,0,0,1-1.959,3.625A43.663,43.663,0,0,0,74.455,78.1a22.462,22.462,0,0,0-2.431,2.58c-1.356,1.659-2.626,3.387-3.86,5.14a3.405,3.405,0,0,0,4.2.234c.749-.555,1.3-1.325,2-1.938a.91.91,0,0,1,1.433.47,7.3,7.3,0,0,1,.042,1.212q0,8.634,0,17.268a1.873,1.873,0,0,0,.528,1.386,1.735,1.735,0,0,0,3-1.261q.007-6.439,0-12.876a1.048,1.048,0,0,1,.268-.811.922.922,0,0,1,1.346.049,1.107,1.107,0,0,1,.224.775q-.005,7.967,0,15.934a1.891,1.891,0,0,0,.45,1.358,1.744,1.744,0,0,0,2.067.415,1.851,1.851,0,0,0,1.009-1.662c.009-2.737,0-5.474,0-8.211a.983.983,0,0,1,.5-.979.915.915,0,0,1,1.325.74c.033,2.289,0,4.579.016,6.868a1.76,1.76,0,1,0,3.52,0c.015-1.759-.006-3.519.01-5.277a1.487,1.487,0,0,0-.108-.724,10.912,10.912,0,0,0-2.235-3.025,8.88,8.88,0,0,1-1.881-1.921,3.822,3.822,0,0,1,3.97-5.676,4.05,4.05,0,0,1,1.975.969q1.815,1.473,3.636,2.937c0-3.6.006-7.206,0-10.808a7.838,7.838,0,0,0-2.905-5.845c-.633-.594-1.5-.942-1.972-1.7a3.049,3.049,0,0,1-.484-1.764q.044-6.3.087-12.61-5.092,0-10.184,0c-.016.859.006,1.718-.026,2.577a.915.915,0,0,1-1.114.863.93.93,0,0,1-.712-.982c.009-1.142,0-2.284.031-3.425A.95.95,0,0,1,78.926,57.5Z" transform="translate(-66.379 -57.504)" fill="#001965"/>
      </g>
    </g>
    <path id="Trazado_57379" data-name="Trazado 57379" d="M224.768,137.751h-3.106v-3.106h-3.4v3.106h-3.106v3.4h3.106v3.106h3.4v-3.106h3.106Z" transform="translate(-115.695 -59.989)" fill="#001965"/>
  </g>
</svg>
