<svg xmlns="http://www.w3.org/2000/svg" width="511.891" height="220.419" viewBox="0 0 511.891 220.419">
  <g id="Grupo_14472" data-name="Grupo 14472" transform="translate(-270.5 -297.867)">
    <g id="Grupo_14472-2" data-name="Grupo 14472" transform="translate(628.209 315.861)">
      <path id="Trazado_14035" data-name="Trazado 14035" d="M1160.268,384.352c3-3.165,6.084-6.474,7.447-10.615s.473-9.368-3.2-11.712-9.8.286-9.518,4.637c-7.17-2.084-14.515-4.255-20.48-8.746s-10.343-11.877-9.138-19.246a67.859,67.859,0,0,0-16.9,47.509,33.55,33.55,0,0,0,13.262,1.59,60.239,60.239,0,0,0,5.784,24.715c2.793,5.889,6.7,11.461,12.229,14.913s12.881,4.446,18.605,1.33,8.9-10.833,5.933-16.638c7.047,6.076,11.826,15.288,10.882,24.545s-8.561,17.9-17.853,18.4c-7.891.42-15.448-4.638-23.281-3.6-7.856,1.046-13.788,8.19-15.9,15.829s-1.179,15.745-.231,23.614q1.332,11.049,2.663,22.1" transform="translate(-1108.418 -338.671)" fill="none" stroke="#001964" stroke-width="2"/>
      <ellipse id="Elipse_868" data-name="Elipse 868" cx="5.123" cy="6.404" rx="5.123" ry="6.404" transform="translate(26.918 67.98) rotate(-17.886)" fill="none" stroke="#001964" stroke-width="2"/>
    </g>
    <path id="Trazado_14036" data-name="Trazado 14036" d="M689.931,756.249H403.053V737.023a8.523,8.523,0,0,0-8.523-8.523H394.3a8.523,8.523,0,0,0-8.523,8.523v19.226H376.34V737.023a8.523,8.523,0,0,0-8.523-8.523h0a8.523,8.523,0,0,0-8.523,8.523v19.226h-9.383V737.023a8.523,8.523,0,0,0-8.522-8.523H340.5a8.523,8.523,0,0,0-8.523,8.523v19.226H270.5" transform="translate(0 -246.22)" fill="none" stroke="#001964" stroke-width="2"/>
    <path id="Trazado_14037" data-name="Trazado 14037" d="M698.867,690.916,661.5,614.5H780.7l40.527,76.416h51.438l-9.1-9.1H822.869" transform="translate(-224.081 -180.887)" fill="none" stroke="#001964" stroke-width="2"/>
    <path id="Trazado_14038" data-name="Trazado 14038" d="M1335.911,504a97.449,97.449,0,0,1,11.023,33.534c.379,2.79.664,5.685,2.049,8.137,2.889,5.114,9.5,6.658,15.374,6.887s12.115-.254,17.229,2.636c7.794,4.4,9.746,14.639,10.181,23.58a175.474,175.474,0,0,1-2.214,37.55" transform="translate(-610.585 -117.562)" fill="none" stroke="#001964" stroke-width="2"/>
    <path id="Trazado_14039" data-name="Trazado 14039" d="M1164.171,310.06c6.679-7.718,17.249-11.395,27.453-11.181s20.07,3.964,28.9,9.091c6.21,3.608,12.179,8.1,15.771,14.316,3.785,6.554,4.579,14.522,3.471,22.009s-3.994,14.592-7.2,21.45" transform="translate(-512.161)" fill="none" stroke="#001964" stroke-width="2"/>
    <circle id="Elipse_869" data-name="Elipse 869" cx="6.83" cy="6.83" r="6.83" transform="translate(688.437 474.169)" fill="none" stroke="#001964" stroke-width="2"/>
    <circle id="Elipse_870" data-name="Elipse 870" cx="6.83" cy="6.83" r="6.83" transform="translate(654.712 474.169)" fill="none" stroke="#001964" stroke-width="2"/>
    <path id="Trazado_14040" data-name="Trazado 14040" d="M1219.464,674.68v-8.791a17.146,17.146,0,0,0-17.146-17.146h0a17.146,17.146,0,0,0-17.146,17.146v8.791" transform="translate(-524.197 -200.512)" fill="none" stroke="#001964" stroke-width="2"/>
    <path id="Trazado_14041" data-name="Trazado 14041" d="M1239.243,556.927c-10.858,3.571-18.183,15.657-16.326,26.935.713,4.328,2.592,8.769,1.221,12.935" transform="translate(-545.663 -147.892)" fill="none" stroke="#001964" stroke-width="2"/>
    <path id="Trazado_14042" data-name="Trazado 14042" d="M1363.73,581.114c7.618,4.075,15.88,8.883,18.623,17.076,2.117,6.322.377,13.324-2.472,19.352s-6.776,11.517-9.373,17.657a45.27,45.27,0,0,0-3.112,23.819" transform="translate(-626.528 -161.754)" fill="none" stroke="#001964" stroke-width="2"/>
    <circle id="Elipse_871" data-name="Elipse 871" cx="9.819" cy="9.819" r="9.819" transform="translate(731.554 497.648)" fill="none" stroke="#001964" stroke-width="2"/>
    <path id="Trazado_14043" data-name="Trazado 14043" d="M545.788,693.537a6.83,6.83,0,0,1,13.661,0c0,3.773-3.058,8.111-6.83,8.111S545.788,697.31,545.788,693.537Z" transform="translate(-157.767 -222.269)" fill="none" stroke="#001964" stroke-width="2"/>
    <path id="Trazado_14044" data-name="Trazado 14044" d="M484.788,693.537a6.83,6.83,0,0,1,13.661,0c0,3.773-3.058,8.111-6.83,8.111S484.788,697.31,484.788,693.537Z" transform="translate(-122.808 -222.269)" fill="none" stroke="#001964" stroke-width="2"/>
    <path id="Trazado_14045" data-name="Trazado 14045" d="M421.788,693.537a6.83,6.83,0,0,1,13.661,0c0,3.773-3.058,8.111-6.83,8.111S421.788,697.31,421.788,693.537Z" transform="translate(-86.703 -222.269)" fill="none" stroke="#001964" stroke-width="2"/>
  </g>
</svg>
