<svg xmlns="http://www.w3.org/2000/svg" width="1371.014" height="304.709" viewBox="0 0 1371.014 304.709">
  <g id="Grupo_14444" data-name="Grupo 14444" transform="translate(68.758 -266.371)">
    <path id="Trazado_13976" data-name="Trazado 13976" d="M1185.727,644.433l60.321,5.862a6.5,6.5,0,0,1,5.163,3.521l50.286,98.823a5.418,5.418,0,0,1-5.835,7.78l-59.34-11.227a6.5,6.5,0,0,1-4.522-3.32l-50.609-94.637A4.637,4.637,0,0,1,1185.727,644.433Z" transform="translate(-139.217 -190.462)" fill="none" stroke="#001964" stroke-width="2"/>
    <path id="Trazado_13977" data-name="Trazado 13977" d="M1410.573,277.234c-5.777,4.239-11.6,8.693-15.543,14.677s-5.718,13.866-2.8,20.412c1.966,4.416,5.8,7.737,9.91,10.287a49.41,49.41,0,0,0,46.185,2.715c2.961-1.388,6.192-3.125,9.322-2.172,5.158,1.571,5.6,9.023,3.082,13.79s-6.881,8.6-8.293,13.8c-1.121,4.131-.206,8.5.288,12.748a64.681,64.681,0,0,1-14,47.82c9.116,2.562,19.7-4.124,21.31-13.456a26.194,26.194,0,0,0,12.845,18.6l1.5-9.411a20.227,20.227,0,0,0,17.258,7.979l1.068-12.14a30.854,30.854,0,0,0,22.451,5.339c-10.631-6.595-13.923-20.747-12.968-33.221s5.135-24.591,5.422-37.1c.5-21.8-3.591-49.816-22.706-60.316s-52.133-15.088-70.265-2.969Z" transform="translate(-245.38)" fill="none" stroke="#001964" stroke-width="2"/>
    <g id="Grupo_14444-2" data-name="Grupo 14444" transform="translate(1123.774 322.618)">
      <path id="Trazado_13978" data-name="Trazado 13978" d="M1434.3,584.186c-1.094,10.73-9.924,20.752-20.693,21.325-9.147.487-17.906-5.376-26.986-4.168-9.106,1.211-15.982,9.493-18.429,18.347s-1.367,18.25-.268,27.37q1.544,12.807,3.087,25.615" transform="translate(-1356.995 -482.656)" fill="none" stroke="#001964" stroke-width="2"/>
      <path id="Trazado_13979" data-name="Trazado 13979" d="M1368.81,379c-4.453,11.381-12.371,24.246-21.736,43.049a38.9,38.9,0,0,0,15.372,1.843,69.824,69.824,0,0,0,6.7,28.647c3.238,6.826,7.768,13.283,14.175,17.286s14.44,4.052,21.565,1.541c7.958-2.8,10.432-6.268,15.875-17.154" transform="translate(-1347.074 -379)" fill="none" stroke="#001964" stroke-width="2"/>
      <path id="Trazado_13980" data-name="Trazado 13980" d="M1423.532,513.157c-3.344,4.538-11.195,4.557-14.56.035" transform="translate(-1378.344 -446.773)" fill="none" stroke="#001964" stroke-width="2"/>
    </g>
    <path id="Trazado_13981" data-name="Trazado 13981" d="M1595,566c.771,3.341,2.134,12.731,2.6,16.128.439,3.234.77,6.59,2.375,9.431,3.349,5.928,11.017,7.717,17.82,7.982s14.042-.295,19.97,3.055c9.034,5.106,11.3,16.968,11.8,27.333A203.377,203.377,0,0,1,1647,673.453" transform="translate(-348.547 -150.85)" fill="none" stroke="#001964" stroke-width="2"/>
    <circle id="Elipse_855" data-name="Elipse 855" cx="7.917" cy="7.917" r="7.917" transform="translate(1193.514 494.093)" fill="none" stroke="#001964" stroke-width="2"/>
    <circle id="Elipse_856" data-name="Elipse 856" cx="7.917" cy="7.917" r="7.917" transform="translate(1154.423 494.093)" fill="none" stroke="#001964" stroke-width="2"/>
    <path id="Trazado_13982" data-name="Trazado 13982" d="M1463.433,694.847v-10.19a19.874,19.874,0,0,0-19.874-19.874h0a19.874,19.874,0,0,0-19.874,19.874v10.19" transform="translate(-262.002 -200.753)" fill="none" stroke="#001964" stroke-width="2"/>
    <path id="Trazado_13983" data-name="Trazado 13983" d="M1480.4,572.967c-12.586,4.139-21.076,18.148-18.923,31.22.826,5.016,3,10.164,1.416,14.993" transform="translate(-280.924 -154.37)" fill="none" stroke="#001964" stroke-width="2"/>
    <path id="Trazado_13984" data-name="Trazado 13984" d="M1602.242,597.153c8.831,4.724,18.407,10.3,21.586,19.793,2.453,7.328.437,15.444-2.865,22.43s-7.854,13.349-10.864,20.467a52.469,52.469,0,0,0-3.607,27.608" transform="translate(-352.205 -166.588)" fill="none" stroke="#001964" stroke-width="2"/>
    <circle id="Elipse_857" data-name="Elipse 857" cx="11.381" cy="11.381" r="11.381" transform="translate(1243.491 521.308)" fill="none" stroke="#001964" stroke-width="2"/>
    <path id="Trazado_13985" data-name="Trazado 13985" d="M1486.707,617.611a121.892,121.892,0,0,1,28.828,23.472,246.734,246.734,0,0,1,30.889-21.077" transform="translate(-293.84 -176.923)" fill="none" stroke="#001964" stroke-width="2"/>
    <path id="Trazado_13986" data-name="Trazado 13986" d="M1502.457,626.068a54.653,54.653,0,0,0,48.841-.017" transform="translate(-301.796 -181.187)" fill="none" stroke="#001964" stroke-width="2"/>
    <path id="Trazado_13987" data-name="Trazado 13987" d="M1196.893,630.562l1.543-2.378a4.558,4.558,0,0,1,4.186-2.062l5.757.46a10.639,10.639,0,0,1,21.173,2.112l8.146.482a4.559,4.559,0,0,1,4.135,3.376l.735,2.76" transform="translate(-147.432 -176.614)" fill="none" stroke="#001964" stroke-width="2"/>
    <circle id="Elipse_858" data-name="Elipse 858" cx="3.464" cy="3.464" r="3.464" transform="translate(1068.07 447.56)" fill="none" stroke="#001964" stroke-width="2"/>
    <g id="Grupo_14447" data-name="Grupo 14447" transform="translate(905.052 410.696)">
      <g id="Grupo_14445" data-name="Grupo 14445" transform="translate(39.56)">
        <ellipse id="Elipse_859" data-name="Elipse 859" cx="39.833" cy="30.432" rx="39.833" ry="30.432" fill="none" stroke="#001964" stroke-width="2"/>
        <path id="Trazado_13988" data-name="Trazado 13988" d="M1065.448,626.506a49.292,49.292,0,0,1-53.789.353" transform="translate(-998.467 -592.113)" fill="none" stroke="#001964" stroke-width="2"/>
      </g>
      <g id="Grupo_14446" data-name="Grupo 14446" transform="translate(0 25.078)">
        <path id="Trazado_13989" data-name="Trazado 13989" d="M973.736,642.352c3.306,11.564,1.293,23.082-6.453,30.285-12.308,11.445-34.43,7.662-49.41-8.449s-17.146-38.449-4.838-49.893c7.985-7.425,20.1-8.441,31.719-3.838" transform="translate(-905.052 -607.681)" fill="none" stroke="#001964" stroke-width="2"/>
        <path id="Trazado_13990" data-name="Trazado 13990" d="M969.837,685.659a49.292,49.292,0,0,1-36.886-39.151" transform="translate(-919.146 -627.295)" fill="none" stroke="#001964" stroke-width="2"/>
      </g>
    </g>
    <g id="Grupo_14448" data-name="Grupo 14448" transform="matrix(0.719, 0.695, -0.695, 0.719, 16.63, 402.806)">
      <g id="Grupo_14445-2" data-name="Grupo 14445" transform="translate(39.56)">
        <ellipse id="Elipse_859-2" data-name="Elipse 859" cx="39.833" cy="30.432" rx="39.833" ry="30.432" fill="none" stroke="#001964" stroke-width="2"/>
        <path id="Trazado_13988-2" data-name="Trazado 13988" d="M1065.448,626.506a49.292,49.292,0,0,1-53.789.353" transform="translate(-998.467 -592.113)" fill="none" stroke="#001964" stroke-width="2"/>
      </g>
      <g id="Grupo_14446-2" data-name="Grupo 14446" transform="translate(0 25.078)">
        <path id="Trazado_13989-2" data-name="Trazado 13989" d="M973.736,642.352c3.306,11.564,1.293,23.082-6.453,30.285-12.308,11.445-34.43,7.662-49.41-8.449s-17.146-38.449-4.838-49.893c7.985-7.425,20.1-8.441,31.719-3.838" transform="translate(-905.052 -607.681)" fill="none" stroke="#001964" stroke-width="2"/>
        <path id="Trazado_13990-2" data-name="Trazado 13990" d="M969.837,685.659a49.292,49.292,0,0,1-36.886-39.151" transform="translate(-919.146 -627.295)" fill="none" stroke="#001964" stroke-width="2"/>
      </g>
    </g>
    <g id="Grupo_14449" data-name="Grupo 14449" transform="matrix(-0.719, 0.695, -0.695, -0.719, 85.557, 395.142)">
      <g id="Grupo_14445-3" data-name="Grupo 14445" transform="translate(39.56 35.785)">
        <ellipse id="Elipse_859-3" data-name="Elipse 859" cx="39.833" cy="30.432" rx="39.833" ry="30.432" fill="none" stroke="#001964" stroke-width="2"/>
        <path id="Trazado_13988-3" data-name="Trazado 13988" d="M53.789,8.161A47.01,47.01,0,0,0,26.642,0,47.2,47.2,0,0,0,0,7.808" transform="translate(13.191 18.308)" fill="none" stroke="#001964" stroke-width="2"/>
      </g>
      <g id="Grupo_14446-3" data-name="Grupo 14446" transform="translate(0 0)">
        <path id="Trazado_13989-3" data-name="Trazado 13989" d="M68.684,36.9c3.306-11.564,1.293-23.082-6.453-30.284C49.922-4.831,27.8-1.048,12.82,15.063S-4.326,53.512,7.982,64.956c7.985,7.425,20.1,8.441,31.719,3.838" fill="none" stroke="#001964" stroke-width="2"/>
        <path id="Trazado_13990-3" data-name="Trazado 13990" d="M36.886,0A47.005,47.005,0,0,0,12.424,14.323,47.2,47.2,0,0,0,0,39.151" transform="translate(13.805 13.207)" fill="none" stroke="#001964" stroke-width="2"/>
      </g>
    </g>
    <g id="Grupo_14450" data-name="Grupo 14450" transform="translate(30.965 28.913)">
      <line id="Línea_9301" data-name="Línea 9301" x2="30.545" transform="translate(993.314 320.258)" fill="none" stroke="#001964" stroke-width="2"/>
      <line id="Línea_9312" data-name="Línea 9312" x2="30.545" transform="translate(1029.913 320.258)" fill="none" stroke="#001964" stroke-width="2"/>
      <line id="Línea_9307" data-name="Línea 9307" x2="30.545" transform="translate(993.314 328.513)" fill="none" stroke="#001964" stroke-width="2"/>
      <line id="Línea_9311" data-name="Línea 9311" x2="30.545" transform="translate(1029.913 328.513)" fill="none" stroke="#001964" stroke-width="2"/>
      <line id="Línea_9306" data-name="Línea 9306" x2="30.545" transform="translate(993.314 312.003)" fill="none" stroke="#001964" stroke-width="2"/>
      <line id="Línea_9313" data-name="Línea 9313" x2="30.545" transform="translate(1029.913 312.003)" fill="none" stroke="#001964" stroke-width="2"/>
      <line id="Línea_9302" data-name="Línea 9302" x2="30.545" transform="translate(993.314 336.769)" fill="none" stroke="#001964" stroke-width="2"/>
      <line id="Línea_9310" data-name="Línea 9310" x2="30.545" transform="translate(1029.913 336.769)" fill="none" stroke="#001964" stroke-width="2"/>
      <line id="Línea_9303" data-name="Línea 9303" x2="30.545" transform="translate(993.314 344.389)" fill="none" stroke="#001964" stroke-width="2"/>
      <line id="Línea_9309" data-name="Línea 9309" x2="30.545" transform="translate(1029.913 344.389)" fill="none" stroke="#001964" stroke-width="2"/>
      <line id="Línea_9304" data-name="Línea 9304" x2="30.318" transform="translate(993.314 352.644)" fill="none" stroke="#001964" stroke-width="2"/>
      <line id="Línea_9308" data-name="Línea 9308" x2="20.39" transform="translate(1029.913 352.644)" fill="none" stroke="#001964" stroke-width="2"/>
      <line id="Línea_9305" data-name="Línea 9305" x2="23.904" transform="translate(993.314 302.339)" fill="none" stroke="#001964" stroke-width="2"/>
    </g>
    <g id="Grupo_14451" data-name="Grupo 14451" transform="translate(261.085 -129.282)">
      <path id="Trazado_13992" data-name="Trazado 13992" d="M1212.2,594.714c.361-15.617-4.385-26.535-17.682-33.8-8.018-3.757-16.841-5.476-33.048.877s-22.516,18.259-25.837,27.513" transform="translate(-177.633 -336.307) rotate(16)" fill="none" stroke="#001964" stroke-width="2"/>
    </g>
  </g>
</svg>
