<svg xmlns="http://www.w3.org/2000/svg" width="47.02" height="35.131" viewBox="0 0 47.02 35.131">
  <path id="hemo_ico" d="M138.548,140.625a1.3,1.3,0,0,0-.934-.4h0a1.293,1.293,0,0,0-.934.4h0c-5.663,5.968-4.718,9.469-2.929,11.355a5.4,5.4,0,0,0,7.727,0C143.265,150.094,144.21,146.593,138.548,140.625Zm1.6,10.1a3.575,3.575,0,0,1-5.075,0c-2.141-2.257.1-5.743,2.537-8.418C140.053,144.978,142.291,148.465,140.15,150.721Zm-8.458-9.348a3.793,3.793,0,0,0-.567-1.992h4.75a6.559,6.559,0,0,0,3.319-.487c3.726-2.054,1.668-7.008-2.1-7.154-3.357-.129-6.746,0-10.105,0h-8.54c1.955-2.542,5.755-6.76,1.908-9.418-3.194-2.207-5.4,3.109-7.3,4.818a80.385,80.385,0,0,1-9.184,6.869c-.277.186-.887.446-.741.477-.5.035-1.058-.03-1.541-.03H96.72a.915.915,0,0,0,0,1.828h4.459a7.29,7.29,0,0,0,2.9-.222,23.026,23.026,0,0,0,3.6-2.465c1.731-1.224,3.442-2.483,5.087-3.822a18.4,18.4,0,0,0,3.7-3.609c.725-1.057,1.881-3.636,3.3-1.8,1.115,1.445-.578,3.818-1.437,4.9-.648.817-1.549,1.485-2.146,2.327a3.861,3.861,0,0,0-.549,2.569c-.016,2.925-1.036,5.659-3.587,7.286-.989.63-.074,2.213.923,1.578a9.168,9.168,0,0,0,3.913-5.011c.431-1.324.273-3.044.612-4.447h9.047c3.442,0,7.2-.431,10.616,0,1.616.2,3.111,1.908,1.617,3.4-.76.76-1.355.54-2.164.583-1.721.092-3.471,0-5.194,0H120.316a3.817,3.817,0,0,0-2.725,6.494,3.809,3.809,0,0,0-.575,6.482,3.578,3.578,0,0,0-1.027,4.278,16.235,16.235,0,0,1-7.8-1.129,19.481,19.481,0,0,1-2.244-1.633c-1.141-.639-3-.268-4.273-.268H96.72a.915.915,0,0,0,0,1.828h5.17a11.653,11.653,0,0,0,2.964,0l.015,0c2.711,3.377,8.928,3.268,12.725,2.911a3.576,3.576,0,0,0,1.67.414H125.5a3.592,3.592,0,0,0,2.747-5.91,3.812,3.812,0,0,0,1.325-6.225A3.821,3.821,0,0,0,131.692,141.374Zm-27.175,11.789c-.015.033.148.2.235.3C104.575,153.435,104.429,153.362,104.517,153.163ZM125.5,155.1h-6.231a1.746,1.746,0,0,1-.789-.194.681.681,0,0,0-.318-.206,1.76,1.76,0,0,1,1.106-3.134H125.5a1.767,1.767,0,1,1,0,3.534Zm1.347-5.641h-7.555a1.992,1.992,0,1,1,0-3.985h7.555a1.992,1.992,0,0,1,0,3.985Zm1.028-6.091h-7.555a1.992,1.992,0,0,1,0-3.985h7.555a1.992,1.992,0,1,1,0,3.985Z" transform="translate(-95.837 -121.795)" fill="#001965"/>
</svg>
