<svg xmlns="http://www.w3.org/2000/svg" width="410.854" height="227.309" viewBox="0 0 410.854 227.309">
  <g id="Grupo_14454" data-name="Grupo 14454" transform="translate(-495 -484.329)">
    <g id="Grupo_14454-2" data-name="Grupo 14454" transform="translate(756.163 490.935)">
      <path id="Trazado_13993" data-name="Trazado 13993" d="M1159.634,556.973c4.465-.355,9.095-.76,12.982-2.984s6.8-6.827,5.6-11.143-7.674-6.515-10.454-3c-4.041-6.52-8.157-13.226-9.623-20.755s.268-16.177,6.253-20.975a69.717,69.717,0,0,0-45.557,24.656,34.472,34.472,0,0,0,9.032,10.33,61.889,61.889,0,0,0-12.574,22.845c-1.915,6.416-2.761,13.356-.915,19.792s6.777,12.248,13.29,13.8,14.239-2.156,15.967-8.624c1.2,9.483,7.731,21.1,6.76,30.612s-8.8,18.393-18.341,18.9c-8.107.432-15.87-4.765-23.917-3.694-8.071,1.074-14.165,8.414-16.334,16.261s-1.211,16.176-.237,24.259q1.368,11.351,2.736,22.7" transform="translate(-1090.496 -498.112)" fill="none" stroke="#001964" stroke-width="2"/>
      <path id="Trazado_13994" data-name="Trazado 13994" d="M1179.1,639.46c-4.893,1.007-10.076-3.637-9.61-8.612" transform="translate(-1134.827 -572.635)" fill="none" stroke="#001964" stroke-width="2"/>
    </g>
    <path id="Trazado_13995" data-name="Trazado 13995" d="M816.467,945.541H701.912V925.366A8.362,8.362,0,0,0,693.55,917h0a8.362,8.362,0,0,0-8.363,8.362v20.174h-9.251v-8.179a6.089,6.089,0,0,0-6.089-6.089h0a6.089,6.089,0,0,0-6.089,6.089v8.179h-7.228V927.262a8.228,8.228,0,0,0-8.228-8.228h0a8.228,8.228,0,0,0-8.228,8.228v18.279H495" transform="translate(0 -242.358)" fill="none" stroke="#001964" stroke-width="2"/>
    <path id="Trazado_13996" data-name="Trazado 13996" d="M1298.207,692.576a100.111,100.111,0,0,1,11.324,34.45c.39,2.866.682,5.841,2.105,8.359,2.969,5.254,9.764,6.839,15.794,7.074s12.447-.261,17.7,2.708c8.007,4.525,10.012,15.038,10.459,24.224a180.243,180.243,0,0,1-2.274,38.576" transform="translate(-450.95 -116.356)" fill="none" stroke="#001964" stroke-width="2"/>
    <path id="Trazado_13997" data-name="Trazado 13997" d="M1280.011,498.454c10.4-1.3,21,3.157,28.645,10.335s12.6,16.823,15.811,26.8c2.261,7.024,3.733,14.552,2.2,21.77-1.615,7.606-6.486,14.235-12.479,19.189s-13.08,8.395-20.24,11.429" transform="translate(-440.734 -7.242)" fill="none" stroke="#001964" stroke-width="2"/>
    <g id="Grupo_14455" data-name="Grupo 14455" transform="translate(700.487 485.329)">
      <rect id="Rectángulo_2413" data-name="Rectángulo 2413" width="69.293" height="48.681" rx="24.179" fill="none" stroke="#001964" stroke-width="2"/>
      <path id="Trazado_13998" data-name="Trazado 13998" d="M1045.536,524.946l-21.49-12.407v24.814Z" transform="translate(-997.513 -500.606)" fill="none" stroke="#001964" stroke-width="2"/>
    </g>
    <g id="Grupo_14456" data-name="Grupo 14456" transform="translate(696.152 563.291)">
      <path id="Trazado_13999" data-name="Trazado 13999" d="M996.35,774.666V754.025a3.013,3.013,0,1,1,3.013,3.013h-11.3a3.013,3.013,0,1,1,3.013-3.013v20.641" transform="translate(-971.282 -712.455)" fill="none" stroke="#001964" stroke-width="2"/>
      <path id="Trazado_14000" data-name="Trazado 14000" d="M1000.2,730.291a16.443,16.443,0,1,0-29.6,9.856,14.939,14.939,0,0,1,2.917,8.981v4.529h20.481v-4.583a14.863,14.863,0,0,1,2.92-8.93A16.355,16.355,0,0,0,1000.2,730.291Z" transform="translate(-961.325 -691.59)" fill="none" stroke="#001964" stroke-width="2"/>
      <rect id="Rectángulo_2414" data-name="Rectángulo 2414" width="26.539" height="6.058" transform="translate(9.16 62.067)" fill="none" stroke="#001964" stroke-width="2"/>
      <rect id="Rectángulo_2415" data-name="Rectángulo 2415" width="18.336" height="4.327" transform="translate(13.262 68.125)" fill="none" stroke="#001964" stroke-width="2"/>
      <line id="Línea_9314" data-name="Línea 9314" y2="12.928" transform="translate(22.43)" fill="none" stroke="#001964" stroke-width="2"/>
      <line id="Línea_9315" data-name="Línea 9315" x2="6.851" y2="10.964" transform="translate(0 4.919)" fill="none" stroke="#001964" stroke-width="2"/>
      <line id="Línea_9316" data-name="Línea 9316" x1="6.851" y2="10.964" transform="translate(38.155 4.919)" fill="none" stroke="#001964" stroke-width="2"/>
    </g>
    <path id="Trazado_14001" data-name="Trazado 14001" d="M933.8,882.09a7.017,7.017,0,0,1,14.034,0c0,3.876-3.141,8.333-7.017,8.333S933.8,885.966,933.8,882.09Z" transform="translate(-246.356 -218.817)" fill="none" stroke="#001964" stroke-width="2"/>
    <path id="Trazado_14002" data-name="Trazado 14002" d="M829.8,886.09a7.017,7.017,0,1,1,14.034,0c0,3.876-3.141,8.333-7.017,8.333S829.8,889.966,829.8,886.09Z" transform="translate(-187.967 -221.062)" fill="none" stroke="#001964" stroke-width="2"/>
    <path id="Trazado_14003" data-name="Trazado 14003" d="M883.825,924.385a4.812,4.812,0,1,1,9.623,0c0,2.657-2.154,5.714-4.812,5.714S883.825,927.042,883.825,924.385Z" transform="translate(-218.301 -243.8)" fill="none" stroke="#001964" stroke-width="2"/>
    <path id="Trazado_14004" data-name="Trazado 14004" d="M878.124,859.426a8.716,8.716,0,0,0-7.1-2.222,5.717,5.717,0,0,0-4.733,5.282c.021,2.9,2.639,5.1,5.26,6.346s5.571,2.031,7.625,4.079a24.022,24.022,0,0,1,5.293-4.929c2-1.365,4.4-2.659,5.056-4.994.792-2.821-1.7-5.8-4.589-6.308s-5.813.893-8.008,2.835" transform="translate(-208.455 -208.43)" fill="none" stroke="#001964" stroke-width="2"/>
    <circle id="Elipse_860" data-name="Elipse 860" cx="7.017" cy="7.017" r="7.017" transform="translate(809.361 666.344)" fill="none" stroke="#001964" stroke-width="2"/>
    <circle id="Elipse_861" data-name="Elipse 861" cx="7.017" cy="7.017" r="7.017" transform="translate(774.714 666.344)" fill="none" stroke="#001964" stroke-width="2"/>
    <path id="Trazado_14005" data-name="Trazado 14005" d="M1182.7,863.962v-9.031a17.614,17.614,0,0,0-17.614-17.614h0a17.614,17.614,0,0,0-17.614,17.614v9.031" transform="translate(-366.319 -197.619)" fill="none" stroke="#001964" stroke-width="2"/>
    <path id="Trazado_14006" data-name="Trazado 14006" d="M1201.993,745.5c-11.155,3.669-18.68,16.084-16.772,27.671.732,4.445,2.663,9.009,1.255,13.289" transform="translate(-387.349 -146.07)" fill="none" stroke="#001964" stroke-width="2"/>
    <path id="Trazado_14007" data-name="Trazado 14007" d="M1326.026,769.687c7.827,4.186,16.314,9.126,19.131,17.543,2.175,6.495.387,13.688-2.54,19.88s-6.961,11.832-9.629,18.139a46.5,46.5,0,0,0-3.2,24.47" transform="translate(-466.568 -159.649)" fill="none" stroke="#001964" stroke-width="2"/>
    <circle id="Elipse_862" data-name="Elipse 862" cx="10.087" cy="10.087" r="10.087" transform="translate(853.655 690.465)" fill="none" stroke="#001964" stroke-width="2"/>
    <g id="Grupo_14459" data-name="Grupo 14459" transform="translate(616.875 520.269)">
      <g id="Grupo_14457" data-name="Grupo 14457" transform="translate(16.227 14.473)">
        <path id="Trazado_14008" data-name="Trazado 14008" d="M822.181,646.344a12.279,12.279,0,0,1-8.082-21.529l27.237-23.785a12.28,12.28,0,1,1,16.154,18.5l-27.236,23.785A12.233,12.233,0,0,1,822.181,646.344Z" transform="translate(-809.896 -597.999)" fill="none" stroke="#001964" stroke-linecap="round" stroke-linejoin="round" stroke-width="2"/>
      </g>
      <path id="Trazado_14009" data-name="Trazado 14009" d="M868.3,649.163s4.824-18.858-16.56-18.213" transform="translate(-817.162 -602.017)" fill="none" stroke="#001964" stroke-linecap="round" stroke-linejoin="round" stroke-width="2"/>
      <g id="Grupo_14458" data-name="Grupo 14458" transform="translate(0)">
        <path id="Trazado_14010" data-name="Trazado 14010" d="M812.773,585.075l-19.52-17.046a12.28,12.28,0,1,0-16.154,18.5l16.628,14.521" transform="translate(-772.896 -564.999)" fill="none" stroke="#001964" stroke-linecap="round" stroke-linejoin="round" stroke-width="2"/>
      </g>
      <path id="Trazado_14011" data-name="Trazado 14011" d="M810.8,616.163s-4.824-18.858,16.56-18.213" transform="translate(-793.914 -583.49)" fill="none" stroke="#001964" stroke-linecap="round" stroke-linejoin="round" stroke-width="2"/>
    </g>
    <g id="Grupo_14460" data-name="Grupo 14460" transform="translate(534.251 557.292)">
      <rect id="Rectángulo_2416" data-name="Rectángulo 2416" width="14.473" height="46.049" transform="matrix(0.721, 0.693, -0.693, 0.721, 63.939, 8.478)" fill="none" stroke="#001964" stroke-linecap="round" stroke-linejoin="round" stroke-width="2"/>
      <path id="Trazado_14012" data-name="Trazado 14012" d="M659.549,760.529l-3.039,3.162-5.692-5.47,3.039-3.162" transform="translate(-621.733 -708.728)" fill="none" stroke="#001964" stroke-linecap="round" stroke-linejoin="round" stroke-width="2"/>
      <path id="Trazado_14013" data-name="Trazado 14013" d="M739.871,658.586l8.813-9.17,5.376,5.166-8.813,9.17" transform="translate(-671.731 -649.416)" fill="none" stroke="#001964" stroke-linecap="round" stroke-linejoin="round" stroke-width="2"/>
      <circle id="Elipse_863" data-name="Elipse 863" cx="4.605" cy="4.605" r="4.605" transform="translate(46.926 27.228)" fill="none" stroke="#001964" stroke-linecap="round" stroke-linejoin="round" stroke-width="2"/>
      <path id="Trazado_14014" data-name="Trazado 14014" d="M584.5,888.876h93.853L673.09,875.5H590.2Z" transform="translate(-584.5 -776.348)" fill="none" stroke="#001964" stroke-linecap="round" stroke-linejoin="round" stroke-width="2"/>
      <path id="Trazado_14015" data-name="Trazado 14015" d="M615.093,769.731l22.177,19.735H659l22.932-22.932V740.95l-18.688-18.688-8.373,8.373,15.22,15.22V761.63l-21.8,21.8-15.39-13.7" transform="translate(-601.676 -690.315)" fill="none" stroke="#001964" stroke-linecap="round" stroke-linejoin="round" stroke-width="2"/>
      <rect id="Rectángulo_2417" data-name="Rectángulo 2417" width="33.331" height="4.386" transform="translate(6.578 72.838)" fill="none" stroke="#001964" stroke-linecap="round" stroke-linejoin="round" stroke-width="2"/>
    </g>
  </g>
</svg>
