<svg xmlns="http://www.w3.org/2000/svg" width="355" height="59.007" viewBox="0 0 355 59.007">
  <g id="logo" transform="translate(-126.051 -214.536)">
    <g id="Grupo_15021" data-name="Grupo 15021" transform="translate(126.051 214.536)">
      <path id="Trazado_57380" data-name="Trazado 57380" d="M150.722,293.548h9.3" transform="translate(-135.56 -245.309)" fill="none" stroke="#001965" stroke-width="4"/>
      <path id="Trazado_57381" data-name="Trazado 57381" d="M143.736,263.354a38.46,38.46,0,0,0-2.222,10.386" transform="translate(-132.011 -233.548)" fill="none" stroke="#3b97de" stroke-width="4"/>
      <path id="Trazado_57382" data-name="Trazado 57382" d="M145.13,263.354" transform="translate(-133.405 -233.514)" fill="none" stroke="#3b97de" stroke-width="4"/>
      <path id="Trazado_57383" data-name="Trazado 57383" d="M169.055,229.844a31.051,31.051,0,0,0-12.013,8.384" transform="translate(-137.997 -220.495)" fill="none" stroke="#3b97de" stroke-width="4"/>
      <path id="Trazado_57384" data-name="Trazado 57384" d="M212.763,236.612a31.331,31.331,0,0,0-11.97-7.3" transform="translate(-154.86 -220.288)" fill="none" stroke="#3b97de" stroke-width="4"/>
      <path id="Trazado_57385" data-name="Trazado 57385" d="M237.087,273a38.16,38.16,0,0,0-2.678-10.965" transform="translate(-167.818 -233.036)" fill="none" stroke="#3b97de" stroke-width="4"/>
      <path id="Trazado_57386" data-name="Trazado 57386" d="M214.237,293.548H222" transform="translate(-160.042 -245.309)" fill="none" stroke="#001965" stroke-width="4"/>
      <path id="Trazado_57387" data-name="Trazado 57387" d="M208.6,262.135l4.881-3.283" transform="translate(-157.871 -231.772)" fill="none" stroke="#001965" stroke-width="4"/>
      <path id="Trazado_57388" data-name="Trazado 57388" d="M164.6,262.135l-4.881-3.283" transform="translate(-139.03 -231.772)" fill="none" stroke="#001965" stroke-width="4"/>
      <g id="Grupo_15014" data-name="Grupo 15014" transform="translate(86.132 6.206)">
        <g id="Grupo_15013" data-name="Grupo 15013">
          <g id="Grupo_15012" data-name="Grupo 15012">
            <g id="Grupo_15011" data-name="Grupo 15011">
              <path id="Trazado_57389" data-name="Trazado 57389" d="M305.9,274.152h-9.443V255.03h-17.7v19.122h-9.442V229.824h9.442v17.384h17.7V229.824H305.9Z" transform="translate(-269.318 -226.635)" fill="#001965"/>
              <path id="Trazado_57390" data-name="Trazado 57390" d="M351.2,245.9q7.066,0,11.193,4.034t4.127,11.474v4.5H344.514a8.853,8.853,0,0,0,2.345,6.191,8.255,8.255,0,0,0,6.159,2.25,25.457,25.457,0,0,0,5.972-.656,28.508,28.508,0,0,0,5.6-2.032v7.191a23.257,23.257,0,0,1-5.315,1.844,32.259,32.259,0,0,1-6.691.594,20.553,20.553,0,0,1-9.067-1.908,14.215,14.215,0,0,1-6.19-5.752,19.15,19.15,0,0,1-2.251-9.787A21.82,21.82,0,0,1,337.1,253.9a13.75,13.75,0,0,1,5.659-6A17.2,17.2,0,0,1,351.2,245.9Zm.063,6.629a6.1,6.1,0,0,0-4.5,1.751,8.484,8.484,0,0,0-2.064,5.44H357.77a8.432,8.432,0,0,0-1.657-5.127A5.74,5.74,0,0,0,351.267,252.529Z" transform="translate(-294.663 -233.149)" fill="#001965"/>
              <path id="Trazado_57391" data-name="Trazado 57391" d="M434.891,245.9q5.815,0,8.786,2.971t2.97,9.535v22.261H437.33V260.72q0-7.377-5.128-7.378-3.691,0-5.253,2.626t-1.563,7.566v17.133h-9.317V260.72q0-7.377-5.128-7.378-3.877,0-5.346,2.907t-1.469,8.348v16.07h-9.317V246.526h7.129l1.251,4.377h.5a9.15,9.15,0,0,1,4.283-3.814,14,14,0,0,1,5.659-1.189,14.863,14.863,0,0,1,6.346,1.219,8.862,8.862,0,0,1,4.034,3.783h.812a9.1,9.1,0,0,1,4.346-3.814A14.442,14.442,0,0,1,434.891,245.9Z" transform="translate(-317.689 -233.149)" fill="#001965"/>
              <path id="Trazado_57392" data-name="Trazado 57392" d="M571.092,245.195h-14.6v26.957h-9.317V245.195H542.05v-4.472l5.127-2.485v-2.485a12.911,12.911,0,0,1,1.469-6.74,7.979,7.979,0,0,1,4.19-3.385,17.759,17.759,0,0,1,6.409-.994,26.243,26.243,0,0,1,6.477.839q-1.053,3.349-2.1,6.7a7.95,7.95,0,0,0-3.371-.208,3.991,3.991,0,0,0-2.845,1.18,4.749,4.749,0,0,0-.907,2.981v2.112h14.6Z" transform="translate(-374.443 -224.635)" fill="#001965"/>
              <path id="Trazado_57393" data-name="Trazado 57393" d="M594.422,246.918v34.141H585.1V246.918Z" transform="translate(-391.039 -233.542)" fill="#001965"/>
              <path id="Trazado_57394" data-name="Trazado 57394" d="M619.316,272.348H610V225.143h9.317Z" transform="translate(-400.634 -224.831)" fill="#001965"/>
              <path id="Trazado_57395" data-name="Trazado 57395" d="M639.829,225.143a6.46,6.46,0,0,1,3.564.963q1.5.963,1.5,3.571a3.927,3.927,0,0,1-1.5,3.541,6.945,6.945,0,0,1-7.16,0,3.963,3.963,0,0,1-1.469-3.541q0-2.609,1.469-3.571A6.42,6.42,0,0,1,639.829,225.143Zm4.628,13.292v33.913h-9.318V238.435Z" transform="translate(-410.18 -224.831)" fill="#001965"/>
              <path id="Trazado_57396" data-name="Trazado 57396" d="M673.529,245.8q6.878,0,10.536,2.97t3.658,9.1v22.76h-6.5L679.406,276h-.25a14.513,14.513,0,0,1-4.628,4,14.838,14.838,0,0,1-6.691,1.251,11.07,11.07,0,0,1-7.566-2.627q-3-2.626-3-8.191,0-5.441,3.815-8t11.443-2.877l5.94-.187v-1.5a5.018,5.018,0,0,0-1.407-3.94,5.682,5.682,0,0,0-3.909-1.251,16.765,16.765,0,0,0-4.877.719,40.1,40.1,0,0,0-4.752,1.782l-3.064-6.316a28.459,28.459,0,0,1,6.066-2.22A28.758,28.758,0,0,1,673.529,245.8Zm4.94,19.009-3.626.125q-4.5.126-6.253,1.626a4.935,4.935,0,0,0-1.751,3.939,3.49,3.49,0,0,0,1.251,3.033,5.4,5.4,0,0,0,3.252.906,7.478,7.478,0,0,0,5.065-1.782,6.29,6.29,0,0,0,2.064-5.033Z" transform="translate(-418.855 -233.111)" fill="#001965"/>
            </g>
            <path id="Trazado_57397" data-name="Trazado 57397" d="M588.786,225.143a6.428,6.428,0,0,1,3.564.97q1.5.97,1.5,3.6a3.965,3.965,0,0,1-1.5,3.564,6.905,6.905,0,0,1-7.16,0,4,4,0,0,1-1.469-3.564,4.42,4.42,0,0,1,.732-2.882,3.551,3.551,0,0,1,.737-.714A5.76,5.76,0,0,1,588.786,225.143Z" transform="translate(-390.504 -224.831)" fill="#001965"/>
          </g>
        </g>
      </g>
      <g id="Grupo_15015" data-name="Grupo 15015" transform="translate(0 39.248)">
        <path id="Trazado_57398" data-name="Trazado 57398" d="M140.18,300.713l.857,2.111.852-2.128a1.994,1.994,0,0,1-1.71.017Z" transform="translate(-131.497 -287.312)" fill="#3b97de"/>
        <path id="Trazado_57399" data-name="Trazado 57399" d="M143.886,301.619l-.141-.27-.326.814Z" transform="translate(-132.745 -287.564)" fill="#3b97de"/>
        <path id="Trazado_57400" data-name="Trazado 57400" d="M128.625,292.75a1.744,1.744,0,0,1,.994-1.013l3.189-1.233.432-.337a6.081,6.081,0,0,0,.138-.967,5.025,5.025,0,0,1-.855-1.113.278.278,0,0,1-.02-.044l-.272-.739a.127.127,0,0,0-.033-.049,2.129,2.129,0,0,1-.682-1.681.944.944,0,0,1,.162-.413c-.015-.661-.031-1.118-.043-1.295v-.024c0-2.042.893-3.264,2.4-3.269a.448.448,0,0,0,.294-.095,2.04,2.04,0,0,1,1.22-.291,3.873,3.873,0,0,1,3.381,1.4,3.82,3.82,0,0,1,.627,2.255.385.385,0,0,1,0,.045c-.021.159-.034.621-.039,1.278a.94.94,0,0,1,.16.409,2.129,2.129,0,0,1-.682,1.683.116.116,0,0,0-.032.047l-.272.739a.35.35,0,0,1-.02.044,5.027,5.027,0,0,1-.856,1.114,6.381,6.381,0,0,0,.111.964l.455.344,3.213,1.226a1.744,1.744,0,0,1,1.009,1.019,18.233,18.233,0,0,1,.506,2.826,9.878,9.878,0,1,0-14.9-.638A14.352,14.352,0,0,1,128.625,292.75Z" transform="translate(-126.051 -278.918)" fill="#3b97de"/>
        <path id="Trazado_57401" data-name="Trazado 57401" d="M138.978,301.63l.447.521-.314-.774Z" transform="translate(-131.034 -287.575)" fill="#3b97de"/>
        <path id="Trazado_57402" data-name="Trazado 57402" d="M142.083,296.595a2.067,2.067,0,0,1-.99.339l-.067.01a3.364,3.364,0,0,1-.981,0l-.068-.01a2.047,2.047,0,0,1-1-.347c-.026.191-.06.375-.1.565l.342.843a1.7,1.7,0,0,0,2.632-.033l.325-.811A5.146,5.146,0,0,1,142.083,296.595Z" transform="translate(-130.993 -285.728)" fill="#3b97de"/>
        <path id="Trazado_57403" data-name="Trazado 57403" d="M135.257,304.511a.459.459,0,1,0,.459-.467A.463.463,0,0,0,135.257,304.511Z" transform="translate(-129.599 -288.603)" fill="#3b97de"/>
        <path id="Trazado_57404" data-name="Trazado 57404" d="M144.894,299.607v-1.056l-.1-.079-.5,1.242.034-.007Z" transform="translate(-133.082 -286.456)" fill="#3b97de"/>
        <path id="Trazado_57405" data-name="Trazado 57405" d="M141.891,290.708l.264-.715a.816.816,0,0,1,.224-.331,1.431,1.431,0,0,0,.454-1.047.28.28,0,0,0-.023-.082.69.69,0,0,1-.621-.312,2.044,2.044,0,0,1-.28-.546,6.311,6.311,0,0,1-4.224-1.142,5,5,0,0,1-.143.481,3.665,3.665,0,0,1-.84,1.4.6.6,0,0,1-.609.171c0,.01,0,.022-.007.034a1.434,1.434,0,0,0,.455,1.048.841.841,0,0,1,.224.33l.264.715a4.718,4.718,0,0,0,.887,1.086,4.906,4.906,0,0,0,.4.337,1.376,1.376,0,0,0,.694.223l.066.01a2.252,2.252,0,0,0,.387.028,2.3,2.3,0,0,0,.386-.028l.061-.009a1.379,1.379,0,0,0,.7-.224,4.868,4.868,0,0,0,.4-.336A4.714,4.714,0,0,0,141.891,290.708Z" transform="translate(-129.917 -281.853)" fill="#3b97de"/>
        <path id="Trazado_57406" data-name="Trazado 57406" d="M143.667,300.937a1.03,1.03,0,0,0-.6-.6l-2.137-.816c.024.066.047.133.065.2a2.511,2.511,0,0,1,.09.666v1.231A1.4,1.4,0,0,1,142.1,302.9l.163,1.144a.751.751,0,0,1-.172.594.742.742,0,0,1-.562.261h-.342l0-.712h.342a.031.031,0,0,0,.023-.012.037.037,0,0,0,.008-.03l-.163-1.147v-.008c-.031-.261-.155-.7-.658-.694h-.007a.68.68,0,0,0-.657.694v.008l-.164,1.147a.04.04,0,0,0,.009.03.031.031,0,0,0,.023.012h.342l0,.712h-.342a.748.748,0,0,1-.734-.855l.163-1.144a1.4,1.4,0,0,1,1.012-1.273v-1.232a1.809,1.809,0,0,0-.059-.456v.376a.356.356,0,0,1-.295.351l-.382.067.036.069a.355.355,0,0,1-.045.4l-2.026,2.359a.307.307,0,0,1-.031.031l-.006.006a.368.368,0,0,1-.044.032l0,0h0l-.041.021-.01,0-.031.011-.015,0-.029.006-.014,0a.321.321,0,0,1-.042,0h0a.3.3,0,0,1-.041,0l-.015,0-.029-.006-.015,0-.031-.01-.01,0a.313.313,0,0,1-.041-.021h0l0,0a.382.382,0,0,1-.044-.033l-.007-.006a.309.309,0,0,1-.031-.032l-2.026-2.359a.356.356,0,0,1-.045-.4l.036-.069-.382-.067a.356.356,0,0,1-.294-.351v-.452c-.008.026-.017.052-.023.079a1.823,1.823,0,0,0-.056.449v1.262a1.17,1.17,0,1,1-.712-.007v-1.255a2.535,2.535,0,0,1,.078-.625,2.257,2.257,0,0,1,.073-.229l-2.089.808a1.026,1.026,0,0,0-.586.591,18.138,18.138,0,0,0-.469,2.663,9.849,9.849,0,0,0,13.633.547A21.628,21.628,0,0,0,143.667,300.937Z" transform="translate(-127.792 -286.861)" fill="#3b97de"/>
        <path id="Trazado_57407" data-name="Trazado 57407" d="M137.886,298.544v1.066l.568.1.014,0-.5-1.232Z" transform="translate(-130.613 -286.459)" fill="#3b97de"/>
        <path id="Trazado_57408" data-name="Trazado 57408" d="M136.953,285.083a4.29,4.29,0,0,0,.179-.676.5.5,0,0,1,.393-.387.544.544,0,0,1,.463.1,5.592,5.592,0,0,0,4.111,1.133.475.475,0,0,1,.53.366,1.352,1.352,0,0,0,.124.337c.006-.365.017-.712.037-.89a3.119,3.119,0,0,0-.5-1.822,3.217,3.217,0,0,0-2.8-1.1h0a1.348,1.348,0,0,0-.85.187,1.142,1.142,0,0,1-.663.2,1.416,1.416,0,0,0-1.374.894,4.1,4.1,0,0,0-.313,1.649c.014.205.027.653.037,1.085A2.961,2.961,0,0,0,136.953,285.083Z" transform="translate(-130 -280.161)" fill="#3b97de"/>
      </g>
      <g id="Grupo_15016" data-name="Grupo 15016" transform="translate(20.7 21.555)">
        <path id="Trazado_57409" data-name="Trazado 57409" d="M199.2,271.454a1.3,1.3,0,0,0,0-2.592Z" transform="translate(-174.945 -257.349)" fill="#001965"/>
        <path id="Trazado_57410" data-name="Trazado 57410" d="M164.625,278.482a5.333,5.333,0,0,1,3.155-4.872l7.149-2.772v-1.588a5.54,5.54,0,0,1-2.243-3.793,2.67,2.67,0,0,1-2.4-2.522,2.29,2.29,0,0,1,.616-1.53v-2.342a7.407,7.407,0,1,1,14.815,0v2.29a2.378,2.378,0,0,1,.616,1.581,2.669,2.669,0,0,1-2.4,2.522,5.6,5.6,0,0,1-2.122,3.7v1.676l7.146,2.767.011,0a5.333,5.333,0,0,1,3.155,4.872h0v2.071a18.422,18.422,0,1,0-27.5.5Z" transform="translate(-159.734 -250.128)" fill="#001965"/>
        <path id="Trazado_57411" data-name="Trazado 57411" d="M187.225,274.585h.01a4.411,4.411,0,0,0,4.4-4.4v-4.339c-.151-.185-.626-.678-1.485-1.6a12.767,12.767,0,0,1-7.47,2.015v3.925A4.433,4.433,0,0,0,187.225,274.585Z" transform="translate(-168.578 -255.568)" fill="#001965"/>
        <path id="Trazado_57412" data-name="Trazado 57412" d="M181.536,261.322a11.519,11.519,0,0,0,6.967-1.876,1.066,1.066,0,0,1,1.413.225c1.4,1.507,1.724,1.794,1.8,2.1a1.408,1.408,0,0,1,.025.353,3.116,3.116,0,0,1,.538.135v-1.491a6.212,6.212,0,1,0-12.424,0v1.535a3.123,3.123,0,0,1,.565-.157A1.063,1.063,0,0,1,181.536,261.322Z" transform="translate(-167.49 -251.836)" fill="#001965"/>
        <path id="Trazado_57413" data-name="Trazado 57413" d="M178.853,270.18a1.453,1.453,0,0,0,1.156,1.3v-2.556A1.506,1.506,0,0,0,178.853,270.18Z" transform="translate(-167.103 -257.372)" fill="#001965"/>
        <path id="Trazado_57414" data-name="Trazado 57414" d="M184.259,286.956c2.805,1.94,6.461.773,7.315-.91l-1.039-.4a4.261,4.261,0,0,1-6.027,0l-1.038.4A2.452,2.452,0,0,0,184.259,286.956Z" transform="translate(-168.883 -263.817)" fill="#001965"/>
        <path id="Trazado_57415" data-name="Trazado 57415" d="M186.406,282.3v1.112a3.063,3.063,0,0,0,4.5,0v-1.15a5.617,5.617,0,0,1-2.236.466A6.1,6.1,0,0,1,186.406,282.3Z" transform="translate(-170.015 -262.514)" fill="#001965"/>
      </g>
      <g id="Grupo_15017" data-name="Grupo 15017" transform="translate(58.463 39.248)">
        <path id="Trazado_57416" data-name="Trazado 57416" d="M248.177,304.511l-.047-.194a3.851,3.851,0,0,0-2.013-2.233,9.05,9.05,0,0,1,.518,2.534,1.126,1.126,0,0,1,.737.659A9.771,9.771,0,0,0,248.177,304.511Z" transform="translate(-231.128 -287.847)" fill="#3b97de"/>
        <path id="Trazado_57417" data-name="Trazado 57417" d="M242.362,300.793a.386.386,0,0,0,.037-.307.685.685,0,0,0-.353-.378c-.066-.029-.458-.171-.884-.322l-.3,2.029-.637,4.194,2.03-3.234.008-.012a.618.618,0,0,0,.134-.43.083.083,0,0,0-.021-.051,2.636,2.636,0,0,0-.609-.225.285.285,0,0,1-.1-.505A2.914,2.914,0,0,0,242.362,300.793Z" transform="translate(-228.858 -286.962)" fill="#3b97de"/>
        <path id="Trazado_57418" data-name="Trazado 57418" d="M224.239,295.274a4.224,4.224,0,0,1,1.919-2.421,10.254,10.254,0,0,0,.685-4.868,9.092,9.092,0,0,1,0-3.673,4.307,4.307,0,0,1,1.2-2.193,2.826,2.826,0,0,1,2.585-.765.218.218,0,0,0,.08.006.229.229,0,0,0,.2-.253l0-.023a.8.8,0,0,1,.732-.861,4.561,4.561,0,0,1,4.358,2.321,12.573,12.573,0,0,1,.895,5.63v.2a22.33,22.33,0,0,0,.635,4.606,4.137,4.137,0,0,1,1.705,2.1,9.886,9.886,0,1,0-15.009.264Z" transform="translate(-221.726 -278.918)" fill="#3b97de"/>
        <path id="Trazado_57419" data-name="Trazado 57419" d="M246.119,307.068h0a.563.563,0,0,0-.552.453.558.558,0,0,0,.288.6q.423-.254.818-.547A.559.559,0,0,0,246.119,307.068Z" transform="translate(-230.911 -289.768)" fill="#3b97de"/>
        <path id="Trazado_57420" data-name="Trazado 57420" d="M237.17,304.112a5.329,5.329,0,0,1-1.312-.361l.706,4.472c.163.008.324.025.489.025.275,0,.545-.019.814-.041l.677-4.462A5.521,5.521,0,0,1,237.17,304.112Z" transform="translate(-227.173 -288.487)" fill="#3b97de"/>
        <path id="Trazado_57421" data-name="Trazado 57421" d="M231.142,293.189a1.338,1.338,0,0,1,.525-.466c.065-.034.436-.161,1.1-.377l.305-.651a3.221,3.221,0,0,1-1.147-2.136,2.257,2.257,0,0,1-1.329-1.744.975.975,0,0,1,.418-1.131.69.69,0,0,1,.4-.075,3.227,3.227,0,0,1,.5-2.14,1.448,1.448,0,0,1,1.162-.511c.573,0,.84.482,1.075.908.289.523.562,1.016,1.34,1.016a4.183,4.183,0,0,0,1.205-.27c.609-.2,1.135-.369,1.5-.084a1.258,1.258,0,0,1,.39,1.026c0,.024,0,.047,0,.071a.709.709,0,0,1,.42.084.964.964,0,0,1,.4,1.106,2.255,2.255,0,0,1-1.332,1.745,3.3,3.3,0,0,1-1.143,2.121l.312.614c.514.181,1.095.388,1.174.43a1.3,1.3,0,0,1,.562.539q.278.1.539.21h0q.293.125.564.267a22.329,22.329,0,0,1-.526-4.195l0-.2a12.164,12.164,0,0,0-.831-5.373,4.032,4.032,0,0,0-3.805-2.013h-.007a.229.229,0,0,0-.2.253.817.817,0,0,1-.018.278.8.8,0,0,1-.966.585,2.292,2.292,0,0,0-2.06.626c-.633.593-1.607,2.077-1.026,5.351a10.092,10.092,0,0,1-.51,4.551A8.431,8.431,0,0,1,231.142,293.189Z" transform="translate(-224.966 -280.085)" fill="#3b97de"/>
        <path id="Trazado_57422" data-name="Trazado 57422" d="M232.158,288.914c-.053-.061-.159-.156-.258-.1s-.184.242-.125.493c.191.809.688,1.346,1.031,1.339h.006a.284.284,0,0,1,.285.277,2.7,2.7,0,0,0,1.112,2.056,2.66,2.66,0,0,0,1.418.356,2.608,2.608,0,0,0,1.414-.365,2.728,2.728,0,0,0,1.115-2.053.291.291,0,0,1,.291-.276h.006c.344,0,.836-.532,1.026-1.337.059-.25-.019-.418-.117-.471s-.229.045-.274.093a.285.285,0,0,1-.485-.252c.067-.339.071-.916-.132-1.075-.125-.1-.614.061-.971.178a4.68,4.68,0,0,1-1.382.3,2,2,0,0,1-1.839-1.311c-.236-.427-.362-.613-.576-.613a.891.891,0,0,0-.726.309,3.283,3.283,0,0,0-.323,2.223h0a.285.285,0,0,1-.495.235Z" transform="translate(-225.591 -281.704)" fill="#3b97de"/>
        <path id="Trazado_57423" data-name="Trazado 57423" d="M231.118,302.832a.625.625,0,0,1,.265-.422,1.693,1.693,0,0,1,.3-.15,2.832,2.832,0,0,1-.465-.6.975.975,0,0,1-.117-.346l-.05.019a8.558,8.558,0,0,0-.634,1.685l.136.009a.748.748,0,0,1,.671.726c.05.519.288,2.059.291,2.075a.312.312,0,0,1,0,.063.725.725,0,0,1-.45.62,9.829,9.829,0,0,0,2.435.678l-2.16-3.488A1.2,1.2,0,0,1,231.118,302.832Z" transform="translate(-225.076 -287.551)" fill="#3b97de"/>
        <path id="Trazado_57424" data-name="Trazado 57424" d="M243.179,305.724a1.133,1.133,0,0,1,.829-1.372,8.331,8.331,0,0,0-.712-2.9l-.115-.046a1,1,0,0,1-.107.285,2.847,2.847,0,0,1-.46.592,1.63,1.63,0,0,1,.293.146.635.635,0,0,1,.265.421,1.184,1.184,0,0,1-.223.859l-2.168,3.457a9.8,9.8,0,0,0,2.692-.927A1.12,1.12,0,0,1,243.179,305.724Z" transform="translate(-229.072 -287.588)" fill="#3b97de"/>
        <path id="Trazado_57425" data-name="Trazado 57425" d="M229.575,304.985l-.986-.069c-.122-.009-.167.169-.172.189-.075.312-.285,1.028-.433,1.525a9.836,9.836,0,0,0,1.565.991.282.282,0,0,1,.3-.237.155.155,0,0,0,.162-.119c-.039-.253-.241-1.574-.289-2.067C229.717,305.177,229.7,304.994,229.575,304.985Z" transform="translate(-224.139 -288.939)" fill="#3b97de"/>
        <path id="Trazado_57426" data-name="Trazado 57426" d="M228.37,302.175a3.686,3.686,0,0,0-1.722,2.112c-.034.138-.07.283-.106.433.132.13.27.251.409.372.136-.462.3-1.012.356-1.264a.747.747,0,0,1,.766-.625l.271.019a10.106,10.106,0,0,1,.417-1.276q-.172.093-.333.193A.281.281,0,0,1,228.37,302.175Z" transform="translate(-223.582 -287.794)" fill="#3b97de"/>
        <path id="Trazado_57427" data-name="Trazado 57427" d="M233.093,302.093a2.715,2.715,0,0,0-.612.232.1.1,0,0,0-.022.053.647.647,0,0,0,.134.443l.009.013,1.952,3.148-.63-3.985,0-.018-.02-.136a.287.287,0,0,1-.015-.1l-.27-1.874c-.385.127-.736.245-.8.273a.686.686,0,0,0-.355.38.386.386,0,0,0,.037.308,2.968,2.968,0,0,0,.7.763.28.28,0,0,1,.1.156A.285.285,0,0,1,233.093,302.093Z" transform="translate(-225.857 -286.992)" fill="#3b97de"/>
        <path id="Trazado_57428" data-name="Trazado 57428" d="M238.4,300.963l.308-2.094-.3-.592a3.32,3.32,0,0,1-1.444.3,3.385,3.385,0,0,1-1.439-.292l-.3.65.292,2.033h0a2.467,2.467,0,0,0,2.889,0Z" transform="translate(-226.926 -286.38)" fill="#3b97de"/>
      </g>
      <g id="Grupo_15018" data-name="Grupo 15018" transform="translate(28.254)">
        <path id="Trazado_57429" data-name="Trazado 57429" d="M188.306,227.041l.262-.711a.81.81,0,0,1,.221-.326,1.434,1.434,0,0,0,.454-1.045.291.291,0,0,0-.025-.086.682.682,0,0,1-.617-.307,2.03,2.03,0,0,1-.278-.546,6.27,6.27,0,0,1-4.208-1.138,4.8,4.8,0,0,1-.144.484,3.639,3.639,0,0,1-.834,1.386.6.6,0,0,1-.606.167c0,.012-.006.025-.008.039a1.432,1.432,0,0,0,.454,1.045.823.823,0,0,1,.221.327l.262.71a4.7,4.7,0,0,0,.884,1.08,4.873,4.873,0,0,0,.4.335,1.363,1.363,0,0,0,.692.222l.066.01a2.311,2.311,0,0,0,.385.028,2.278,2.278,0,0,0,.385-.028l.062-.01a1.376,1.376,0,0,0,.7-.223,4.806,4.806,0,0,0,.4-.334A4.709,4.709,0,0,0,188.306,227.041Z" transform="translate(-176.07 -217.753)" fill="#3b97de"/>
        <path id="Trazado_57430" data-name="Trazado 57430" d="M175,228.728a1.711,1.711,0,0,1,.976-.994l3.564-1.378a9.3,9.3,0,0,0,.124-1.095,5.06,5.06,0,0,1-.875-1.13.383.383,0,0,1-.019-.043l-.27-.734a.123.123,0,0,0-.034-.05,2.109,2.109,0,0,1-.676-1.666.921.921,0,0,1,.162-.41c-.02-.838-.034-1.164-.043-1.289v-.024c0-2.026.887-3.238,2.378-3.242a.453.453,0,0,0,.3-.1,2.027,2.027,0,0,1,1.211-.289h0a3.846,3.846,0,0,1,3.354,1.389,3.789,3.789,0,0,1,.623,2.237.359.359,0,0,1,0,.045c-.02.157-.034.627-.039,1.271a.927.927,0,0,1,.159.406,2.1,2.1,0,0,1-.677,1.668.118.118,0,0,0-.032.047l-.272.736a.381.381,0,0,1-.019.043,5.039,5.039,0,0,1-.876,1.13,10,10,0,0,0,.1,1.093l3.609,1.377a1.715,1.715,0,0,1,.99,1,14.988,14.988,0,0,1,.458,2.364,9.88,9.88,0,1,0-14.616-.1A14.789,14.789,0,0,1,175,228.728Z" transform="translate(-172.026 -214.536)" fill="#3b97de"/>
        <path id="Trazado_57431" data-name="Trazado 57431" d="M187.544,233.234l-.066.01a3.288,3.288,0,0,1-.974,0l-.069-.01a2.058,2.058,0,0,1-.965-.324c-.02.2-.045.4-.078.583l1.17.595a.953.953,0,0,0,.859,0l1.148-.584c-.029-.183-.05-.382-.066-.587A2.079,2.079,0,0,1,187.544,233.234Z" transform="translate(-177.178 -221.618)" fill="#3b97de"/>
        <ellipse id="Elipse_883" data-name="Elipse 883" cx="0.301" cy="0.297" rx="0.301" ry="0.297" transform="translate(7.162 15.176)" fill="#3b97de"/>
        <path id="Trazado_57432" data-name="Trazado 57432" d="M190.029,236.778a1.013,1.013,0,0,0-.587-.586l-2.231-.851a4.415,4.415,0,0,1-.019.744,1.556,1.556,0,0,1,.922,1.7v.007l-.332,2.184,0,.016a.89.89,0,0,1-.4.567,1.2,1.2,0,0,1-.65.189,1.144,1.144,0,0,1-.251-.027.348.348,0,0,1-.264-.427l.1-.394a.349.349,0,0,1,.686.072.2.2,0,0,0,.09-.111l.33-2.17a.867.867,0,0,0-.715-1.037.968.968,0,0,0-1.17.651l-.752,2.079a.156.156,0,0,0,.022.119.349.349,0,0,1,.653.237l-.1.393a.349.349,0,0,1-.412.254,1.149,1.149,0,0,1-.741-.528.854.854,0,0,1-.087-.688l0-.015.757-2.092,0-.007a1.654,1.654,0,0,1,1.614-1.126,3.362,3.362,0,0,0-.028-.875l-.668-.254-1.245.633a1.654,1.654,0,0,1-1.491,0l-1.256-.639-.623.241a3.424,3.424,0,0,0,.112,1.8,1,1,0,1,1-.615.356,4.192,4.192,0,0,1-.248-1.863l-2.231.863a1,1,0,0,0-.576.581,17.48,17.48,0,0,0-.484,2.668,9.839,9.839,0,0,0,13.374.083A17.9,17.9,0,0,0,190.029,236.778Z" transform="translate(-174 -222.346)" fill="#3b97de"/>
        <path id="Trazado_57433" data-name="Trazado 57433" d="M183.4,221.452a4.394,4.394,0,0,0,.178-.672.493.493,0,0,1,.386-.38.537.537,0,0,1,.456.1,5.564,5.564,0,0,0,4.092,1.126.467.467,0,0,1,.522.361,1.33,1.33,0,0,0,.133.357c.006-.371.017-.727.037-.909a3.1,3.1,0,0,0-.493-1.813,3.207,3.207,0,0,0-2.786-1.1h0a1.347,1.347,0,0,0-.848.187,1.131,1.131,0,0,1-.656.2,1.413,1.413,0,0,0-1.371.892,4.09,4.09,0,0,0-.312,1.641c.012.174.025.541.039,1.092A2.969,2.969,0,0,0,183.4,221.452Z" transform="translate(-176.152 -216.073)" fill="#3b97de"/>
      </g>
      <g id="Grupo_15019" data-name="Grupo 15019" transform="translate(3.031 12.265)">
        <path id="Trazado_57434" data-name="Trazado 57434" d="M133.981,248.691a1.734,1.734,0,0,1,.954-1.047l.011,0,3.76-1.493a1.634,1.634,0,0,0,.23-.632c-1.05-1.094-1.382-2.479-1.6-4.556a.348.348,0,0,1,.259-.391h0l.04-.007c1.919-.283,3.245-.579,4.159-2.05a.463.463,0,0,1,.835.106,4.177,4.177,0,0,0,1.123,2.1.347.347,0,0,1,.193.31.388.388,0,0,1,0,.047,11.485,11.485,0,0,1-.57,2.808,4.656,4.656,0,0,1-1.013,1.632,1.625,1.625,0,0,0,.23.631l3.76,1.493.01,0a1.733,1.733,0,0,1,.954,1.048,19.691,19.691,0,0,1,.489,2.868,9.886,9.886,0,1,0-14.264-.407A17.138,17.138,0,0,1,133.981,248.691Zm4.171-11.488a4.025,4.025,0,0,1,5,0c2.642,2.281,2.016,5.6,1.681,7.387a5.27,5.27,0,0,0-.133.933c.046.642-.527.968-.8,1.125l-.344-.6c.34-.194.463-.321.452-.47a5.1,5.1,0,0,1,.143-1.113c.31-1.648.888-4.717-1.456-6.736h0l-.009-.007-.011-.01a3.344,3.344,0,0,0-4.039,0l-.029.026c-2.331,2.019-1.755,5.08-1.445,6.726a5.1,5.1,0,0,1,.143,1.113c-.01.141.12.27.467.46l-.334.609c-.283-.155-.873-.479-.826-1.12a5.312,5.312,0,0,0-.133-.933C136.135,242.806,135.51,239.485,138.152,237.2Z" transform="translate(-130.983 -234.655)" fill="#001965"/>
        <path id="Trazado_57435" data-name="Trazado 57435" d="M146.3,253.346l-.061.01c-.066.01-.134.02-.2.028a2.163,2.163,0,0,1-.216.01,2.483,2.483,0,0,1-.423-.037l-.066-.011a1.736,1.736,0,0,1-.634-.219,1.8,1.8,0,0,1-.315.618l.073.637a.6.6,0,0,0,.079.167l.022.038a7.792,7.792,0,0,0,1.047,1.323.288.288,0,0,0,.209.091.285.285,0,0,0,.208-.09,7.838,7.838,0,0,0,1.048-1.324l.02-.036a.593.593,0,0,0,.08-.169l.074-.652a1.785,1.785,0,0,1-.3-.6A1.737,1.737,0,0,1,146.3,253.346Z" transform="translate(-136.145 -241.775)" fill="#001965"/>
        <path id="Trazado_57436" data-name="Trazado 57436" d="M146.562,242.164c-.991,1.3-2.331,1.66-4.054,1.928.251,2.177.672,3.225,1.608,4.063a1.1,1.1,0,0,0,.6.278l.066.011a1.772,1.772,0,0,0,.312.029c.06,0,.105,0,.147-.007s.1-.013.165-.023l.061-.01a1.105,1.105,0,0,0,.6-.278c.943-.844,1.359-1.884,1.609-4.062A4.638,4.638,0,0,1,146.562,242.164Z" transform="translate(-135.425 -237.549)" fill="#001965"/>
        <path id="Trazado_57437" data-name="Trazado 57437" d="M142.228,259.995a.287.287,0,1,0-.283.335A.313.313,0,0,0,142.228,259.995Z" transform="translate(-135.099 -244.293)" fill="#001965"/>
        <path id="Trazado_57438" data-name="Trazado 57438" d="M148.654,256.62a1.038,1.038,0,0,0-.567-.625l-1.732-.688a5.288,5.288,0,0,1-.008.806,1.491,1.491,0,0,1,.78,1.581v.006l-.282,2.024,0,.015a.855.855,0,0,1-.382.56,1.033,1.033,0,0,1-.56.164.981.981,0,0,1-.229-.026.348.348,0,0,1-.258-.417l.085-.364a.348.348,0,0,1,.662-.049l.279-2a.8.8,0,0,0-.575-.94.788.788,0,0,0-.927.581l-.637,1.918a.348.348,0,0,1,.572.337l-.085.364a.347.347,0,0,1-.419.259,1.038,1.038,0,0,1-.643-.477.854.854,0,0,1-.093-.671l0-.015.644-1.938,0-.007a1.482,1.482,0,0,1,1.383-1.064,4.19,4.19,0,0,0-.042-.939l-.89-.353-.044.39a1.1,1.1,0,0,1-.17.439l-.018.032a8.35,8.35,0,0,1-1.142,1.452.981.981,0,0,1-1.434,0,8.336,8.336,0,0,1-1.142-1.452l-.02-.034a1.09,1.09,0,0,1-.168-.438l-.044-.384-.967.383a3.974,3.974,0,0,0,.1,2,.907.907,0,0,1,.142-.011,1.032,1.032,0,1,1-.978,1.031,1.059,1.059,0,0,1,.223-.655,4.748,4.748,0,0,1-.24-2.064l-1.626.646a1.037,1.037,0,0,0-.567.625,20.415,20.415,0,0,0-.476,2.875,9.856,9.856,0,0,0,13.007.353A22.5,22.5,0,0,0,148.654,256.62Z" transform="translate(-132.979 -242.367)" fill="#001965"/>
      </g>
      <g id="Grupo_15020" data-name="Grupo 15020" transform="translate(53.483 11.712)">
        <path id="Trazado_57439" data-name="Trazado 57439" d="M216.527,248.342a1.769,1.769,0,0,1,.97-1.067l.011,0,3.065-1.219c-.538-.045-1.418-.155-1.4-.894a10.9,10.9,0,0,0-.212-2.053c-.283-1.716-.6-3.654.945-5.536l-.2-.529a1.1,1.1,0,0,1,.238-1.154,5.009,5.009,0,0,1,6.64,0,1.1,1.1,0,0,1,.238,1.154l-.194.517c1.557,1.885,1.237,3.828.954,5.548a10.846,10.846,0,0,0-.212,2.053c.022.74-.859.849-1.4.894l3.065,1.219.011,0a1.768,1.768,0,0,1,.971,1.067,13.281,13.281,0,0,1,.487,2.193,9.885,9.885,0,1,0-14.422-.336A12.488,12.488,0,0,1,216.527,248.342Z" transform="translate(-213.575 -233.748)" fill="#001965"/>
        <path id="Trazado_57440" data-name="Trazado 57440" d="M230.33,244.051a4.29,4.29,0,0,1-1.059-1.782l-.161-.02c-.994,1.2-2.34,1.549-3.974,1.8.253,2.191.678,3.246,1.619,4.09a1.1,1.1,0,0,0,.6.278l.067.011a1.727,1.727,0,0,0,.313.029,1.39,1.39,0,0,0,.147-.007c.05,0,.1-.013.166-.023l.062-.01a1.1,1.1,0,0,0,.6-.278,3.949,3.949,0,0,0,1.109-1.637A10.446,10.446,0,0,0,230.33,244.051Z" transform="translate(-218.031 -237.025)" fill="#001965"/>
        <path id="Trazado_57441" data-name="Trazado 57441" d="M228.956,253.338c-.068.011-.137.022-.207.028s-.132.01-.22.011a2.51,2.51,0,0,1-.43-.039l-.066-.011a1.754,1.754,0,0,1-.632-.216,1.865,1.865,0,0,1-.206.462l1.085,1.216a.464.464,0,0,0,.469-.042l1.083-1.213a1.921,1.921,0,0,1-.182-.422,1.764,1.764,0,0,1-.633.216Z" transform="translate(-218.825 -241.212)" fill="#001965"/>
        <path id="Trazado_57442" data-name="Trazado 57442" d="M234.05,245.881c.263-1.595.513-3.11-.537-4.624l-.2.537a.363.363,0,0,1-.4.231l-.081-.014a2.455,2.455,0,0,0,.772,1.152.363.363,0,0,1,.2.364,11.677,11.677,0,0,1-.578,2.852,4.709,4.709,0,0,1-1.021,1.649,1.628,1.628,0,0,0,.226.626l.647.256-.056-.684a1.771,1.771,0,0,0,.81-.162A11.7,11.7,0,0,1,234.05,245.881Z" transform="translate(-220.754 -236.642)" fill="#001965"/>
        <path id="Trazado_57443" data-name="Trazado 57443" d="M224.991,248.664a1.63,1.63,0,0,0,.227-.626c-1.06-1.109-1.394-2.512-1.611-4.615a.427.427,0,0,1,0-.049.364.364,0,0,1,.318-.361,6.411,6.411,0,0,0,3.488-1.217,11.636,11.636,0,0,0-2.906.237.373.373,0,0,1-.068.006.363.363,0,0,1-.34-.236l-.2-.524c-1.039,1.51-.791,3.021-.529,4.611a11.673,11.673,0,0,1,.221,2.185,1.769,1.769,0,0,0,.811.162l-.056.684Z" transform="translate(-217.262 -236.65)" fill="#001965"/>
        <path id="Trazado_57444" data-name="Trazado 57444" d="M227.443,239.158a14.837,14.837,0,0,1,2.373.216l.591-1.58a.378.378,0,0,0-.077-.39,4.29,4.29,0,0,0-5.6,0,.376.376,0,0,0-.077.39l.589,1.574A12.348,12.348,0,0,1,227.443,239.158Zm-.732-1.637h.455v-.505h.728v.505h.456v.727h-.456v.505h-.728v-.505h-.455Z" transform="translate(-217.836 -234.756)" fill="#001965"/>
        <path id="Trazado_57445" data-name="Trazado 57445" d="M231.313,256.574a1.038,1.038,0,0,0-.565-.624l-3.6-1.433L226,255.794a.359.359,0,0,1-.034.034,1.162,1.162,0,0,1-.758.276,1.185,1.185,0,0,1-.622-.175.354.354,0,0,1-.081-.068l-1.185-1.328-3.561,1.416a1.038,1.038,0,0,0-.565.624,12.924,12.924,0,0,0-.488,2.282,9.846,9.846,0,0,0,13.13.292A13.476,13.476,0,0,0,231.313,256.574Z" transform="translate(-215.554 -241.753)" fill="#001965"/>
      </g>
    </g>
    <g id="Grupo_15022" data-name="Grupo 15022" transform="translate(152.84 258.751)">
      <path id="Trazado_57446" data-name="Trazado 57446" d="M199.623,298.831a1.6,1.6,0,0,0,2.381-.047c.452-.626.069-2.109-1.3-3.5C199.437,296.762,199.149,298.226,199.623,298.831Z" transform="translate(-181.116 -290.194)" fill="red"/>
      <path id="Trazado_57447" data-name="Trazado 57447" d="M192.344,288.93,187.36,287c-.836,1.788-3.214,2.686-5.168,2.686s-4.333-.9-5.168-2.686l-4.972,1.93a4.146,4.146,0,0,0-2.409,3.767v3.749a18.415,18.415,0,0,0,25.11-.418V292.7A4.188,4.188,0,0,0,192.344,288.93Zm-1.315,7.02a2.2,2.2,0,0,1-1.718.811h-.061a2.149,2.149,0,0,1-1.584-.743c-.777-.991-.219-2.917,1.324-4.578l.21-.226.225.21C191.084,292.972,191.773,294.918,191.029,295.95Z" transform="translate(-169.643 -287)" fill="#001965"/>
    </g>
    <g id="Grupo_15023" data-name="Grupo 15023" transform="translate(344.631 232.911)">
      <path id="Trazado_57448" data-name="Trazado 57448" d="M502.868,275.9a6.087,6.087,0,0,0,4.568,2.1h.01A6.057,6.057,0,0,0,512,275.9c1.868-2.421.595-8.4-4.625-14.539C503.219,266.349,500.5,272.854,502.868,275.9Z" transform="translate(-490.838 -251.279)" fill="red"/>
      <path id="Trazado_57449" data-name="Trazado 57449" d="M515.374,253.17a14.967,14.967,0,0,0-5.924-6.115,17.45,17.45,0,0,0-8.663-2.1q-7.9,0-12.421,4.65t-4.522,13.312a20.606,20.606,0,0,0,2.166,9.841,14.842,14.842,0,0,0,5.956,6.147A17.493,17.493,0,0,0,500.6,281q7.835,0,12.389-4.714t4.554-13.376A20.284,20.284,0,0,0,515.374,253.17Zm-8.51,17.843a8.433,8.433,0,0,1-6.409,3.007h-.014a8.464,8.464,0,0,1-6.423-3c-3.044-3.917-.739-11.717,5.484-18.549l.865-.949.869.945C507.518,259.3,509.885,267.1,506.864,271.014Z" transform="translate(-483.844 -244.953)" fill="#001965"/>
    </g>
    <g id="Grupo_15024" data-name="Grupo 15024" transform="translate(256.589 222.178)">
      <path id="Trazado_57450" data-name="Trazado 57450" d="M343.734,233.758H340.2v-6.143h3.536v1.067H341.5v1.351h2.082V231.1H341.5v1.583h2.237Z" transform="translate(-340.198 -227.219)" fill="#939aa7"/>
      <path id="Trazado_57451" data-name="Trazado 57451" d="M350.443,236.676v-1.97a4.963,4.963,0,0,1,.052-.706h-.052a1.453,1.453,0,0,1-1.334.7,1.562,1.562,0,0,1-1.282-.615,3.588,3.588,0,0,1,.009-3.635,1.74,1.74,0,0,1,2.138-.422,1.68,1.68,0,0,1,.52.49h.035l.112-.6h1.083v6.762Zm-.877-2.985a.818.818,0,0,0,.74-.314,1.832,1.832,0,0,0,.224-.942v-.155a2.117,2.117,0,0,0-.211-1.045.813.813,0,0,0-.771-.366.743.743,0,0,0-.679.366,2.036,2.036,0,0,0-.224,1.054Q348.646,233.69,349.566,233.69Z" transform="translate(-342.95 -228.072)" fill="#939aa7"/>
      <path id="Trazado_57452" data-name="Trazado 57452" d="M360.762,229.967v4.7h-.981l-.171-.6h-.069a1.292,1.292,0,0,1-.615.525,2.127,2.127,0,0,1-.831.163,1.746,1.746,0,0,1-1.212-.409,1.68,1.68,0,0,1-.457-1.312v-3.063h1.282v2.745a1.318,1.318,0,0,0,.181.761.659.659,0,0,0,.577.254.826.826,0,0,0,.8-.4,2.48,2.48,0,0,0,.214-1.149v-2.211Z" transform="translate(-346.453 -228.126)" fill="#939aa7"/>
      <path id="Trazado_57453" data-name="Trazado 57453" d="M366.084,226.971a.89.89,0,0,1,.491.133.691.691,0,0,1,0,.985.862.862,0,0,1-.491.138.853.853,0,0,1-.494-.138.7.7,0,0,1,0-.985A.88.88,0,0,1,366.084,226.971Zm.637,1.841v4.7h-1.282v-4.7Z" transform="translate(-349.907 -226.971)" fill="#939aa7"/>
      <path id="Trazado_57454" data-name="Trazado 57454" d="M372.162,229.827a1.56,1.56,0,0,1,1.282.615,2.856,2.856,0,0,1,.491,1.811,2.821,2.821,0,0,1-.508,1.824,1.606,1.606,0,0,1-1.3.619,1.537,1.537,0,0,1-.809-.185,1.924,1.924,0,0,1-.49-.417h-.069a3.721,3.721,0,0,1,.069.688v1.893h-1.282v-6.762h1.041l.181.611h.06a1.723,1.723,0,0,1,.508-.49A1.492,1.492,0,0,1,372.162,229.827Zm-.412,1.024a.781.781,0,0,0-.706.314,1.777,1.777,0,0,0-.215.942v.138a2.189,2.189,0,0,0,.2,1.045.765.765,0,0,0,.736.366.7.7,0,0,0,.65-.366,2.143,2.143,0,0,0,.21-1.054Q372.627,230.851,371.75,230.851Z" transform="translate(-351.511 -228.072)" fill="#939aa7"/>
      <path id="Trazado_57455" data-name="Trazado 57455" d="M382.447,232.253a2.494,2.494,0,0,1-.615,1.807,2.217,2.217,0,0,1-1.673.637,2.363,2.363,0,0,1-1.166-.284,2,2,0,0,1-.8-.83,2.779,2.779,0,0,1-.293-1.329,2.474,2.474,0,0,1,.611-1.8,2.232,2.232,0,0,1,1.678-.628,2.356,2.356,0,0,1,1.17.284,2.018,2.018,0,0,1,.8.826A2.741,2.741,0,0,1,382.447,232.253Zm-3.244,0a1.978,1.978,0,0,0,.228,1.054.816.816,0,0,0,.744.357.806.806,0,0,0,.736-.357,1.978,1.978,0,0,0,.229-1.054,1.931,1.931,0,0,0-.229-1.045.823.823,0,0,0-.744-.348.814.814,0,0,0-.736.348A1.932,1.932,0,0,0,379.2,232.253Z" transform="translate(-354.729 -228.072)" fill="#939aa7"/>
      <path id="Trazado_57456" data-name="Trazado 57456" d="M390.043,233.217a1.3,1.3,0,0,1-.5,1.1,2.46,2.46,0,0,1-1.5.383,4.757,4.757,0,0,1-.843-.065,3.455,3.455,0,0,1-.706-.211v-1.058a4.86,4.86,0,0,0,.817.284,3.194,3.194,0,0,0,.775.112.973.973,0,0,0,.533-.112.339.339,0,0,0,.163-.293.373.373,0,0,0-.065-.215.854.854,0,0,0-.28-.215,7.131,7.131,0,0,0-.671-.31,4.518,4.518,0,0,1-.727-.374,1.208,1.208,0,0,1-.417-.447,1.407,1.407,0,0,1-.138-.658,1.091,1.091,0,0,1,.508-.981,2.471,2.471,0,0,1,1.351-.327,3.93,3.93,0,0,1,.834.086,3.858,3.858,0,0,1,.817.284l-.387.921c-.229-.1-.447-.179-.653-.245a2.066,2.066,0,0,0-.629-.1q-.568,0-.568.31a.308.308,0,0,0,.074.2.856.856,0,0,0,.283.194q.211.1.624.275a4.993,4.993,0,0,1,.7.34,1.29,1.29,0,0,1,.452.443A1.309,1.309,0,0,1,390.043,233.217Z" transform="translate(-358.038 -228.072)" fill="#939aa7"/>
      <path id="Trazado_57457" data-name="Trazado 57457" d="M400.167,233.758l-1.48-4.818h-.034c.006.115.014.287.026.516s.023.476.034.74.018.5.018.706v2.856h-1.162v-6.143h1.772l1.454,4.7h.026l1.54-4.7h1.773v6.143h-1.214V230.85q0-.292.014-.671t.026-.718c.008-.227.015-.4.022-.512h-.035l-1.583,4.809Z" transform="translate(-362.311 -227.219)" fill="#939aa7"/>
      <path id="Trazado_57458" data-name="Trazado 57458" d="M414.763,229.967v4.7h-.981l-.171-.6h-.069a1.291,1.291,0,0,1-.615.525,2.127,2.127,0,0,1-.831.163,1.746,1.746,0,0,1-1.212-.409,1.68,1.68,0,0,1-.457-1.312v-3.063h1.282v2.745a1.318,1.318,0,0,0,.181.761.659.659,0,0,0,.577.254.826.826,0,0,0,.8-.4,2.48,2.48,0,0,0,.214-1.149v-2.211Z" transform="translate(-367.268 -228.126)" fill="#939aa7"/>
      <path id="Trazado_57459" data-name="Trazado 57459" d="M420.746,233.51h-1.281v-6.539h1.281Z" transform="translate(-370.752 -226.971)" fill="#939aa7"/>
      <path id="Trazado_57460" data-name="Trazado 57460" d="M425.264,233.1a2.154,2.154,0,0,0,.414-.039,2.89,2.89,0,0,0,.4-.108v.955a2.3,2.3,0,0,1-.512.155,3.422,3.422,0,0,1-.667.06,1.939,1.939,0,0,1-.753-.138,1.073,1.073,0,0,1-.525-.473,1.909,1.909,0,0,1-.194-.946V230.3h-.611v-.542l.706-.43.37-.989h.817v1h1.316v.964h-1.316v2.263a.5.5,0,0,0,.155.4A.6.6,0,0,0,425.264,233.1Z" transform="translate(-372.042 -227.5)" fill="#939aa7"/>
      <path id="Trazado_57461" data-name="Trazado 57461" d="M430.121,226.971a.888.888,0,0,1,.491.133.691.691,0,0,1,0,.985.95.95,0,0,1-.985,0,.7.7,0,0,1,0-.985A.88.88,0,0,1,430.121,226.971Zm.637,1.841v4.7h-1.281v-4.7Z" transform="translate(-374.591 -226.971)" fill="#939aa7"/>
      <path id="Trazado_57462" data-name="Trazado 57462" d="M434.969,233.6a1.564,1.564,0,0,1-1.278-.615,3.573,3.573,0,0,1,0-3.635,1.747,1.747,0,0,1,2.142-.422,1.577,1.577,0,0,1,.516.49h.043q-.026-.137-.06-.4a4.055,4.055,0,0,1-.034-.538v-1.506h1.282v6.539H436.6l-.25-.611H436.3a1.635,1.635,0,0,1-.508.495A1.514,1.514,0,0,1,434.969,233.6Zm.447-1.024a.831.831,0,0,0,.74-.314,1.761,1.761,0,0,0,.232-.942v-.138a2.124,2.124,0,0,0-.21-1.045.823.823,0,0,0-.779-.366.755.755,0,0,0-.663.366,1.92,1.92,0,0,0-.241,1.054,1.829,1.829,0,0,0,.241,1.037A.779.779,0,0,0,435.417,232.572Z" transform="translate(-376.045 -226.971)" fill="#939aa7"/>
      <path id="Trazado_57463" data-name="Trazado 57463" d="M442.937,226.971a.891.891,0,0,1,.491.133.691.691,0,0,1,0,.985.951.951,0,0,1-.986,0,.7.7,0,0,1,0-.985A.882.882,0,0,1,442.937,226.971Zm.637,1.841v4.7h-1.282v-4.7Z" transform="translate(-379.53 -226.971)" fill="#939aa7"/>
      <path id="Trazado_57464" data-name="Trazado 57464" d="M449.623,233.217a1.3,1.3,0,0,1-.5,1.1,2.46,2.46,0,0,1-1.5.383,4.758,4.758,0,0,1-.843-.065,3.467,3.467,0,0,1-.705-.211v-1.058a4.859,4.859,0,0,0,.817.284,3.2,3.2,0,0,0,.775.112.972.972,0,0,0,.533-.112.34.34,0,0,0,.164-.293.373.373,0,0,0-.065-.215.853.853,0,0,0-.28-.215,7.061,7.061,0,0,0-.671-.31,4.48,4.48,0,0,1-.726-.374,1.205,1.205,0,0,1-.418-.447,1.407,1.407,0,0,1-.138-.658,1.091,1.091,0,0,1,.508-.981,2.471,2.471,0,0,1,1.351-.327,3.931,3.931,0,0,1,.834.086,3.858,3.858,0,0,1,.817.284l-.387.921c-.229-.1-.447-.179-.653-.245a2.066,2.066,0,0,0-.629-.1q-.568,0-.567.31a.31.31,0,0,0,.073.2.853.853,0,0,0,.284.194q.21.1.623.275a4.993,4.993,0,0,1,.7.34,1.291,1.291,0,0,1,.452.443A1.309,1.309,0,0,1,449.623,233.217Z" transform="translate(-381.003 -228.072)" fill="#939aa7"/>
      <path id="Trazado_57465" data-name="Trazado 57465" d="M455.153,234.7a2.184,2.184,0,0,1-1.622-.576,2.521,2.521,0,0,1-.572-1.833,2.945,2.945,0,0,1,.293-1.4,1.839,1.839,0,0,1,.813-.8,2.665,2.665,0,0,1,1.2-.258,3.32,3.32,0,0,1,.839.095,3.572,3.572,0,0,1,.624.224l-.379.99q-.3-.121-.564-.2a1.826,1.826,0,0,0-.52-.077q-1,0-1,1.42a1.688,1.688,0,0,0,.262,1.041.882.882,0,0,0,.736.336,2.17,2.17,0,0,0,.714-.108,2.78,2.78,0,0,0,.6-.3v1.093a2.035,2.035,0,0,1-.615.271A3.372,3.372,0,0,1,455.153,234.7Z" transform="translate(-383.662 -228.072)" fill="#939aa7"/>
      <path id="Trazado_57466" data-name="Trazado 57466" d="M461.089,226.971a.889.889,0,0,1,.491.133.691.691,0,0,1,0,.985.951.951,0,0,1-.986,0,.7.7,0,0,1,0-.985A.883.883,0,0,1,461.089,226.971Zm.637,1.841v4.7h-1.282v-4.7Z" transform="translate(-386.527 -226.971)" fill="#939aa7"/>
      <path id="Trazado_57467" data-name="Trazado 57467" d="M467.168,229.827a1.56,1.56,0,0,1,1.282.615,2.86,2.86,0,0,1,.491,1.811,2.821,2.821,0,0,1-.508,1.824,1.606,1.606,0,0,1-1.3.619,1.535,1.535,0,0,1-.809-.185,1.927,1.927,0,0,1-.49-.417h-.068a3.718,3.718,0,0,1,.068.688v1.893h-1.282v-6.762h1.042l.181.611h.06a1.725,1.725,0,0,1,.508-.49A1.492,1.492,0,0,1,467.168,229.827Zm-.413,1.024a.78.78,0,0,0-.7.314,1.777,1.777,0,0,0-.216.942v.138a2.2,2.2,0,0,0,.2,1.045.767.767,0,0,0,.736.366.7.7,0,0,0,.649-.366,2.136,2.136,0,0,0,.211-1.054Q467.632,230.851,466.755,230.851Z" transform="translate(-388.13 -228.072)" fill="#939aa7"/>
      <path id="Trazado_57468" data-name="Trazado 57468" d="M474.6,233.51h-1.282v-6.539H474.6Z" transform="translate(-391.508 -226.971)" fill="#939aa7"/>
      <path id="Trazado_57469" data-name="Trazado 57469" d="M478,226.971a.889.889,0,0,1,.491.133.691.691,0,0,1,0,.985.862.862,0,0,1-.491.138.853.853,0,0,1-.494-.138.7.7,0,0,1,0-.985A.88.88,0,0,1,478,226.971Zm.637,1.841v4.7h-1.282v-4.7Z" transform="translate(-393.045 -226.971)" fill="#939aa7"/>
      <path id="Trazado_57470" data-name="Trazado 57470" d="M484.127,229.827a1.751,1.751,0,0,1,1.213.409,1.682,1.682,0,0,1,.456,1.312v3.063h-1.283v-2.745a1.311,1.311,0,0,0-.181-.761.657.657,0,0,0-.576-.254.825.825,0,0,0-.8.4,2.474,2.474,0,0,0-.215,1.149v2.211H481.46v-4.7h.981l.172.6h.069a1.289,1.289,0,0,1,.615-.525A2.137,2.137,0,0,1,484.127,229.827Z" transform="translate(-394.648 -228.072)" fill="#939aa7"/>
      <path id="Trazado_57471" data-name="Trazado 57471" d="M492.179,229.813a2.251,2.251,0,0,1,1.45.409,1.518,1.518,0,0,1,.5,1.252v3.132h-.895l-.25-.637h-.034a1.985,1.985,0,0,1-.637.551,2.037,2.037,0,0,1-.921.172,1.524,1.524,0,0,1-1.041-.361,1.421,1.421,0,0,1-.413-1.127,1.233,1.233,0,0,1,.525-1.1,3.078,3.078,0,0,1,1.574-.4l.817-.026v-.206a.691.691,0,0,0-.194-.542.783.783,0,0,0-.538-.172,2.31,2.31,0,0,0-.671.1,5.654,5.654,0,0,0-.654.245l-.422-.869a3.917,3.917,0,0,1,.835-.305A3.96,3.96,0,0,1,492.179,229.813Zm.68,2.616-.5.017a1.412,1.412,0,0,0-.861.224.679.679,0,0,0-.24.542.479.479,0,0,0,.171.417.742.742,0,0,0,.447.125,1.028,1.028,0,0,0,.7-.245.865.865,0,0,0,.284-.693Z" transform="translate(-397.917 -228.066)" fill="#939aa7"/>
      <path id="Trazado_57472" data-name="Trazado 57472" d="M501.339,229.827c.063,0,.138,0,.223.009a1.537,1.537,0,0,1,.206.026l-.094,1.2a1.567,1.567,0,0,0-.181-.03,1.758,1.758,0,0,0-.2-.013,1.733,1.733,0,0,0-.629.116,1.053,1.053,0,0,0-.486.374,1.194,1.194,0,0,0-.185.706v2.392h-1.281v-4.7h.972l.189.792h.06a1.935,1.935,0,0,1,.568-.619A1.4,1.4,0,0,1,501.339,229.827Z" transform="translate(-401.299 -228.072)" fill="#939aa7"/>
      <path id="Trazado_57473" data-name="Trazado 57473" d="M505.546,226.971a.89.89,0,0,1,.491.133.691.691,0,0,1,0,.985.951.951,0,0,1-.986,0,.7.7,0,0,1,0-.985A.884.884,0,0,1,505.546,226.971Zm.637,1.841v4.7H504.9v-4.7Z" transform="translate(-403.663 -226.971)" fill="#939aa7"/>
      <path id="Trazado_57474" data-name="Trazado 57474" d="M513.122,232.253a2.494,2.494,0,0,1-.615,1.807,2.218,2.218,0,0,1-1.673.637,2.363,2.363,0,0,1-1.166-.284,2,2,0,0,1-.8-.83,2.78,2.78,0,0,1-.293-1.329,2.474,2.474,0,0,1,.611-1.8,2.231,2.231,0,0,1,1.678-.628,2.358,2.358,0,0,1,1.17.284,2.022,2.022,0,0,1,.8.826A2.741,2.741,0,0,1,513.122,232.253Zm-3.244,0a1.978,1.978,0,0,0,.228,1.054.815.815,0,0,0,.744.357.806.806,0,0,0,.736-.357,1.978,1.978,0,0,0,.228-1.054,1.932,1.932,0,0,0-.228-1.045.823.823,0,0,0-.744-.348.814.814,0,0,0-.736.348A1.932,1.932,0,0,0,509.879,232.253Z" transform="translate(-405.098 -228.072)" fill="#939aa7"/>
      <path id="Trazado_57475" data-name="Trazado 57475" d="M522.957,229.827a1.946,1.946,0,0,1,2.108,2.134v.619h-3.029a1.221,1.221,0,0,0,.323.852,1.138,1.138,0,0,0,.848.31,3.5,3.5,0,0,0,.821-.09,3.894,3.894,0,0,0,.77-.28v.99a3.194,3.194,0,0,1-.731.253,4.421,4.421,0,0,1-.921.082,2.827,2.827,0,0,1-1.247-.262,1.957,1.957,0,0,1-.852-.792,2.635,2.635,0,0,1-.31-1.346,3,3,0,0,1,.28-1.368,1.9,1.9,0,0,1,.779-.826A2.366,2.366,0,0,1,522.957,229.827Zm.009.912a.839.839,0,0,0-.619.241,1.168,1.168,0,0,0-.284.749h1.8a1.163,1.163,0,0,0-.228-.706A.79.79,0,0,0,522.965,230.739Z" transform="translate(-409.787 -228.072)" fill="#939aa7"/>
      <path id="Trazado_57476" data-name="Trazado 57476" d="M532.05,229.827a1.752,1.752,0,0,1,1.214.409,1.683,1.683,0,0,1,.456,1.312v3.063h-1.283v-2.745a1.311,1.311,0,0,0-.181-.761.657.657,0,0,0-.576-.254.825.825,0,0,0-.8.4,2.474,2.474,0,0,0-.216,1.149v2.211h-1.281v-4.7h.981l.172.6h.069a1.289,1.289,0,0,1,.615-.525A2.136,2.136,0,0,1,532.05,229.827Z" transform="translate(-413.12 -228.072)" fill="#939aa7"/>
    </g>
  </g>
</svg>
