<svg xmlns="http://www.w3.org/2000/svg" width="125.323" height="87.079" viewBox="0 0 125.323 87.079">
  <g id="novowhite" transform="translate(0 0.005)" style="mix-blend-mode: normal;isolation: isolate">
    <g id="Capa_1" data-name="Capa 1" transform="translate(0 -0.005)">
      <path id="Trazado_47" data-name="Trazado 47" d="M39.9,57.607V49.6c0-1.381,0-3.835-4.7-3.835a11.879,11.879,0,0,0-3.624.553c-.78.26-1.04.553-1.04.959V57.623c0,.39.13.439.455.439h1.138c.309,0,.488,0,.488-.455V48.084c0-.536.878-1.073,2.5-1.073,2.665,0,2.665,1.755,2.665,2.828v7.768c0,.406.13.455.5.455h1.284C39.884,58.013,39.9,57.818,39.9,57.607Z" transform="translate(19.089 28.61)" fill="#023573"/>
      <path id="Trazado_48" data-name="Trazado 48" d="M47.912,52.1a6.208,6.208,0,0,0-2.226-5.476,5.7,5.7,0,0,0-6.045,0A6.24,6.24,0,0,0,37.414,52.1a6.191,6.191,0,0,0,2.226,5.428,5.7,5.7,0,0,0,6.045,0A6.191,6.191,0,0,0,47.912,52.1Zm-2.145,0a6.159,6.159,0,0,1-1.073,4.209,2.649,2.649,0,0,1-2.031.764,2.584,2.584,0,0,1-2.015-.764A5.9,5.9,0,0,1,39.543,52.1a5.948,5.948,0,0,1,1.105-4.225,2.584,2.584,0,0,1,2.015-.764,2.649,2.649,0,0,1,2.031.764A6.11,6.11,0,0,1,45.767,52.1Z" transform="translate(23.363 28.608)" fill="#023573"/>
      <path id="Trazado_49" data-name="Trazado 49" d="M51.588,46.963c0-.829-1.414-1.2-3.006-1.2a9.149,9.149,0,0,0-2.649.374c-.8.211-1.073.553-1.073.959V57.672c0,.374.146.39.455.39H46.5c.293,0,.423,0,.423-.39v-9.75a1.056,1.056,0,0,1,1.089-1.056h.1c1.5,0,1.723,1.105,2.5,1.105a.943.943,0,0,0,.975-.943Z" transform="translate(28.039 28.61)" fill="#023573"/>
      <path id="Trazado_50" data-name="Trazado 50" d="M59.1,58.357V43.731c0-.423-.114-.471-.471-.471H57.488c-.39,0-.439.13-.439.5v4.209a5.1,5.1,0,0,0-2.535-.634c-3.591,0-5.444,3.413-5.444,6.273,0,4.241,2.34,6.321,5.866,6.321C56.675,59.982,59.1,59.088,59.1,58.357Zm-2.015-.683c0,.618-.975.943-2.048.943-2.243,0-3.851-1.885-3.851-5.119,0-2.811,1.625-4.68,3.673-4.68a3.088,3.088,0,0,1,2.226.731Z" transform="translate(30.671 27.047)" fill="#023573"/>
      <path id="Trazado_51" data-name="Trazado 51" d="M59.309,44.312a1.268,1.268,0,0,0-2.519,0,1.186,1.186,0,0,0,1.17,1.2h.081A1.235,1.235,0,0,0,59.309,44.312Zm-.228,14.95V48.083c0-.358-.1-.439-.471-.439h-1.2c-.406,0-.406.146-.406.439v11.18c0,.309,0,.406.358.406H58.61C58.968,59.669,59.081,59.653,59.081,59.263Z" transform="translate(35.496 27.002)" fill="#023573"/>
      <path id="Trazado_52" data-name="Trazado 52" d="M74.389,59.387a.487.487,0,0,0-.162-.309l-4.4-5.818h0a14.625,14.625,0,0,0,4.144-4.875.975.975,0,0,0,.13-.471c0-.211-.114-.26-.423-.26H72.585c-.406,0-.6,0-.715.358a10.205,10.205,0,0,1-4.111,5.151.244.244,0,0,0-.1.146.146.146,0,0,0,0,.114l4.144,5.915c.227.341.325.341.683.341h1.625S74.389,59.614,74.389,59.387Zm-7.085-.1V43.575c0-.325-.146-.325-.439-.325H65.646c-.26,0-.406,0-.406.374V59.273c0,.309.081.358.406.358h1.219C67.19,59.63,67.3,59.63,67.3,59.289Z" transform="translate(40.778 27.041)" fill="#023573"/>
      <path id="Trazado_53" data-name="Trazado 53" d="M67.284,54.778c0-3.9-5.72-3.25-5.72-5.883a1.853,1.853,0,0,1,1.9-1.8h.179c1.349,0,1.625.878,2.389.878a.8.8,0,0,0,.861-.731h0c0-.878-1.511-1.4-3.12-1.4-2.113,0-3.965,1.138-3.965,3.25s1.414,2.86,3.12,3.575c1.349.569,2.6,1.073,2.6,2.356a2.178,2.178,0,0,1-2.275,2.048H63.14c-1.625,0-2.1-1.2-2.893-1.2-.39,0-.878.162-.878.764,0,.959,1.853,1.771,3.738,1.771a3.819,3.819,0,0,0,4.176-3.624Z" transform="translate(37.109 28.66)" fill="#023573"/>
      <path id="Trazado_54" data-name="Trazado 54" d="M9.344,57.607V49.6c0-1.381,0-3.835-4.68-3.835a11.879,11.879,0,0,0-3.624.553c-.8.26-1.04.553-1.04.959V57.623c0,.39.114.439.439.439H1.625c.325,0,.488,0,.488-.455V48.084c0-.536.878-1.073,2.5-1.073,2.714,0,2.714,1.755,2.714,2.828v7.768c0,.406.146.455.52.455H9.116C9.328,58.013,9.344,57.818,9.344,57.607Z" transform="translate(0 28.61)" fill="#023573"/>
      <path id="Trazado_55" data-name="Trazado 55" d="M17.372,52.1a6.224,6.224,0,0,0-2.243-5.476,5.688,5.688,0,0,0-6.029,0A6.208,6.208,0,0,0,6.874,52.1,6.191,6.191,0,0,0,9.1,57.527a5.314,5.314,0,0,0,3.006.861,5.363,5.363,0,0,0,3.023-.861A6.208,6.208,0,0,0,17.372,52.1Zm-2.145,0a5.98,5.98,0,0,1-1.089,4.209,2.616,2.616,0,0,1-2.031.764,2.6,2.6,0,0,1-2.015-.764A5.98,5.98,0,0,1,9,52.1a6.013,6.013,0,0,1,1.089-4.225,2.6,2.6,0,0,1,2.015-.764,2.616,2.616,0,0,1,2.031.764A6.013,6.013,0,0,1,15.227,52.1Z" transform="translate(4.273 28.609)" fill="#023573"/>
      <path id="Trazado_56" data-name="Trazado 56" d="M30.4,52.1a6.24,6.24,0,0,0-2.21-5.476,5.688,5.688,0,0,0-6.029,0A6.208,6.208,0,0,0,19.934,52.1a6.191,6.191,0,0,0,2.21,5.428,5.7,5.7,0,0,0,6.045,0A6.191,6.191,0,0,0,30.4,52.1Zm-2.129,0a5.98,5.98,0,0,1-1.089,4.209,3.055,3.055,0,0,1-4.046,0A5.98,5.98,0,0,1,22.047,52.1a6.013,6.013,0,0,1,1.089-4.225,3.055,3.055,0,0,1,4.046,0A6.013,6.013,0,0,1,28.271,52.1Z" transform="translate(12.436 28.609)" fill="#023573"/>
      <path id="Trazado_57" data-name="Trazado 57" d="M23.695,46.174c0-.244-.2-.244-.309-.244H22.232c-.163,0-.211.1-.276.325l-3.023,8.856L15.8,46.3c-.114-.325-.163-.374-.5-.374H13.88c-.1,0-.325,0-.325.276a1.2,1.2,0,0,0,0,.341L17.764,57.6c.114.26.163.341.341.358h1.056c.276,0,.325,0,.439-.341l4.063-11.067A1.463,1.463,0,0,0,23.695,46.174Z" transform="translate(8.465 28.716)" fill="#023573"/>
      <path id="Trazado_58" data-name="Trazado 58" d="M74.368,39.9h1.105c.585,0,1.528,0,1.528.894s-.991.91-1.463.91h-1.17Zm-.975,5.184h.975V42.553h.569c.78,0,1.073.293,1.788,1.625l.536.943h1.186l-.731-1.251c-.748-1.186-1.056-1.365-1.4-1.5h0a1.625,1.625,0,0,0,1.056-2.828,3.153,3.153,0,0,0-1.983-.423h-2Zm2.454-8.678a5.59,5.59,0,1,0,5.574,5.606h0A5.59,5.59,0,0,0,75.846,36.41Zm0,.943a4.664,4.664,0,1,1-4.648,4.68h0a4.664,4.664,0,0,1,4.631-4.664Z" transform="translate(43.903 22.766)" fill="#023573"/>
      <path id="Trazado_59" data-name="Trazado 59" d="M27.133,0A9.393,9.393,0,0,0,17.74,9.4h0a9.377,9.377,0,0,0,9.376,9.376h0A9.393,9.393,0,1,0,27.133,0Zm.358,14.625a6.321,6.321,0,0,1-6.321-6.321h0a6.321,6.321,0,1,1,6.321,6.321Z" transform="translate(11.088 0.005)" fill="#023573"/>
      <path id="Trazado_60" data-name="Trazado 60" d="M74.857,27.658c-2.275-4.1-6.874-3.689-8.986-3.51-2.811.228-7.7.959-13.179.959A59.476,59.476,0,0,1,36.1,22.052a40.383,40.383,0,0,1-5.281-1.966c-1.056-.52-.5-.748,0-.991a13.293,13.293,0,0,0,5.736-4.566c.959-1.625.6-2.064-.471-1.2-.228.179-.634.52-1.2.894a11.132,11.132,0,0,1-9.75,1.381,11.2,11.2,0,0,1-7.345-7.361c-.406-1.2-.975-1.2-.975.423a11.375,11.375,0,0,0,2.438,7.361c.553.7.894,1.414.553,1.82a12.838,12.838,0,0,0-1.966,2.779,5.736,5.736,0,0,0-.081.91c-.13.894-1.056,1.82-2.194,3.25a1.625,1.625,0,0,0,.293,2.275,21.645,21.645,0,0,0,1.625,1.82c.975.553,1.723.162,2.6.439a4.68,4.68,0,0,1,3.1,2.275,51.433,51.433,0,0,0,5.281,9.051A7.914,7.914,0,0,1,29.6,45.257c0,7.036-3.673,13.618-6.045,17.875-.569,1.024-.455,1.853.309,1.853H27.6c1.625,0,.991-1.024,1.235-1.446s1.105.1,1.219-1.333a6.908,6.908,0,0,1,.163-1.4c.8-5.753,3.624-14.382,5.363-15.5a14.138,14.138,0,0,1,6.549,10.205,15.308,15.308,0,0,1-.179,7.768c-.488,1.544-.1,1.853.65,1.853h3.884c1.625,0,.878-1.073,1.154-1.414s.894-.114.78-1.024c-.991-5.038-3.543-9.311-4.68-14.3a5.07,5.07,0,0,1,3.1-6.289,12.464,12.464,0,0,1,7.248.829c.455.2.5.309.861,0,3.25-2.649,4.794-1.349,4.875-1.268a6.793,6.793,0,0,1,.634,2.584c.439,8.775-8.418,17.225-10.043,19.143-.7.78-.309,1.625.39,1.625h4.1c1.511,0,.861-1.089,1.089-1.381s.715,0,.959-.715c1.186-3.25,3.64-9.263,8.743-13.39.439-.325.861-1.219,1.235-3.25.146-.764.325-1.333.52-2.015,2.893,3.721,3.25,10.4-1.625,19.159-.5.926,0,1.625.39,1.625h3.9c1.186,0,.991-.618.991-1.154,0-.244,0-.683.91-.683H73.33a16.249,16.249,0,0,0,2.535,0c.7-.13.7-.78.7-1.625V44.266C76.369,41.812,76.775,31.136,74.857,27.658ZM64.1,25.936a1.9,1.9,0,0,1,1.869.536,5.915,5.915,0,0,1,1.024,4.16c-.146.8-1.284,1.121-1.414.276a9.458,9.458,0,0,0-1.853-4.014C63.141,26.261,63.336,26.082,64.1,25.936Zm-15.584.439c1.9.1,2.828.2,4,.179s3.039,0,3.656-.114a1.9,1.9,0,0,1,2.21,1.121c.358.861,1.625,4.371-.471,5.346a14.04,14.04,0,0,1-8.515.845c-.715-.2-1.885-.471-1.853-1.918a33.716,33.716,0,0,0-.179-4.046C47.248,26.927,47.1,26.261,48.515,26.374ZM41.2,25.5c1.17.179,1.17.5,1.17,1.2.1,2.876-.65,4.745-1.625,5.281-.553.309-1.251.163-1.251-.406a20.134,20.134,0,0,0,.5-5.314C39.919,25.269,40.033,25.318,41.2,25.5ZM25.7,32.761a12.594,12.594,0,0,0-2.958-3.884c-2.194-1.625-4.128-.52-5.038-1.625s-1.544-1.446-.683-2.5c.634-.764.991-1.4,1.381-1.836s.325-1.625.488-2.064a8.434,8.434,0,0,1,2.243-2.714c1.138-.926,2.665,0,5.688,1.755,1.625.975,3.348,1.836,4.16,2.324s.228,1.446-.244,2.194a59.169,59.169,0,0,0-3.884,7.638C26.464,33.07,26.236,33.525,25.7,32.761Zm45.5,2.73a32.4,32.4,0,0,1-.666,3.916c-.845,3.884-2.86,2.324-3.494,1.918a15.617,15.617,0,0,0-7.3-2.454c-6.5-.553-10.108-.1-12.042.553-.569.179-5.444,1.625-5.541,6.5,0,1.479-.439,1.333-1.121.813a79.774,79.774,0,0,0-8.206-5.541,10.368,10.368,0,0,1-3.348-3.088,7.394,7.394,0,0,1-.748-6.971,31.688,31.688,0,0,1,2.828-5.655c1.625-2.324,1.414-2.356,4.453-1.381,2.73.878,2.584,1.219,2.616,2.551a19.679,19.679,0,0,1-.536,4.973,1.479,1.479,0,0,0,1.138,1.788,1.236,1.236,0,0,0,.341,0c4.274.114,4.371-5.834,4.371-5.85,0-1.381-.439-1.625.926-1.528,1.024.114,1.219.975,1.365,2.535V32a2.633,2.633,0,0,0,2.178,2.779A15.974,15.974,0,0,0,58.737,33.9a2.958,2.958,0,0,0,1.625-3.153,15.032,15.032,0,0,0-.683-3.38c-.26-.65-.228-1.105.325-1.17,2.616-.341,3.786,2.373,4.68,5.688.293,1.073,1.771,1.008,2.535.276a3.819,3.819,0,0,0,.634-4,6.5,6.5,0,0,0-.618-1.625c-.2-.325-.244-.6.471-.6,4.761,0,3.575,8.791,3.51,9.555Zm3.023,10.677a.358.358,0,0,1-.163.341.374.374,0,0,1-.52-.1,47.89,47.89,0,0,1-1.333-6.24,16.462,16.462,0,0,1,.358-4.55,44.477,44.477,0,0,0,.211-4.875c0-.715.569-.65.845.39,1.073,2.941.618,14.788.618,15.032Z" transform="translate(9.515 4.623)" fill="#023573"/>
      <path id="Trazado_61" data-name="Trazado 61" d="M18.621,16.889c.894,1.544,2.714-1.008,2.551-1.479S17.711,15.362,18.621,16.889Z" transform="translate(11.54 9.526)" fill="#023573"/>
    </g>
  </g>
</svg>
