<svg xmlns="http://www.w3.org/2000/svg" width="35.323" height="56.451" viewBox="0 0 35.323 56.451">
  <g id="orto_icon" transform="translate(-109.934 -56.961)">
    <path id="Trazado_57479" data-name="Trazado 57479" d="M124.975,84.027a6.354,6.354,0,0,1-.889-.062,6.822,6.822,0,0,1-4.223-2.3,3.657,3.657,0,0,0-2.748-1.252q-.11,0-.22.007c-.078,0-.156,0-.234,0A6.74,6.74,0,0,1,112.487,68.4a6.855,6.855,0,0,1,4.122-1.477l.507-.009.207-.462q1.051-2.346,2.093-4.7.944-2.123,1.89-4.244a.96.96,0,0,1,.711-.554h13.547a1.015,1.015,0,0,1,.871.473l.012.022a.934.934,0,0,1,0,.873l-2.768,5.7q-1.905,3.922-3.808,7.845l-.233.481.356.4a6.827,6.827,0,0,1,1.542,6.1,6.7,6.7,0,0,1-2.883,4.079A6.856,6.856,0,0,1,124.975,84.027Zm-7.811-5.417a5.411,5.411,0,0,1,4.015,1.818,4.988,4.988,0,0,0,2.874,1.7,4.5,4.5,0,0,0,.926.095,4.945,4.945,0,0,0,3.265-8.651l-.023-.019a1.558,1.558,0,0,1-.57-.652l-.006-.026-.008-.026a1.073,1.073,0,0,1,.142-.808L127.8,72q2.935-6.036,5.862-12.075l.556-1.146H132.23q-2.248,0-4.5-.006t-4.5-.006h-.519l-.21.475q-1.041,2.35-2.088,4.7-.921,2.068-1.839,4.137a1.174,1.174,0,0,1-.416.581l-.021.012-.02.013a.874.874,0,0,1-.492.123,1.876,1.876,0,0,1-.319-.03l-.031,0a4.593,4.593,0,0,0-.612-.041,4.944,4.944,0,1,0,.039,9.888q.14,0,.281-.008C117.037,78.611,117.1,78.61,117.164,78.61Z" fill="#001965"/>
    <path id="Trazado_57480" data-name="Trazado 57480" d="M250.83,158.923a.831.831,0,0,1-.39-.093l-.04-.02a.831.831,0,0,1-.436-.609.852.852,0,0,1,.178-.746c.318-.33.661-.671.993-1,.272-.271.544-.542.813-.816a1.029,1.029,0,0,1,.465-.3.813.813,0,0,1,.241-.036.905.905,0,0,1,.781.44l.017.03a.912.912,0,0,1-.134,1.05c-.586.592-1.2,1.2-1.859,1.858A.912.912,0,0,1,250.83,158.923Z" transform="translate(-112.09 -78.729)" fill="#001965"/>
    <path id="Trazado_57481" data-name="Trazado 57481" d="M267.521,195.748l-.737,0-.744,0h-.1a.925.925,0,0,1-.863-.718l-.006-.029a.923.923,0,0,1,.62-1.014,8.694,8.694,0,0,1,1.037-.05c.2,0,.408,0,.613.007s.427.007.64.007c.163,0,.325,0,.487-.008l.069,0a.939.939,0,0,1,.893.767l0,.034a.849.849,0,0,1-.193.659.863.863,0,0,1-.593.341C268.32,195.744,267.961,195.748,267.521,195.748Z" transform="translate(-124.186 -109.657)" fill="#001965"/>
    <path id="Trazado_57482" data-name="Trazado 57482" d="M120.362,236.5a.97.97,0,0,1-.646-.374l-.018-.025a1.867,1.867,0,0,1-.207-.8c-.012-.092-.023-.184-.037-.275l-.418-3.072q-.419-3.085-.843-6.17l-.07-.508-.491-.147a6.745,6.745,0,0,1,1.927-13.215,6.531,6.531,0,0,1,1.621.2c.079.021.167.047.256.072a4.8,4.8,0,0,0,1.349.246q.121,0,.242-.01a3.941,3.941,0,0,0,1.984-.728,6.745,6.745,0,0,1,6.442-.314,6.867,6.867,0,0,1,3.174,3.224,6.733,6.733,0,0,1,.282,4.955,6.872,6.872,0,0,1-2.764,3.586l-.46.3.119.537q1.2,5.412,2.392,10.823l.039.171a1.8,1.8,0,0,1,.077.864l-.013.039a.946.946,0,0,1-.731.618Zm5.2-1.806q2.879,0,5.758.007l.994,0-.213-.972q-.494-2.252-.995-4.5-.682-3.078-1.356-6.158a.913.913,0,0,1,.538-1,4.96,4.96,0,0,0,2.324-7.359,4.947,4.947,0,0,0-4.131-2.2,4.625,4.625,0,0,0-1.555.265,5.474,5.474,0,0,0-1.2.592,5.96,5.96,0,0,1-.637.353,5.43,5.43,0,0,1-4.02.24,4.846,4.846,0,0,0-1.52-.242,4.941,4.941,0,0,0-1.088,9.76c.132.031.268.052.388.071a1.66,1.66,0,0,1,.477.118l.024.013a.932.932,0,0,1,.474.718l0,.023q.271,1.974.538,3.949.382,2.818.771,5.635l.1.688Z" transform="translate(-2.297 -123.089)" fill="#001965"/>
    <path id="Trazado_57483" data-name="Trazado 57483" d="M252.637,227.155a.719.719,0,0,1-.135-.013l-.031-.005a1.935,1.935,0,0,1-.935-.7c-.15-.16-.3-.324-.477-.48-.15-.166-.308-.314-.461-.458a1.937,1.937,0,0,1-.671-.879l-.007-.032a.905.905,0,0,1,.673-1.033l.023,0a.861.861,0,0,1,.181-.019.921.921,0,0,1,.629.247c.291.285.581.576.872.867q.356.357.714.712l.022.022.024.02a1.136,1.136,0,0,1,.466.947l0,.023,0,.023A.911.911,0,0,1,252.637,227.155Z" transform="translate(-112.056 -133.351)" fill="#001965"/>
  </g>
</svg>
