<svg xmlns="http://www.w3.org/2000/svg" width="54.039" height="55.456" viewBox="0 0 54.039 55.456">
  <path id="psi_ico" d="M157.341,104.512l-.158,1.438a2.908,2.908,0,0,0-1.477.492,2.633,2.633,0,0,0-1,1.174,8.419,8.419,0,0,0-.522,2.385q-.18,1.628-.2,4.126a53.533,53.533,0,0,1-.343,6.435,23.251,23.251,0,0,1-1.027,4.769,10.866,10.866,0,0,1-2.081,3.577,14.11,14.11,0,0,1-3.5,2.858,17.365,17.365,0,0,1-4.976,1.912,31.961,31.961,0,0,1-6.5.738v12q0,2.214.111,3.643a9.11,9.11,0,0,0,.334,2.073,3.323,3.323,0,0,0,.711,1.173,4.875,4.875,0,0,0,1.242.947,6.091,6.091,0,0,0,1.91.615,14.6,14.6,0,0,0,2.446.181l.269,0,.158,1.4H121.8l.158-1.4a18.561,18.561,0,0,0,2.655-.2,7.17,7.17,0,0,0,1.867-.52,4.1,4.1,0,0,0,1.233-.852,3.426,3.426,0,0,0,.754-1.193,8.757,8.757,0,0,0,.385-2.148q.128-1.467.128-3.719v-12a33.428,33.428,0,0,1-6.543-.748,16.912,16.912,0,0,1-4.9-1.864,13.918,13.918,0,0,1-3.417-2.791,11.253,11.253,0,0,1-2.1-3.53,22.3,22.3,0,0,1-1.088-4.8,54.032,54.032,0,0,1-.385-6.6q0-2.384-.163-3.965a8.8,8.8,0,0,0-.488-2.357,2.709,2.709,0,0,0-1-1.23,3.255,3.255,0,0,0-1.546-.587l-.158-1.438a16.493,16.493,0,0,1,3.126.341,9.443,9.443,0,0,1,2.458.87,6.529,6.529,0,0,1,1.91,1.571,10,10,0,0,1,1.482,2.442,15.71,15.71,0,0,1,1,3.331,28.974,28.974,0,0,1,.471,4.24q.12,2.9.368,4.968a20.286,20.286,0,0,0,.625,3.322,7.162,7.162,0,0,0,1.191,2.309,9.006,9.006,0,0,0,5.087,3.246,17.392,17.392,0,0,0,4.068.464v-16.5q0-2.214-.111-3.643a9.09,9.09,0,0,0-.334-2.073,3.232,3.232,0,0,0-.711-1.164,4.668,4.668,0,0,0-1.242-.918,6.462,6.462,0,0,0-1.91-.6,16.232,16.232,0,0,0-2.715-.2l-.158-1.4h20.939l-.158,1.4a18.487,18.487,0,0,0-2.732.208,6.892,6.892,0,0,0-1.893.549,4.037,4.037,0,0,0-1.216.88,3.232,3.232,0,0,0-.7,1.2,10.091,10.091,0,0,0-.343,2.12q-.12,1.439-.137,3.634v16.5a17.188,17.188,0,0,0,4.094-.435,8.431,8.431,0,0,0,2.963-1.306,9.494,9.494,0,0,0,2-1.931,7.856,7.856,0,0,0,1.216-2.309,18.523,18.523,0,0,0,.676-3.331q.266-2.082.385-5a25.362,25.362,0,0,1,.771-5.64,11.592,11.592,0,0,1,1.833-3.975,7.239,7.239,0,0,1,3.143-2.366,12.736,12.736,0,0,1,4.7-.814m-52.1-1.781.217,1.971.158,1.439.15,1.359,1.356.175a1.554,1.554,0,0,1,.8.306.971.971,0,0,1,.368.459,7.027,7.027,0,0,1,.362,1.862c.1.99.154,2.264.154,3.787a56.033,56.033,0,0,0,.4,6.819,24.1,24.1,0,0,0,1.181,5.177,13.045,13.045,0,0,0,2.419,4.071,15.718,15.718,0,0,0,3.839,3.143,18.714,18.714,0,0,0,5.4,2.065,32.838,32.838,0,0,0,5.191.716v10.337c0,1.444-.041,2.644-.122,3.567a7.023,7.023,0,0,1-.28,1.686,1.688,1.688,0,0,1-.374.595,2.388,2.388,0,0,1-.717.485,5.529,5.529,0,0,1-1.41.381,17,17,0,0,1-2.4.177l-1.534.019-.172,1.524-.158,1.4-.218,1.934h24.832l-.219-1.934-.158-1.4-.176-1.562-1.572.019h-.247a12.905,12.905,0,0,1-2.152-.156,4.439,4.439,0,0,1-1.364-.423,3.18,3.18,0,0,1-.8-.6,1.6,1.6,0,0,1-.347-.564,7.364,7.364,0,0,1-.244-1.639c-.07-.9-.106-2.084-.106-3.508V136.086a31.634,31.634,0,0,0,5.153-.713,19.165,19.165,0,0,0,5.471-2.11,15.915,15.915,0,0,0,3.929-3.214,12.657,12.657,0,0,0,2.41-4.145,25.067,25.067,0,0,0,1.111-5.13,55.555,55.555,0,0,0,.356-6.646c.011-1.585.074-2.913.187-3.935a6.7,6.7,0,0,1,.378-1.859.9.9,0,0,1,.347-.42,1.207,1.207,0,0,1,.684-.229l1.436-.111.158-1.432.158-1.439.214-1.942-1.954.013a14.51,14.51,0,0,0-5.343.941,8.989,8.989,0,0,0-3.88,2.932,13.362,13.362,0,0,0-2.122,4.565,27.173,27.173,0,0,0-.83,6.03c-.077,1.878-.2,3.509-.373,4.841a16.956,16.956,0,0,1-.6,3.008,6.162,6.162,0,0,1-.949,1.8,7.813,7.813,0,0,1-1.641,1.575,6.749,6.749,0,0,1-2.358,1.025,12.962,12.962,0,0,1-1.939.311V115.112c.011-1.4.055-2.578.131-3.489a8.307,8.307,0,0,1,.263-1.724,1.5,1.5,0,0,1,.329-.564,2.342,2.342,0,0,1,.7-.5,5.169,5.169,0,0,1,1.411-.4,16.879,16.879,0,0,1,2.472-.185l1.534-.019.172-1.525.158-1.4.219-1.934H119.85l.218,1.934.158,1.4.174,1.543h1.553a14.611,14.611,0,0,1,2.421.174,4.8,4.8,0,0,1,1.393.421,2.969,2.969,0,0,1,.785.569,1.506,1.506,0,0,1,.336.543,7.373,7.373,0,0,1,.244,1.639c.07.9.106,2.084.106,3.508v14.676a13.226,13.226,0,0,1-1.906-.321,7.271,7.271,0,0,1-4.131-2.618,5.4,5.4,0,0,1-.905-1.753,18.728,18.728,0,0,1-.563-3.026c-.16-1.331-.28-2.957-.358-4.833a30.838,30.838,0,0,0-.5-4.5,17.527,17.527,0,0,0-1.118-3.7,11.785,11.785,0,0,0-1.745-2.863,8.294,8.294,0,0,0-2.418-1.982,11.212,11.212,0,0,0-2.909-1.036,18.307,18.307,0,0,0-3.456-.38l-1.983-.043Z" transform="translate(-105.244 -102.731)" fill="#001965"/>
</svg>
