<svg xmlns="http://www.w3.org/2000/svg" width="48.117" height="55.105" viewBox="0 0 48.117 55.105">
  <path id="trab_soc_icon" d="M118.484,89.406h.165a4.756,4.756,0,0,1,3.048,1.233,6.526,6.526,0,0,1,.9,1.061,5.592,5.592,0,0,1,8.49,0A5.032,5.032,0,0,1,135,89.406h.21a5.039,5.039,0,0,1,3.372,1.375,4.922,4.922,0,0,1,1.43,2.7,18.206,18.206,0,0,1,.087,2.591,8.789,8.789,0,0,1-.273,3,5.068,5.068,0,0,1-1.467,2.134q0,.478,0,.956a23.843,23.843,0,0,1,3.79,1.642,3.251,3.251,0,0,1,3.882-.793,3.536,3.536,0,0,1,1.582-.774,3.229,3.229,0,0,1,3.171,1.306,3.145,3.145,0,0,1,.561,1.786c.014.792,0,1.584.012,2.378,0,.39,0,.891-.385,1.114a.791.791,0,0,1-1.211-.573c-.088-1.04.039-2.088-.055-3.128a1.54,1.54,0,0,0-3.063.218c-.015,2.439,0,4.878-.005,7.317a2.324,2.324,0,0,1-.468,1.494c-.458.577-.969,1.112-1.444,1.675-1.978,2.319-4.071,4.536-6.112,6.8a1.146,1.146,0,0,1-.815.475.8.8,0,0,1-.784-.761,1.274,1.274,0,0,1,.447-.863c1.348-1.455,2.673-2.931,4.019-4.386a1.73,1.73,0,0,0,.325-1.878,1.773,1.773,0,0,0-2.053-1.024,2.978,2.978,0,0,0-1.359,1.006q-3.063,3.179-6.136,6.346a6.766,6.766,0,0,0-1.431,1.8,4.334,4.334,0,0,0-.366,1.913q0,3.019,0,6.039h9.56a15.592,15.592,0,0,1,2.776-7.071c1.548-2.144,3.109-4.277,4.662-6.417a21.768,21.768,0,0,0,1.482-2.176,6.7,6.7,0,0,0,.77-2.857,6.247,6.247,0,0,1,.1-1.146.8.8,0,0,1,1.143-.392.86.86,0,0,1,.4.765,8.833,8.833,0,0,1-1.134,4.682c-.421.711-.942,1.356-1.418,2.03l-4.4,6.052A14.561,14.561,0,0,0,142.2,129a16.8,16.8,0,0,0-.537,2.255,2.353,2.353,0,0,1,1.429.53,1.948,1.948,0,0,1,.617,1.521c-.007,3.122.009,6.245-.008,9.367a1.889,1.889,0,0,1-1.778,1.839H128.344a3.959,3.959,0,0,1-1.048-.3,4.469,4.469,0,0,1-1.008.3H112.694a1.9,1.9,0,0,1-1.8-1.928c-.008-3.091,0-6.182,0-9.273a1.945,1.945,0,0,1,.615-1.525,2.34,2.34,0,0,1,1.431-.531,14.114,14.114,0,0,0-1.965-5.338c-.58-.945-1.263-1.821-1.908-2.721q-2.036-2.8-4.072-5.6a8.728,8.728,0,0,1-1.745-5.368c0-2.046,0-4.091,0-6.136a4.544,4.544,0,0,1,.3-2.067,3.173,3.173,0,0,1,3.15-1.811,3.512,3.512,0,0,1,1.868.8,3.65,3.65,0,0,1,1.566-.325,3.428,3.428,0,0,1,2,.792c1.077-.488,2.2-.877,3.293-1.315,0-.294,0-.586,0-.879a5.021,5.021,0,0,1-1.558-2.17,9.267,9.267,0,0,1-.28-3.139,21.567,21.567,0,0,1,.06-2.373,4.692,4.692,0,0,1,1.424-2.816,5.136,5.136,0,0,1,3.414-1.381m-2.79,3.185a4.134,4.134,0,0,0-.5,2.376,8.065,8.065,0,0,0,4.006-.907,8.5,8.5,0,0,1,1.52-.723,1.7,1.7,0,0,1,.91.159,3.331,3.331,0,0,0-2.513-2.4,3.281,3.281,0,0,0-3.426,1.5m17.711-1a3.459,3.459,0,0,0-1.327,1.8,7.6,7.6,0,0,1,.349,1.578,9.252,9.252,0,0,0,4.111-1.209,2.61,2.61,0,0,1,1.048-.435,1.906,1.906,0,0,1,.835.235,3.539,3.539,0,0,0-1.6-2.1,3.249,3.249,0,0,0-3.417.134m-8.026.048a3.9,3.9,0,0,0-2.268,2.379,6.238,6.238,0,0,0-.251,2.257,10.548,10.548,0,0,0,5.393-1.324,3.453,3.453,0,0,1,1.573-.624c.406.035.681.374.98.611a4.323,4.323,0,0,0-.848-2.092,4.066,4.066,0,0,0-4.581-1.207M115.2,96.585a10.911,10.911,0,0,0,.04,1.342A3.138,3.138,0,0,0,116.428,100a3.35,3.35,0,0,0,4.824-.8c-.01-1.229,0-2.459,0-3.689l-.435-.468a11.182,11.182,0,0,1-5.614,1.542m17.242-.01c0,.872,0,1.745-.007,2.616a3.376,3.376,0,0,0,3.471,1.437,3.233,3.233,0,0,0,2.5-2.488,12.864,12.864,0,0,0,.082-2.106c-.307-.331-.614-.661-.922-.991a11.232,11.232,0,0,1-5.124,1.533m-9.579,1.315a5.846,5.846,0,0,0,.445,2.994,4.036,4.036,0,0,0,4.582,2,3.98,3.98,0,0,0,2.893-3.245c.086-.765.027-1.537.045-2.305-.4-.432-.8-.86-1.2-1.291a12.527,12.527,0,0,1-6.763,1.845m-1.244,3.223c-.01.35-.012.7-.013,1.049.263.1.525.2.787.306a9.294,9.294,0,0,1-.774-1.355m9.637,1.406q.458-.181.92-.355a4.867,4.867,0,0,0-.065-1.061,14.831,14.831,0,0,1-.855,1.416m-14.2-.414a2.807,2.807,0,0,1-.2.928,1.883,1.883,0,0,1-.723.608,10.037,10.037,0,0,0,1,1.029,2.2,2.2,0,0,0,2.177.282,5.376,5.376,0,0,0,1.5-1.336,2,2,0,0,1-.646-.582,2.256,2.256,0,0,1-.19-.943,5.339,5.339,0,0,1-2.922.014m16.75,0a2.222,2.222,0,0,1-.188.9,1.974,1.974,0,0,1-.732.633,9.815,9.815,0,0,0,1.032,1.043,2.152,2.152,0,0,0,2.18.256,5.535,5.535,0,0,0,1.471-1.326,1.866,1.866,0,0,1-.662-.608,2.309,2.309,0,0,1-.187-.91,5.427,5.427,0,0,1-2.915.015m-28.946,3.223q-.016,3.557,0,7.114a6.938,6.938,0,0,0,1.323,4.038c1.438,2,2.9,3.991,4.344,5.988a27.774,27.774,0,0,1,2.452,3.691,15.513,15.513,0,0,1,1.587,5.125h9.565q0-3.022,0-6.043a4.285,4.285,0,0,0-.394-1.968,5.045,5.045,0,0,0-.976-1.294q-3.524-3.634-7.04-7.275a1.794,1.794,0,0,0-2.231-.313,1.771,1.771,0,0,0-.48,2.586c1.4,1.614,2.886,3.144,4.317,4.727a.806.806,0,1,1-1.189,1.081c-1.042-1.112-2.069-2.239-3.105-3.355-1.467-1.552-2.813-3.211-4.222-4.813a2.605,2.605,0,0,1-.849-1.755c-.025-2.513.007-5.028-.015-7.541a1.543,1.543,0,0,0-3.085.007m8.158-.5a3.512,3.512,0,0,1,.011,1.9c-.264.84-.584,1.659-.869,2.491q2.373,0,4.747,0a5.64,5.64,0,0,1,1.811-2.478,4.485,4.485,0,0,1-1.946-.42,8.881,8.881,0,0,1-2.264-2.079c-.5.192-1,.383-1.49.583m9.423-.614c-.393.439-.792.872-1.188,1.307.742-.293,1.492-.561,2.223-.877-.337-.161-.684-.3-1.034-.43m7.872.414c.665.314,1.364.55,2.046.821-.364-.4-.732-.8-1.1-1.2-.321.119-.639.244-.95.383m6.62,1.68a4.168,4.168,0,0,1-1.918.424,5.767,5.767,0,0,1,1.777,2.489q2.817,0,5.634,0c-.384-1.277-1.117-2.513-.972-3.892a7.43,7.43,0,0,0-2.257-1.115,9.155,9.155,0,0,1-2.264,2.093m-27.5-1.935a6.29,6.29,0,0,1,.131,1.17q0,3.071,0,6.14c.628-1.775,1.275-3.545,1.888-5.325a1.555,1.555,0,0,0-.85-1.935,1.874,1.874,0,0,0-1.17-.049m15.592-.04a3.357,3.357,0,0,1-.145,1.13,2.051,2.051,0,0,1-1.032.8,14.758,14.758,0,0,0,1.32,1.36,2.672,2.672,0,0,0,2.856.319,8.161,8.161,0,0,0,1.823-1.7,1.953,1.953,0,0,1-.854-.622,2.7,2.7,0,0,1-.237-1.309,6.144,6.144,0,0,1-3.731.028m18.554.341a1.563,1.563,0,0,0-.43,1.755c.615,1.753,1.242,3.5,1.866,5.253q0-3.012,0-6.025a6.944,6.944,0,0,1,.13-1.283,1.669,1.669,0,0,0-1.566.3m-12.1,2.167a11.03,11.03,0,0,1-2.7,2.508,4.326,4.326,0,0,1-4.517-.39,19.711,19.711,0,0,1-2.035-2.085c-.568.229-1.143.44-1.708.674A3.826,3.826,0,0,0,118.364,110a13.68,13.68,0,0,0-.154,3.028c2.15,0,4.3.007,6.446,0a1.132,1.132,0,0,1,.873.253.8.8,0,0,1-.05,1.162,1.576,1.576,0,0,1-1.038.207c-2.185-.02-4.371.023-6.555-.023,1.979,2.025,3.937,4.068,5.91,6.1a6.994,6.994,0,0,1,1.389,1.844,5.9,5.9,0,0,1,.562,2.67q0,3.017,0,6.035a3.05,3.05,0,0,1,1.546.334,3.092,3.092,0,0,1,1.552-.334q0-3.016,0-6.03a5.836,5.836,0,0,1,.568-2.685,6.442,6.442,0,0,1,1.175-1.62q3.492-3.608,6.982-7.218a3.84,3.84,0,0,1,1.4-.977,3.377,3.377,0,0,1,3.032.315,3.6,3.6,0,0,1,1.42,1.8c.231-.274.467-.544.7-.814q-.572-1.631-1.142-3.261a18.1,18.1,0,0,1-1.962.048h-3.936c-.013.784.027,1.572-.017,2.357a1.61,1.61,0,0,1-1.559,1.447c-2.145.019-4.292,0-6.438.01a1.333,1.333,0,0,1-.851-.188.812.812,0,0,1-.1-1.145,1.027,1.027,0,0,1,.844-.286q3.25,0,6.5,0c0-.734.021-1.469,0-2.2a3.813,3.813,0,0,0-2.091-3.226c-.614-.3-1.262-.508-1.892-.763m-19.895,4c-.375,1.069-.762,2.132-1.13,3.2.238.272.476.546.709.821A3.5,3.5,0,0,1,114,112.55a3.458,3.458,0,0,1,2.616.776c-.037-.828-.011-1.657-.016-2.485q-2.506,0-5.012,0m.942,22.277c-.069.709,0,1.425-.026,2.137h13.985c-.009-.648.014-1.3,0-1.944-.013-.153-.014-.385-.221-.383-.534-.06-1.073-.011-1.608-.024q-5.81,0-11.622,0c-.174.022-.487-.032-.507.216m15.6,0c-.07.71-.008,1.427-.028,2.14h13.988c-.019-.712.039-1.428-.025-2.137-.022-.243-.331-.2-.5-.216q-6.463,0-12.923,0c-.174.022-.488-.032-.509.214M112.5,136.87c0,1.794,0,3.588,0,5.383a1.651,1.651,0,0,0,.072.571,1.271,1.271,0,0,0,.458.075q6.2,0,12.4,0a3.064,3.064,0,0,0,1.006-.077,4.14,4.14,0,0,0,.063-1.1c0-1.617,0-3.234,0-4.851H112.5m15.6,0c0,1.794,0,3.589,0,5.383a1.863,1.863,0,0,0,.068.572,1.376,1.376,0,0,0,.477.074q6.188,0,12.376,0a3.106,3.106,0,0,0,1.008-.076,2.271,2.271,0,0,0,.067-.677c-.01-1.759,0-3.517,0-5.276Z" transform="translate(-103.24 -89.406)" fill="#001965"/>
</svg>
