<svg xmlns="http://www.w3.org/2000/svg" width="22.147" height="19" viewBox="0 0 22.147 19">
  <path id="Icon_ionic-logo-vimeo" data-name="Icon ionic-logo-vimeo" d="M24.251,6.972a2.818,2.818,0,0,0-2.008-2.289,5.735,5.735,0,0,0-4.653.831,7.862,7.862,0,0,0-2.66,4.144,3.735,3.735,0,0,1,1.928-.341,1.26,1.26,0,0,1,1.231,1.251,3.444,3.444,0,0,1-.178,1.37,14.481,14.481,0,0,1-2.354,4,3.56,3.56,0,0,1-.494.49c-.5.41-.93.3-1.256-.257a6.926,6.926,0,0,1-.6-1.439,46.131,46.131,0,0,1-1.177-6.013,7.353,7.353,0,0,0-.89-2.813A2.384,2.384,0,0,0,8.665,4.811,6.178,6.178,0,0,0,6.3,6.116S3.533,8.436,2.257,9.647l1.048,1.335s.885-.618,1.36-.9a.7.7,0,0,1,.85.01,2.709,2.709,0,0,1,.608.7,9.418,9.418,0,0,1,.727,1.652c.653,2.19,1.261,4.386,1.869,6.591A9.433,9.433,0,0,0,10.1,22.172a2.649,2.649,0,0,0,3.506,1.063,9.975,9.975,0,0,0,3.263-2.171,33.211,33.211,0,0,0,4.228-5,23.264,23.264,0,0,0,2.542-4.3A7.626,7.626,0,0,0,24.251,6.972Z" transform="translate(-2.257 -4.499)"/>
</svg>
