<svg xmlns="http://www.w3.org/2000/svg" width="32.711" height="23" viewBox="0 0 32.711 23">
  <path id="Icon_awesome-youtube" data-name="Icon awesome-youtube" d="M33.078,8.1a4.11,4.11,0,0,0-2.892-2.911C27.635,4.5,17.406,4.5,17.406,4.5s-10.229,0-12.78.688A4.11,4.11,0,0,0,1.734,8.1a43.117,43.117,0,0,0-.684,7.925,43.117,43.117,0,0,0,.684,7.925,4.049,4.049,0,0,0,2.892,2.864c2.551.688,12.78.688,12.78.688s10.229,0,12.78-.688a4.049,4.049,0,0,0,2.892-2.864,43.117,43.117,0,0,0,.684-7.925A43.117,43.117,0,0,0,33.078,8.1ZM14.06,20.887V11.16l8.549,4.864L14.06,20.887Z" transform="translate(-1.05 -4.5)" fill="#0e0e0e"/>
</svg>
