<svg xmlns="http://www.w3.org/2000/svg" width="32.878" height="32.878" viewBox="0 0 32.878 32.878">
  <path id="Icon_awesome-key" data-name="Icon awesome-key" d="M30.878,10.615A10.62,10.62,0,0,1,18.284,21.044l-1.448,1.629a1.447,1.447,0,0,1-1.082.486H13.509v2.412a1.447,1.447,0,0,1-1.447,1.447H9.65v2.412A1.447,1.447,0,0,1,8.2,30.878H1.447A1.447,1.447,0,0,1,0,29.431V24.723A1.448,1.448,0,0,1,.424,23.7l9.758-9.758a10.615,10.615,0,1,1,20.7-3.327ZM20.264,7.72a2.895,2.895,0,1,0,2.895-2.895A2.895,2.895,0,0,0,20.264,7.72Z" transform="translate(1 1)" fill="none" stroke="#001964" stroke-width="2"/>
</svg>
