<svg xmlns="http://www.w3.org/2000/svg" width="33.569" height="33.57" viewBox="0 0 33.569 33.57">
  <g id="Icon_awesome-pen-alt" data-name="Icon awesome-pen-alt" transform="translate(1.001 1.239)">
    <path id="Icon_awesome-pen-alt-2" data-name="Icon awesome-pen-alt" d="M30.468,4.538,26.79.86a2.939,2.939,0,0,0-4.155,0l-3.46,3.46,7.833,7.833,3.46-3.46a2.939,2.939,0,0,0,0-4.155Zm-15.1-1.256a2.447,2.447,0,0,0-3.461,0L4.638,10.551a.978.978,0,0,0,0,1.384L6.023,13.32a.979.979,0,0,0,1.385,0l6.23-6.23,1.385,1.384L5.749,17.747A20.011,20.011,0,0,0,.01,29.683l0,.014a1.469,1.469,0,0,0,1.621,1.622A20.01,20.01,0,0,0,13.582,25.58L25.623,13.539,20.559,8.474,15.367,3.282Z" transform="translate(0.001 0)" fill="none" stroke="#001964" stroke-width="2"/>
  </g>
</svg>
